<mxfile host="www.draw.io" modified="2020-01-02T09:30:30.100Z" agent="Mozilla/5.0 (Windows NT 10.0; Win64; x64) AppleWebKit/537.36 (KHTML, like Gecko) Chrome/79.0.3945.79 Safari/537.36" etag="aTpNBmCFfWLXQN5e9Ypn" version="12.4.8" type="github" pages="6">
  <diagram id="igcyUrAdArKGxer2U9tb" name="架构图">
    <mxGraphModel dx="1635" dy="812" grid="1" gridSize="10" guides="1" tooltips="1" connect="1" arrows="1" fold="1" page="1" pageScale="1" pageWidth="827" pageHeight="1169" math="0" shadow="0">
      <root>
        <mxCell id="0"/>
        <mxCell id="1" parent="0"/>
        <mxCell id="rLT0J8aDYwus9qKLVi9h-79" value="" style="rounded=0;whiteSpace=wrap;html=1;" parent="1" vertex="1">
          <mxGeometry x="126" y="221.5" width="514" height="130" as="geometry"/>
        </mxCell>
        <mxCell id="YerrViW4XqpFd-7M9TbX-25" value="" style="rounded=0;whiteSpace=wrap;html=1;" parent="1" vertex="1">
          <mxGeometry x="433.25" y="230" width="200" height="104" as="geometry"/>
        </mxCell>
        <mxCell id="rLT0J8aDYwus9qKLVi9h-69" value="" style="shape=flexArrow;endArrow=classic;html=1;fontSize=13;strokeColor=#666666;fillColor=#f5f5f5;" parent="1" edge="1">
          <mxGeometry width="50" height="50" relative="1" as="geometry">
            <mxPoint x="179.5" y="600" as="sourcePoint"/>
            <mxPoint x="179.5" y="560" as="targetPoint"/>
          </mxGeometry>
        </mxCell>
        <mxCell id="rLT0J8aDYwus9qKLVi9h-1" value="内管系统" style="rounded=0;whiteSpace=wrap;html=1;fontSize=9;fillColor=#dae8fc;strokeColor=#6c8ebf;" parent="1" vertex="1">
          <mxGeometry x="130" y="75" width="510" height="30" as="geometry"/>
        </mxCell>
        <mxCell id="rLT0J8aDYwus9qKLVi9h-4" value="" style="rounded=0;whiteSpace=wrap;html=1;fontSize=9;" parent="1" vertex="1">
          <mxGeometry x="126" y="120" width="514" height="85" as="geometry"/>
        </mxCell>
        <mxCell id="rLT0J8aDYwus9qKLVi9h-5" value="表现层" style="rounded=0;whiteSpace=wrap;html=1;fillColor=#dae8fc;strokeColor=#6c8ebf;fontStyle=1" parent="1" vertex="1">
          <mxGeometry x="42" y="40" width="71" height="70" as="geometry"/>
        </mxCell>
        <mxCell id="rLT0J8aDYwus9qKLVi9h-6" value="服务&lt;br&gt;逻辑层" style="rounded=0;whiteSpace=wrap;html=1;fillColor=#dae8fc;strokeColor=#6c8ebf;fontStyle=1" parent="1" vertex="1">
          <mxGeometry x="41" y="120" width="70" height="85" as="geometry"/>
        </mxCell>
        <mxCell id="rLT0J8aDYwus9qKLVi9h-7" value="数据源" style="rounded=0;whiteSpace=wrap;html=1;fillColor=#dae8fc;strokeColor=#6c8ebf;fontStyle=1" parent="1" vertex="1">
          <mxGeometry x="42" y="490" width="70" height="70" as="geometry"/>
        </mxCell>
        <mxCell id="rLT0J8aDYwus9qKLVi9h-8" value="内管平台&lt;br&gt;概念高亮" style="rounded=1;whiteSpace=wrap;html=1;fillColor=#d5e8d4;strokeColor=#82b366;" parent="1" vertex="1">
          <mxGeometry x="130" y="40" width="100" height="30" as="geometry"/>
        </mxCell>
        <mxCell id="rLT0J8aDYwus9qKLVi9h-9" value="知识查询" style="rounded=1;whiteSpace=wrap;html=1;fillColor=#fff2cc;strokeColor=#d6b656;fontSize=5;" parent="1" vertex="1">
          <mxGeometry x="314.5" y="130" width="120" height="30" as="geometry"/>
        </mxCell>
        <mxCell id="rLT0J8aDYwus9qKLVi9h-11" value="关联知识查询" style="rounded=1;whiteSpace=wrap;html=1;fillColor=#fff2cc;strokeColor=#d6b656;fontSize=5;" parent="1" vertex="1">
          <mxGeometry x="492.75" y="130" width="120" height="30" as="geometry"/>
        </mxCell>
        <mxCell id="rLT0J8aDYwus9qKLVi9h-15" value="" style="rounded=0;whiteSpace=wrap;html=1;" parent="1" vertex="1">
          <mxGeometry x="430" y="495" width="206.5" height="60" as="geometry"/>
        </mxCell>
        <mxCell id="rLT0J8aDYwus9qKLVi9h-16" value="结构化数据" style="text;html=1;strokeColor=none;fillColor=none;align=center;verticalAlign=middle;whiteSpace=wrap;rounded=0;" parent="1" vertex="1">
          <mxGeometry x="476.25" y="495" width="120" height="20" as="geometry"/>
        </mxCell>
        <mxCell id="rLT0J8aDYwus9qKLVi9h-17" value="" style="rounded=0;whiteSpace=wrap;html=1;" parent="1" vertex="1">
          <mxGeometry x="120.5" y="495" width="120" height="60" as="geometry"/>
        </mxCell>
        <mxCell id="rLT0J8aDYwus9qKLVi9h-18" value="半结构化数据" style="text;html=1;strokeColor=none;fillColor=none;align=center;verticalAlign=middle;whiteSpace=wrap;rounded=0;" parent="1" vertex="1">
          <mxGeometry x="120.5" y="495" width="120" height="20" as="geometry"/>
        </mxCell>
        <mxCell id="rLT0J8aDYwus9qKLVi9h-19" value="" style="rounded=0;whiteSpace=wrap;html=1;" parent="1" vertex="1">
          <mxGeometry x="240.5" y="495" width="120" height="60" as="geometry"/>
        </mxCell>
        <mxCell id="rLT0J8aDYwus9qKLVi9h-20" value="非结构化数据" style="text;html=1;strokeColor=none;fillColor=none;align=center;verticalAlign=middle;whiteSpace=wrap;rounded=0;" parent="1" vertex="1">
          <mxGeometry x="240.5" y="495" width="120" height="20" as="geometry"/>
        </mxCell>
        <mxCell id="rLT0J8aDYwus9qKLVi9h-21" value="" style="shape=image;verticalLabelPosition=bottom;labelBackgroundColor=#ffffff;verticalAlign=top;aspect=fixed;imageAspect=0;image=data:image/png,iVBORw0KGgoAAAANSUhEUgAAADoAAAA/CAQAAAAbfxMQAAAABGdBTUEAALGPC/xhBQAAACBjSFJNAAB6JgAAgIQAAPoAAACA6AAAdTAAAOpgAAA6mAAAF3CculE8AAAAAmJLR0QAAKqNIzIAAAAJcEhZcwAAAHgAAAB4AJ31WmAAAAAHdElNRQfjAQkDMgmKhvc6AAAGnElEQVRYw62Za2xURRTHf7vdvsujQB9QKJYAVkoBH+EVBAVRLPLQ+IBAIIEQQjBQkEQQEyKpBkgQFIiSoGAg8QM0VMMjAQIUEh5VQA3IoxAKFrAP2tJut3R3u+OHnb29d+/cu+3imQ/de89/zv/OzDkz50yhI+JiKnu5w3lmE9+hHs8sqWygHoFA0MRO+lki08gnm9hnp+zKbkkYaqUMVeBSWMYVarhDMe88K/Fa2sJIBYfpFobqyS4dromt9IyeciiVJkqBj7kGVDf2mDA/khIt6ecKSoHgCIkaxsUmBaKNwugoEzhuQfqQwRpqBk1KTDk50ZD25ZYFqY8PtKk9ZYERVmN1RiDNsNC4SJO/RjPKsv8kdVTbk8bbuH6c/DtRt7rhMoRenSe1EwFAAi/bYFy4/l9Sn5yLrjaYVonqFGkNTywpqwBIsiW9Tm3nSe9xy0JTxR9yLB6b/hfxql7r5zyHF0nnKpdokW+aOcR4C3P/ANBCoyXlvxy2HRI9WMcdfAiecJBJ2gzkKCP1Ke9rPb+1jNIdxNhR9uZnA7yedSRL3UoCJnP7NS1MwaOkvMUQO8pk9il2ziL5nd1M2vO6LRCS2K+gbNB2LAtZgE/RrYn3pD6NnbRoH1NCblj/wZSadub5di7qoAclvKrUnWUmdQAkUMB0cqjhKMU0mJD9WcVM0okjgJtzbOKU7DeOiaQCbsoo416oQwGNFo7gZbbOsJNE9f4itc/zNouYzWhtvfuxG7dmzc8NCkO69ZbeJzhgQxNJunPQZM/PdpIATtqQltps5pFkmcLrBT6WAJYnpkBwOmrSVC5Y2PybQdFv+PaSR56FJpd50ayZg670IQ0/D6jiqRIzzDItczDdhbtThHFM4ENG0JeuBKjhJr+yX3GWDLexkQJbbNZ0d1iID2KPKQkLUGqK8ziO2Fi9D5Ops1B6KDCYGstlSzPvGpCJnLYhrYR49loojxkO6BFcszH0iGkG0lM22HvB+S9XqB7zls5MFmdszAgEdxijoWMpsUGWB0FTuB+maKEQh2bExfYIlALBBV09940N7kYI9Aa/aWdNC5dZoKWYALN0e6hd26sVVnMVZVeoFbePpjdjGYaLB9zkqky7gjKGfQzoUEAJtrKGVuAFjpOlxHiDG6G95Fr6rKq18ilOwMlGC8RJdQKulxzDgeCjkgqqlFt5qLlZggPI4JBCW2FxdutkECfCImwMfRkewZMbWCgXbDOPdB/o5gQTIlG+wkXTdwb9c0eESa5jMTGAkzwW8i3fsYMVjDfV7yaZwg1FWGcDsC3i2rop7GzJ4mAuj5R7SZD0iw64VHPnaF0s065wjK2S/gCs6pAnN7NCnW6bz9NkVrOKBO3Zw0MeUosXJ9U0A8gKxctjfLjIsMjkkygihq34I42yC9t1e4mPEgrIIhkXMcRo07UUgWADA8lmLA80vJevWcwSlnJJvvHwWaQ7tiS2GVx8rcX5vwRBqzwQ+nFP6+FhnPSJX3TbxZbwclI/vQ4+loEN4OcrNhAAoAeZJOGmgSoE0Aa00Sp76SU40fG6j41jOYK1WiUYJlMNx3moSHIyi4tUUU81B2R2OB+BRwZ6tmGkwXfhh7iP9frbi/aR9mA1qdqTl5+k08xhuzY9mXJVW+UMdFRcrOQKB0OP7ZE02XA1Uytr8HQ+0a1IiMqH6BQpJLOULmbS1wzXN7WydMpnkMKEHxG2lpFlFCPCSRPDjD+V9yIZuohtl7ZOjxRSpGfrSLuQaYAkysyhQpkX+3WkHR9xdjipy5CeQLo8aq9zVdE9oCO1v18xDsRhJG2m3gDoST4A9RRRob0N+Xqbrm81hzUHc2rjth1/yIybu4w0vF/ECeqAo8xgGi/RhXp+lystEMTL6QrwJWX0QgB+6fPxwSo0TFrMnhB+XAXYbLhIjjd4ugehbRVmGai8D19jBo43VSleflAGDEzAg8BLEd2V+jl4TZRN7ddg7XOfQjFvmrrfpoQyrlGDR1s5P69TQiLgp4xjVNFCo8yanXSnPwsUKes5poauSPQL/hF7LKKylmqeSPcBQSr5hqxA0CY/yYFL6USC5WxTTUoCuzqUEUTTSq2z3Qzbwif6drd9N1JJJt9b/O+hvbXiwU09jXhosU28g63cUP+hCuI4JjKPkaSSTCxOBD78eGjGx31uU8GfuGnjKXHE4uI58hhAPhnKLKOBI2zkr0ikQeIs+tCXdJLwUkcd1TzGx2OLG4p4epNPHrkMJxkHTgIIajjDSc6ar0L+A7tYECPmoImzAAAAJXRFWHRkYXRlOmNyZWF0ZQAyMDE5LTAxLTA5VDAzOjUwOjA5KzA4OjAwQjo+OQAAACV0RVh0ZGF0ZTptb2RpZnkAMjAxOS0wMS0wOVQwMzo1MDowOSswODowMDNnhoUAAABDdEVYdHNvZnR3YXJlAC91c3IvbG9jYWwvaW1hZ2VtYWdpY2svc2hhcmUvZG9jL0ltYWdlTWFnaWNrLTcvL2luZGV4Lmh0bWy9tXkKAAAAGHRFWHRUaHVtYjo6RG9jdW1lbnQ6OlBhZ2VzADGn/7svAAAAGHRFWHRUaHVtYjo6SW1hZ2U6OkhlaWdodAA0NzA2G/8cAAAAF3RFWHRUaHVtYjo6SW1hZ2U6OldpZHRoADQzMMGGakUAAAAZdEVYdFRodW1iOjpNaW1ldHlwZQBpbWFnZS9wbmc/slZOAAAAF3RFWHRUaHVtYjo6TVRpbWUAMTU0Njk3NzAwOa08daMAAAASdEVYdFRodW1iOjpTaXplADEyODk3QjPHBP4AAABidEVYdFRodW1iOjpVUkkAZmlsZTovLy9ob21lL3d3d3Jvb3QvbmV3c2l0ZS93d3cuZWFzeWljb24ubmV0L2Nkbi1pbWcuZWFzeWljb24uY24vZmlsZXMvMTE5LzExOTMzNzEucG5nKOEzJgAAAABJRU5ErkJggg==;" parent="1" vertex="1">
          <mxGeometry x="130.5" y="518" width="28" height="30" as="geometry"/>
        </mxCell>
        <mxCell id="rLT0J8aDYwus9qKLVi9h-22" value="" style="shape=image;verticalLabelPosition=bottom;labelBackgroundColor=#ffffff;verticalAlign=top;aspect=fixed;imageAspect=0;image=data:image/png,iVBORw0KGgoAAAANSUhEUgAAADAAAAAwCAYAAABXAvmHAAAABGdBTUEAALGPC/xhBQAAACBjSFJNAAB6JgAAgIQAAPoAAACA6AAAdTAAAOpgAAA6mAAAF3CculE8AAAABmJLR0QA/wD/AP+gvaeTAAAAB3RJTUUH4wEJAgI4BdyrxAAAC/tJREFUaN7tWctvXMWa/1XVeXW33dfxQ+6o48GkncRvC2yQbAkBYsEiZMkCXQldCc0skJhZzIJ/gN2d2SLNrECjSGh2LFjOEgTkQVDAFsZ23PiRxLG77X6cZz1m4VN1T7c7vt7NYlJS6/SprlPne/y+3/d91cCL8WL8/x6ke0Ip9X8tU29BCek5bz3vge+//x7Ly8sol8vY29vrVlLvRjJG6L52GylrGZW5N1dCiFlz8+ZNLC8vgzF2vmLdE0opfPPNN3jvvffwxRdfFMMwnPE8708kNYFlWYQxRgAQSikopUQpRaSUUEoRIQSRUsLzPDiOY96hlFLpGiO8Oh36qpIkUek0giBQvu+fSCkfWpbVIoTgk08+uZgChBB8+eWXlxlj/1ooFP7sed6oXssYAyEEnHOkCoBzbp5LkgQA4HkeLMvq2Dd77R5SSiRJAsYYKKVIkkSFYXjQarX+6+jo6K+2bR/k83l89NFH50Po888/x9dff+0+e/bsHwcHB/95dHTUJoRASgkAoJRCKQUhBAghHcroey0E0IndrPBaYSmlMQDnHK7rgjGmYTr65MmTfwmCoH50dPRXAEm3vGcUsG0btVrtT/39/X8ZHh62tbBCCCiljGD6KoQApbQDq1JKCCHAOYdlWcZrUkoQQjoU0ZbXc5zzDmMNDQ3ZJycnH7Varf+wLOuoW17aSwHGGHMcp8+2bfNS/dGb63vLsmBZlrnXQyucFTbrJb2222PZ9UIIWJYF13X7bNtmaUyd7wFKKSzLMlDRCmQtqq3YLYxWruMF6fosbLpjTnsoq2B2L+3hXox0RoEUJpo5wDk/o2C3BbW19LxSygietWz2Ge0dbSBKqYFedh/tkQvnAb2hlNJ8lFIaWsZaWUGSJEEcx7BtG47jdFhTC58VpBs+WWt3B71WUgjR28PdE0mSGFbR7hVCAIDBalaYbJDrGAKAOI479tD7SCk1y3QIp/fuFeScc/M5A/nuiTiOwTknml26N9RQ0L8xxuA4TsdaLai+6nzRbX0tXDaWsjGg2ak71s71gKY9jd0s7qMoMolKC08IgW3b8DwPcRyjVqsZHFuWhf7+fggh4Pt+B426rgsAiKLIeCNJEliWBcdxIKVEGIYYGBiAZVmwbbsjMT5XAUopXNclWQtphQ4ODvDTTz+hXq9DCAHXdXHp0iUsLi6iXC5jdXUV3377LaIoguM4uHLlCt555x34vo87d+5gf38fnHOUSiWsrKygr68Pq6urqFarODo6QpIkGB0dxdLSEoaGhuA4jjHS8zxwBkKMsY7ko6lLSolSqYS3334bfX19qFariKII7777LmZmZmDbNqanpzE3N4eDgwMcHx/jrbfewtjYGIaGhvDGG28gjmNYloVbt26hUqkgl8vhtddewyuvvIK9vT1cvXoVH3zwAebn55HL5eB53hlo/V0FNEziODYsJIRAHMcQQsDzPExOTqJQKKBWq2F3dxfNZhNJksC2bbz66qt46aWXEMcxHj9+jHa7DUopms0mgiDAm2++ieHhYTSbTePhw8NDXLlyBTdv3gRjDM+ePesgifNYqKcCnHMSxzFJkgRJknRkVSklxsfHMTIygnq9jvX1dcMOhBAUi0UsLi7Ctm3cvXvX/Pbw4UOUSiXMzc0ZhdOqE7/++ivm5+cxODiIMAw7ckeW5S7EQo7jmPJAC9UdzI7jYHJyEp7nYWNjA8fHxx3rr1+/jlKphJ2dHWxvb+Pw8BCPHj3C66+/DsdxEEWR2bfRaEAIgenpaSNgtgroLkcuHANaWNu2TRLTOKSUYnJy0nihWq12KDs0NIQbN24gjmPcu3cPq6uryOfzmJ+fh+/7HWvX1tYwMjKCsbExtNtts3/WC7qUyDLjcxXQD2VpUltEf2eMYWBgAFNTUyCE4MGDB6Yq1RacmprC8PAw1tbWcPfuXaysrMC2bSRJYgzRaDSwv7+PqakpMMZMWZ3Ff9b6FwpibW3HceC6rkkqmp91ve44Dq5du4ZcLofHjx9ja2vLcDWlFOVyGZVKBb7vo1gs4tq1awiCwFiSMYbt7W1IKTE/P48wDA109UeXJr0sfy6EKKWKUqo0S2TmO6rV0dFRVCoVBEGAn3/+2VhJCzg3N4dCoYCTkxPU63UAMGwSBAHW19cxMTGBYrFoPJitobK1V69KtqcCOniklIY6s+VBllpzuRwqlQo8z0O1WsXOzk5HIdhutyGEwM7ODu7fvw/OOcIwhBACe3t72NrawsLCgtlbv0czn2YezvnFWUjnAX3VXtBC6xzBOUeSJBgfH0epVEK9Xsdvv/1mXthqtXD//n0UCgUIIfDjjz+i2WyakmF9fR3lchmlUgntdtsozTlHHMeI49goovm/Fxv1LOa0AlrQrPXDMDRWBID+/n5MTEyAUoq1tTXUajUAwMbGBmq1Gm7duoWxsTHU63X88ssvcBwHvu9jc3MTCwsLYIzB9/2OtpVzjiiKjFeycfF3FfB9H81mU2khtRLdzY1WTAiB69evI5/PY3d3F3/88QdOTk5w584dlMtlzM7OYnZ2FpZlYW1tDb7vo1qtghCCiYkJtFot6ISp36PjIDuX7UPOVSBb7sZxjDAMjVu1V7Iwi6II+XweL7/8MqSUuHfvHjY3N7G7u4uVlRWEYYiJiQlcunQJ1WoV6+vr2NnZQaVSwcDAAIIgAOccQRCYd3VD6TwI9TyZU0opvSnnHLZtd3Cybk5s2zaMc+PGDfz+++/Y2tpCvV7H1NQUyuUyjo6OMDg4iMuXL+PBgwf47rvvAADvv/8+Go0GgiAwRst6Wzc5+r3Py8hnPJBlA01tSinjDR3YOpjDMEQURRgcHES5XDY9wezsrFkvhECpVAIhBLu7uxgcHMTo6CiOj48NGWi4ZOsvnr5LU/eFmnohBKIoUkopxFEExhhsy0LCOeIoOl3jeaCUnnrBsqAYQz6Xw9jYGLa2tjA9PY1KpYJnBwemARoZGUGpVMLh4SEWFxfht9uIowiUMYhMDcR1F0cIRCqP/u1CHVm26uScgwsB23GgpARlDDKlUkIpCOeQaaZUUuJKuYyFhQUsLy8DSPtrIcAoRS6Xw+TkJJrNJsbHx/F4fx9hGAJpcUgJQZw54NKFM8scdPUaZxTo7+9HPp9XAOB6nnGtDi4pJUAIlBBAqqxmCC+Xw9LSEoaHh/H0yRNEcQzbssCFQBiGuHz5MmZmZtBqtXB4dAQpJVzXhZQStm2fOTjThjxv9Axi3UZq6iSA4WUppXE5CAEBkDAGqgMOwPb2Nki6T+D7CIIACoDrujg+PsbR4SF4ymK6NeVJYnphfYCm8Lfmv/tw4bkKZI9UhE7jaQmgT48N3E4xBwXAsm0oKdFoNAAAxWIRzLJ0g3TKMgCiNL+YalNKJHGMZhjCtm3kcjmTAxRgDHlhD6TWVwYyaXaM49hsFIahaXyiNHN7nmfoNXuGo+91GcLS43hC6akHKUXb9xEGgSnmHMcx3pRCQJ5Doz1ZqNFoqHw+D6UUWo3GKVOkvKzhpT2hLSylhOM4iKMIMmWwJEkQBMHp9xQWlmUBSkGkRBBHEYIgQBRFcF3XQBVKgVAK6bqQKa1fyAPpUUbIGLtPKX2XMnbKFug8mWs1m+bPjSRJEAUBSMrXnufB9/3T4A0Ckzv6+vrAKEW73e4o0wn+1nnpDG/bNvKFAgAgSZI7YRgGFzqdLhQK+OGHHxrT09P/ZlnWRLFYrGhvuK5r+FjXSVEUgaVWZanwXi53SotpOV7o69PnTR1/fCTpqZzruhjM9BH6WL3Q1wchxG9RFP17qVRqHhwcXAxCMzMzuH379v98+OGHfw7C8J+UUv/gOA6ctEPTlgrC8BSfAGzHQS6XOw1upSBSt1PG4Hke7PTQlxCCfKEAISVIHJtnLcsCJQRSKQ0ZdXx8XLUs6z83NzfvaCbqHj3PrD/77DNzIv3pp59iYWkJS0tLmJ6ZOeV1zvH06VNsbGyYtnN8fBzXb9zALw8fIkkSPHn6FPVaDfPz87h69eppbnj6FP39/SgWi3j06NGpolIin8shn8/DdV3s7+9jY2MD9Xod/337Nr766iscHh6CMYaPP/4YL8aL8WJ0jv8F1gy2lmPxm4kAAAAldEVYdGRhdGU6Y3JlYXRlADIwMTktMDEtMDlUMDI6MDI6NTYrMDg6MDBUpuVOAAAAJXRFWHRkYXRlOm1vZGlmeQAyMDE5LTAxLTA5VDAyOjAyOjU2KzA4OjAwJftd8gAAAEN0RVh0c29mdHdhcmUAL3Vzci9sb2NhbC9pbWFnZW1hZ2ljay9zaGFyZS9kb2MvSW1hZ2VNYWdpY2stNy8vaW5kZXguaHRtbL21eQoAAAAYdEVYdFRodW1iOjpEb2N1bWVudDo6UGFnZXMAMaf/uy8AAAAXdEVYdFRodW1iOjpJbWFnZTo6SGVpZ2h0ADY0vOCphAAAABZ0RVh0VGh1bWI6OkltYWdlOjpXaWR0aAA2NERPaQkAAAAZdEVYdFRodW1iOjpNaW1ldHlwZQBpbWFnZS9wbmc/slZOAAAAF3RFWHRUaHVtYjo6TVRpbWUAMTU0Njk3MDU3NuneBKcAAAARdEVYdFRodW1iOjpTaXplADQ0NTNC9KBFzwAAAGJ0RVh0VGh1bWI6OlVSSQBmaWxlOi8vL2hvbWUvd3d3cm9vdC9uZXdzaXRlL3d3dy5lYXN5aWNvbi5uZXQvY2RuLWltZy5lYXN5aWNvbi5jbi9maWxlcy8xMDcvMTA3NTY2MS5wbmc3A5vJAAAAAElFTkSuQmCC;" parent="1" vertex="1">
          <mxGeometry x="162.5" y="515" width="35" height="35" as="geometry"/>
        </mxCell>
        <mxCell id="rLT0J8aDYwus9qKLVi9h-23" value="" style="shape=image;verticalLabelPosition=bottom;labelBackgroundColor=#ffffff;verticalAlign=top;aspect=fixed;imageAspect=0;image=data:image/png,iVBORw0KGgoAAAANSUhEUgAAAEAAAABACAQAAAAAYLlVAAAABGdBTUEAALGPC/xhBQAAACBjSFJNAAB6JgAAgIQAAPoAAACA6AAAdTAAAOpgAAA6mAAAF3CculE8AAAAAmJLR0QAAKqNIzIAAAAJcEhZcwAAAMgAAADIAGP6560AAAAHdElNRQfjAQkDNzs/JlL/AAAH4UlEQVRo3u3Ze3DU1RUH8M9mN+RJSHiEVyBAoJTXoLUEFdup7YBUx6L2gWKVVoexL+tUxZmOTp3aqe3gq9NaGW3VSltrxWeR1ledio9SCUVBAeURIAQCJBBCHoTNZvtHdkl2s8kmg/Sf9vubnfn97j3n3u8999xzz73L/zoC/ZANGoBMg3rQCmhxDO1aPx4CGQYqMsIwo2K/4aJyDBdKKR/VoBatdmtQqdEetQ6p19xfAsPNMNsMZUYpki2ANu3qhdHkkPYUWnmGCWKgHBkyENHosCrbbfKOLY70hcBUi11sokwtDthrlxq7HLFPRI1WAa0aRFMQyFKAgKHy5RirwDglSowyTEizLf7mcVt6n+Vr7BZVaYVvO9douf3yku4IKTDBPEuttFdUpcWCPYtfrVmtW407xW5TD26SH6vT7NqeRKaoVGfBx951VyxQa7epqSvvEHXHae0ebhW1LFVFkQrVJp12AqV22GJ494pzNVnZm4N8TAh4VNgF8c+MkxXlcr0jctoJRK0VMiv+2RnTZmjzXj/GUaLMRAOE7bRDVT+ov6fZDMFEjVyv22dCnxoImuMh2zVrEtWkWaXHzJXZRwKj7FRhUMdHfAoKjbFPbR/Uh/uFlT4pqN69mj1gnWEmW+FBY/pEoN5eIxUlEig2RFVvm0YME60w143uk+NnXha0zQ8ds9p3zbbSmX0g0GKXwUYmEhgiT7W2NKojLTfSFZ62xEa/FUDQ255wlfUucdSDStMSiNonS3EigVJBlWkUQ25TYrEN5iv3Ky0nA/Zv5LrCNtcJ+YmstBT2CCRbIB8NadTOc5nbbRD0dRu91qVmi5dcapBdfuQC89ISqCPZAuNF7OlVKega73oWo822ShMiaEfUX4xXhtVetSStDWq0xS0QjwODRB3vVanU+d51DSYrNsF1mCzocwgYLdv11opqN0uZzb221aZNsVCnz2X7u3pn9Kr0RcdjT0Qk9nZCVDj23h4rbXHCwjQWKLPfGjmdFgjI1Ohwr0rj7fUDR7HUODdpFXGWu9zvGUFBd6i3TECWu+Pm7RFhkXhOFScQSJuCBFV7URiLFHotZr52H3oTLBK1Bpnq4w7WK/JlaYk7YYFi4ZSJZieiCg2TLUumHEWyZcpFtpBsBUoEZck2UCiNLWl2RLGCTgtkyVflaK9K1co8pxWTFFgljEEyXe8rAgKmO+5VARmmeygNgSZHDO54zYiNjhNp4uBWjbG5PWhAB/su1hkozwG0GyFiUx+mIAFjVce9skdked5zBhpgllpLZco0z3E3CMm0yEFnGyDXI16Xn6a/HGtUG9tpgb6g1SNmmeWEzTabJySsNWa5sPPttNkJZ7rQ7zT2fex9J8DL1vqpEk2eNccXutRMdaEXNBjidps80x/j94dAi1vle8hIf7LTDfJOno++54QnDHaPUrekceZTIMBW1ynxhDJ3KXe9DFER83zNcgM97jw32tCvFvtJgLddpcUzPu8jS12i3VmWOW66Z2VZaHU/24uhL6sgxxilBiPXYq+rFRWJ/eq95VqFYKAxctP012UVhPQFQ11koSky1HnHi573lKlm+oQCTT7ygU2OGma+z5ljjA2WK1LgDVtP3QKT3aJCWPTk06rCbaYlTF+++X5ulb0xmUZtoraYq9wZ3YbZxQKBGIF/2uECLUlin3K5BT3kuges8y8NcgxAhqBWjfb4ssu7nK/qZDrhD5bZn0D3FWOda3enBaq8b2hCB3OsVt9l3H17NrjUAynKv5PQ9miVtnXdtAutt7fDJF0I1Pa7+6ioTcqtSyjZ6qakwY1V7c0OV+2YnVaN3c6rb3nUzX1zoRiiqq233nR5XaZghV/bkUK2vSOMxd0jINjtaPWwy1Ic1qJOYEBCAtNun/XWqTfZAtNjSWmLv7rX2hR5RqE8bV0JhB1SbkQS063ud3eKUNVsjyrHDTbaAA3etVXYWBeZdnKbjnjTvV5Jcus4iuTb3ZEEdxBoc1AwRUz4va86J6ksoEihMbbb6CX7DTXVQpO6mJ0tHvDHVJdyMWQJxE8h8U5rhIzoJljrPmekiA8Bg5Ur16ZVVhLxvR633C69YaygnYkEDmBICtEXvOpiUK/F8KQJCSV1Xu9Jv/SBdBhIPGeIN7BfNGkZdqDFPcod8Zzn1fmsBebEs7kkhL3sPv/o00XFBJHOINSBc7RYkTI1z/SZLtSynO1O6x1PWOkRb7s6wQt6Q9DTjiYf5MfbZ03aXSyOob7kMZXaRUV96Pspp68nFFin0ujEwkEq7DCqH81kKPMtT7nTxH5oxQf7RvJgg57UZHY/m+rrdp6IucIe6RxHByI2yTWz342lu1NJhZlCNiYTYJ2Is0/DJXUygmY5rqJ7xQhbbE+5FD9elKlSEb8j62qBGi8os+i0E7hSiRdTh+np9jj0X7iu32VKT9VLtKhzu7LTcmk9xi0OafHNnkWCvmGXqCp/drO5xis4ZSo5RppliYdtE1VlSWKL3b1+iivNN022NodU22OfSsfs1uqow2jXIJyyszy5CBkhU7FhSowyzhjD5YnYbpUVyUf31MuuyDSfNtNEJYbIFUREVJNGAWEHevhrskgRggpP7pOtjthnh/dV+Lea7iq9r/s8hYoNUSrfeIOUCslQ3OO2065OAw7b76AaB9SocdixnvfI/gWebAEBBbJS/m8IjVrQ1sMU/R8p8B8Xp7RfbVBJRAAAACV0RVh0ZGF0ZTpjcmVhdGUAMjAxOS0wMS0wOVQwMzo1NTo1OSswODowMOzz+xkAAAAldEVYdGRhdGU6bW9kaWZ5ADIwMTktMDEtMDlUMDM6NTU6NTkrMDg6MDCdrkOlAAAAQ3RFWHRzb2Z0d2FyZQAvdXNyL2xvY2FsL2ltYWdlbWFnaWNrL3NoYXJlL2RvYy9JbWFnZU1hZ2ljay03Ly9pbmRleC5odG1svbV5CgAAAGN0RVh0c3ZnOmNvbW1lbnQAIEdlbmVyYXRvcjogQWRvYmUgSWxsdXN0cmF0b3IgMTkuMC4wLCBTVkcgRXhwb3J0IFBsdWctSW4gLiBTVkcgVmVyc2lvbjogNi4wMCBCdWlsZCAwKSAgzkiQCwAAABh0RVh0VGh1bWI6OkRvY3VtZW50OjpQYWdlcwAxp/+7LwAAABl0RVh0VGh1bWI6OkltYWdlOjpIZWlnaHQAMTU1MzDIGTIAAAAYdEVYdFRodW1iOjpJbWFnZTo6V2lkdGgAMTU1MyWBxSsAAAAZdEVYdFRodW1iOjpNaW1ldHlwZQBpbWFnZS9wbmc/slZOAAAAF3RFWHRUaHVtYjo6TVRpbWUAMTU0Njk3NzM1OdINP78AAAASdEVYdFRodW1iOjpTaXplADYzMTAwQi46/zQAAABidEVYdFRodW1iOjpVUkkAZmlsZTovLy9ob21lL3d3d3Jvb3QvbmV3c2l0ZS93d3cuZWFzeWljb24ubmV0L2Nkbi1pbWcuZWFzeWljb24uY24vZmlsZXMvMTE5LzExOTkxMzgucG5nuD8eoAAAAABJRU5ErkJggg==;" parent="1" vertex="1">
          <mxGeometry x="201" y="516.5" width="32" height="32" as="geometry"/>
        </mxCell>
        <mxCell id="rLT0J8aDYwus9qKLVi9h-24" value="" style="shape=image;verticalLabelPosition=bottom;labelBackgroundColor=#ffffff;verticalAlign=top;aspect=fixed;imageAspect=0;image=data:image/png,iVBORw0KGgoAAAANSUhEUgAAADUAAAA/CAYAAABAfYAWAAAABGdBTUEAALGPC/xhBQAAACBjSFJNAAB6JgAAgIQAAPoAAACA6AAAdTAAAOpgAAA6mAAAF3CculE8AAAABmJLR0QAAAAAAAD5Q7t/AAAACXBIWXMAAAJYAAACWACbxr6zAAAAB3RJTUUH4wEJAzMloUWqmAAABaJJREFUaN7d2luoXNUZB/DfnDmaqCdqxRhTYyNqA0YbvBAU8UJbRUjw0qrNgy2xKoq0gqIPindBEazaB0VoNaKUqFG8PPStpU8GUV9sUhO0aTVNNFEbSaIx1zM+fHvmrDOZ2XPfc8gfhtmzZ62913+t9f3Xt75vcQCiVH9jztx5w25TQ2z49KPuSNURmoGjcVgj8gVgN7biS+zrhFytsQmhH2ApfoU5mD4EQjIi2/AOnsm+2yJWqiP0QzyFKwxndJphE+7Gsk5JjWaEbsr++xb/xMas14okWcEYTsGJ2b3PRWe/24rYaHJ9Gn6ZXW/GrfgrdhRIJsUIfoSHsQSzcSPex3hexZTUuZiZXT+Pl4dEpop9WIcHcb4wjYU4EltSUasftdGRcrl6/ePk/idphQYyf4xiVLEiRuzzjNTRmJ+1b4tsFs2ZO28SsdHSRLtSlRtpQmghrsWFOGLAhKooZWRgFlYIuV+LV/EatqbE0ulXafHwq/HHrMeGhbKwLZiLi3EJbsHmKrHRvCcko3QmHk8IbcR/tDDYAaEiHIP5OER09ibcJlukR9t4yIiQ+eOz32/g3ozUMFARpnIZ/iDEbQmeFUtQW6SOxNnZ9SY8gH8NiVAVO/EifoI7hHCd2wmpMeE6ERK7rtcWdeKcNkJiFmlbajfbIZVir8l2dKiY22PyhaaC/+J/1Ub1QixR5XRJOaRbUinmidX+YkzTWj0/wSNYjvEBbHFq7++GVNVQH8ZVHdQ7BU+KEXs7uzeGBTiozWeU8B1WyXHfuiE1njXwp9nvj/F3zUeqIpRzkVhEL01IXS9Gr13PpCRM4L6sg/pGqmJi8ygjdHOLOhfgIjHvU0/kOGGXnWJ23p+92FRKEo1VrYFBpyP6lJDnmVrbZPU5X+DPgybVlFAbWC+mUl/RN1IFdUINeeo5NFKtGtYLhkYqIVTGwR1U3aWDnW+3qNQ1smmZBjgDtwvJb0coCEf6CazuN6l9SSNmCJmu5JQ9yoQCpkr4W1zT4bsvFAvw7/pJagQb8H8RF7xc+H97c+rMEq4Umf+X4X3hPnXSjj14L69AN6RKYgr8BXficJzVZt1VYvtdxXL8Q/tuErGV3zQIUuN4VAQ/FgsPo9ykfAXbsUa4NqmW7zV55PqCXoRiKx7D08IxHckpu0MERzuKiedh0OvUDl0EPAeZXemF1AycKrYh7cpxrygJgVojR5i69dIPEja1VP60GwSpbbhLlizoFylCnk83sf0oEtPFot0U3arfN7hfZCGKHqnteK7fpKr4W/aZcuiaVK+S3Cvy1LPIqVMYuh6pqZrF74mUiCb9Qsh7kevUFpEU/Hc/SVWElD+E8woiU4/DRPq2b6QI9/8j7Xvn/UJJRJ/W5hXqdp3aLbINy3romG5JbZez6+2WVBVfm4i0TikckOvUAS/pnR4fmC4yeEWiJERqs2TDuR+pysQSsyu532rdKYtw8a/bKNtv7M7e/VJTUuP7anHBj5P7x+c8tCKyFz9rUW6QOD+XVNLRK/GVCKJciw/wlv1Horr1eFLE7Yo8OlfCZ/hTXqHUplbhTdwgzks8Jw44bRbByHq8kpUv2ineIz/GOInUXnGcYJbI9o3h5y1esMsUxCiTst0bRcryN7gSJ4tg5TR16jgF16la+xpNnS9FAH6R8MSXiuwdoXpDP7GZEEqzHzurF7XpV+35pMLW7POZsKtZOEmclFw9RRbfE5Lrmnrv51Gk0ypr+DYRkF8gEsj3iPOs6w3nwBWR/F4s1JeYXSubkmqAcSGhizJSS8S5vzVC2os+W1sWWf0FJkJ0r0s895YNSqbZdeJAyLEFkmiH5Jv4vTCT1uf96rAMH4ozE+cIVSx3UL+f2ClyZCvwgtgG1UynralTJwplce7hCJ3lavuFisigfCU2jFJCbZNqQm7KYNhrZiH4HjIUXyzSvL7AAAAAJXRFWHRkYXRlOmNyZWF0ZQAyMDE5LTAxLTA5VDAzOjUxOjM3KzA4OjAwc0gpuQAAACV0RVh0ZGF0ZTptb2RpZnkAMjAxOS0wMS0wOVQwMzo1MTozNyswODowMAIVkQUAAABDdEVYdHNvZnR3YXJlAC91c3IvbG9jYWwvaW1hZ2VtYWdpY2svc2hhcmUvZG9jL0ltYWdlTWFnaWNrLTcvL2luZGV4Lmh0bWy9tXkKAAAAY3RFWHRzdmc6Y29tbWVudAAgR2VuZXJhdG9yOiBBZG9iZSBJbGx1c3RyYXRvciAxOC4wLjAsIFNWRyBFeHBvcnQgUGx1Zy1JbiAuIFNWRyBWZXJzaW9uOiA2LjAwIEJ1aWxkIDApICDT3YPcAAAAGHRFWHRUaHVtYjo6RG9jdW1lbnQ6OlBhZ2VzADGn/7svAAAAGHRFWHRUaHVtYjo6SW1hZ2U6OkhlaWdodAA3NjVdLISLAAAAF3RFWHRUaHVtYjo6SW1hZ2U6OldpZHRoADYzObveBo8AAAAZdEVYdFRodW1iOjpNaW1ldHlwZQBpbWFnZS9wbmc/slZOAAAAF3RFWHRUaHVtYjo6TVRpbWUAMTU0Njk3NzA5N5tG4+0AAAASdEVYdFRodW1iOjpTaXplADE1MjIzQoZjEm8AAABidEVYdFRodW1iOjpVUkkAZmlsZTovLy9ob21lL3d3d3Jvb3QvbmV3c2l0ZS93d3cuZWFzeWljb24ubmV0L2Nkbi1pbWcuZWFzeWljb24uY24vZmlsZXMvMTE5LzExOTQ4OTEucG5nGikPtQAAAABJRU5ErkJggg==;" parent="1" vertex="1">
          <mxGeometry x="268" y="518" width="28" height="33" as="geometry"/>
        </mxCell>
        <mxCell id="rLT0J8aDYwus9qKLVi9h-25" value="" style="shape=image;verticalLabelPosition=bottom;labelBackgroundColor=#ffffff;verticalAlign=top;aspect=fixed;imageAspect=0;image=data:image/png,iVBORw0KGgoAAAANSUhEUgAAADcAAABHCAQAAAAJ8BcMAAAABGdBTUEAALGPC/xhBQAAACBjSFJNAAB6JgAAgIQAAPoAAACA6AAAdTAAAOpgAAA6mAAAF3CculE8AAAAAmJLR0QAAKqNIzIAAAAJcEhZcwAAAlgAAAJYAJvGvrMAAAAHdElNRQfjAQkDFC11W5DPAAADOElEQVRYw+3ZT2gcdRTA8c/sbrauSWqSJkSjYEVUKIhY8SJepAh68B/2Ioj3FiyCYHsQPXioUKQWrCAS6EERvFQqFAVRjAdBFKMSD6VViy2xTf3TNCZNNrvjIZPZndk/Rru7gszby+/Hm/f7znvz9s17TOBTW4U6LYF5ex1vVJwSdul3yoONuJNdw4XOeKSXuNCsx+thhXi16oRFQUee3E1GotW1DtvsyHp21HCX7DItf8WoUMGbHo33415R9lYaF5o33xHfcsqJ/bBXFRxZU9WkM4Fsds4WB+2xKYnrpgw5YI984cpP2qAUvWCgV97BgOe6g2uVBbluBLNq0meq0S60xTOG15XrVeVXd3bFU673U8RY7sWzK9SC28tUyXAZLsNluAyX4WJpfJsXlRL7ssVoFehPtL0VSyot7dbkT6vtcQ/ZF7/4Ydn33jElNOg12+oAq876yFFzYIcXUz1KYNmzvkgen24edjcZLObsFhgx3aCp+th28FQTu7L7caPTrZuHZqPlqJfco1LnWc2D+xwyjrCJZZDuyVp3YoumLLrGdsMY8bCZSFP1uTmj7jAI7rXT4ZRdED33c+lj08HcFe1/tFVO0fPR/phxXwmFLntAYMBjse2H+jypKhT62e02GzJkSEmQDObf9Zl5A9Hqcl0CVYQWHHWb/eBWY3Eox0xaBjkHvLfRYI553ZJRd0X7b600XPONFUWU9Me4Te6O9RNpg9a4/sQgP+3dJteUojIRJv46bWQjTXvFl552Ih6Aa9m7I7L/w8U4By+a9LsAQfo/1w53yTELAr/52pRfErqrlfTb6YloP+NCHe6gM//cuwv2tTDrs99eg25xFVjwtvqpp818/28moJxtiVAf8v5GTRtx63eZbzKlNV593htetqpWQQrtZvzGA077QCgwaymlKZsyG+dg2ZwZn/guKm1nHRcInIvfIE0lXVXyioqK+prcZV+kW9OnQ9zKrm1VaVaIa/61lmqTMtAg/+/mIcNluAyX4TJchvvPcZ3/ircmdR12rXnIGXddB74BNcImaqcGTroZVMxGk0unpc9E5NZKzbu8G7oCS0jPU6WXwFzBDypdy8m0lP8CSGmI599NlnsAAAAldEVYdGRhdGU6Y3JlYXRlADIwMTktMDEtMDlUMDM6MjA6NDUrMDg6MDAo6080AAAAJXRFWHRkYXRlOm1vZGlmeQAyMDE5LTAxLTA5VDAzOjIwOjQ1KzA4OjAwWbb3iAAAAEN0RVh0c29mdHdhcmUAL3Vzci9sb2NhbC9pbWFnZW1hZ2ljay9zaGFyZS9kb2MvSW1hZ2VNYWdpY2stNy8vaW5kZXguaHRtbL21eQoAAABjdEVYdHN2Zzpjb21tZW50ACBHZW5lcmF0b3I6IEFkb2JlIElsbHVzdHJhdG9yIDE2LjAuMCwgU1ZHIEV4cG9ydCBQbHVnLUluIC4gU1ZHIFZlcnNpb246IDYuMDAgQnVpbGQgMCkgIHILdZYAAAAYdEVYdFRodW1iOjpEb2N1bWVudDo6UGFnZXMAMaf/uy8AAAAYdEVYdFRodW1iOjpJbWFnZTo6SGVpZ2h0ADM3OD2PYasAAAAXdEVYdFRodW1iOjpJbWFnZTo6V2lkdGgAMjkxSOPO6wAAABl0RVh0VGh1bWI6Ok1pbWV0eXBlAGltYWdlL3BuZz+yVk4AAAAXdEVYdFRodW1iOjpNVGltZQAxNTQ2OTc1MjQ1aWvgaQAAABF0RVh0VGh1bWI6OlNpemUAMzIyMEJNiYNFAAAAYnRFWHRUaHVtYjo6VVJJAGZpbGU6Ly8vaG9tZS93d3dyb290L25ld3NpdGUvd3d3LmVhc3lpY29uLm5ldC9jZG4taW1nLmVhc3lpY29uLmNuL2ZpbGVzLzExNS8xMTU2ODQzLnBuZ+LcApkAAAAASUVORK5CYII=;" parent="1" vertex="1">
          <mxGeometry x="314.5" y="517" width="26" height="34" as="geometry"/>
        </mxCell>
        <mxCell id="rLT0J8aDYwus9qKLVi9h-26" value="" style="shape=image;verticalLabelPosition=bottom;labelBackgroundColor=#ffffff;verticalAlign=top;aspect=fixed;imageAspect=0;image=data:image/png,iVBORw0KGgoAAAANSUhEUgAAAGAAAABgCAQAAABIkb+zAAAABGdBTUEAALGPC/xhBQAAACBjSFJNAAB6JgAAgIQAAPoAAACA6AAAdTAAAOpgAAA6mAAAF3CculE8AAAAAmJLR0QA/4ePzL8AAAAHdElNRQfjAQkDJQGB3vueAAAGjElEQVR42u3cfWxV5R0H8E9Lawu1oOVNxJdFWHwJ8gcvyRgviTN1m2MJG3SbDKIGfPlDk6GBuZgt29iL0wUyZ4a4mYhlfzCCHW4rwzlwW4xkQwzblE3rAK2QIq2hxQKW9uwPDpfbctt7bu89PWXr9/5z7nOec57v9zy/8/ye83t+59AfLHNYEPOvUU2/uEVAjabY6QcCu1waB/25DgwI/cBBV2enU5Ij/ameSJ22U7POGC5RidGKQVBoAdM9aWrqX5Ovei9sqnDoNEmtsdHVRsdYPzQj7X+HBo0Fpn8Gp6NXjX79Kj2iultJUcGv/hkMy6VyVAqjrXFHuP0nH8RCvF+IJqDY1y0P677k+9qTpn0O0e6BO9wbbv3dfU7FZDr9QnYqxe72qErwqmVez81G40b2HljkUaPAEQ/ZnTThnsjWA1N9O6Tf5iEvJk03VwEzPe160GyFDUmTzYS+TOh6T5oGujzi6aSpZkbvPVBpdUifZ6xPmmiuAqqssQB0ecoqbUkT7Q2ZTehiP7A83N5spdakafaOzD1wv7vCrb2+M5jpZxJQ5C4PhuV/s9y+pCn2jfNNaInHwpH/Dfd4LWmC2dCzBz6d8rutvjn46fcUMMOPXQbe9zV1vRzTlTTpdKSb0MW+ZwrosN6LruyF/sTBNJ1LF1DlunCr2J2WKsp4RKDU6KRpZxYgRXmYiUkTi4p8Hk2OOJ40/cyeuEtz1rhAkaN+pCVp+pkFNFvq7aw3aqvDSZPvTcBpb2tImlhUZL4HBtEw2T8BFxCGBCSNIQFJY0hA0hgSkDSGBCSNIQFJY0hA0hiMAs7GnYLCpxr0hhEuLdhD0Lm4U4krnIuUdGpxIg4BVWosdI3SAgk4F3cab7PTKQEdGtTZ3Fcg4SoHBQKHXBu5uU/aqXOA0m8CnXZ0y9bIW0CVnQNG/uzvBVXpFPIzoRrzwq1WH+Z1puyoMBLcrCZ9xS4fASMsDEexZz2pRdBLNDV/BIpUecAiFFuoNnO2Rq4mNFGDQOCYWTER747ZjgkE3nL5ucJ8/MCwcOT5cIBCjEdDM70o3W4K48giOJy4WimMgLhsP0Irg3EqkRMueAGFmQtlRrkZppuARq/a41Rqzw1ucqV2//SKw0rNd4l6TT2OH2m+Ir+O7mFyHUb7rj/bc9pS/rPNL0wCRZY4INAl0GmvW/ETgYfPO8NSXeqUp/5f61CY0XtV/D1wt9XGeM5L2gRGmmupj9yny0JP2O8x7ypzo9vNUm+jxW6zoVsW6ki3K1LvZPRGC9cDczRp96DhqZIyNaah3DaBL6Vd1ctRaosglV5yBp9xwgEfTyvJ2ANx3MTlVhjncWvT5u+nbLYHo3zMMW+myv/tEDrswiIj0s5Srdzvs68UxSFghmr7/Czjiv4JLUaZfV75VvvNSZuSjDHXMRuzu8g4BMxU6c/eybivVR1We9y8MJXzDN60VUWasJvMsMNfszcWh4CJONjr3p/7qXL322are01IlW9x3GfDVx5K1WCTj5IRUKKv/PNjVlpotd0+YZ3fuDks3227mWF6+UzVdkVL8oxDwFGM72P/Kdt8y+d8wU7TfSM0pZNqsUQ5vuwSz2tOSsA+gWkqstQ6brtl3jDNNWHJX+wxz42ucKv2KPYfl4BX/MMsn49Q8x1vKU050xY7jHKbL5psh13JCThkvTLf7fGc9ilTUKE6LVlnguscSktZ+J02883XZWN/UvwL54krbRHY7x5XG6XKFA9rtkmpxdrVm6NCmck2CKxJO264eoGTXjMuQ3sDOBdqs1KjxdZ5z/tKTTBSvbU6vG6rBWb5l5Mmu8xW69KOO+FZtyjzS0eiNhXXZO4/Vqi1wDSVTnrZH23Xir3u9IwFblDmZb/1fI+s1O3WqPCr/jVa2On0GVxkuLIM5eVG5BxNjdGEep+x9OZLc5gk993K//VDfacOUNE9WhkbxoTOsSP9Bch8TOgDDSZhpAesdTRm+mOtDKOjDemBtHwEtKtTrRiL3DJgwd0udZkWOuhfeH3HgIfXt3c32Pxu4har/GEAc6m7vGBV90hsvsPobl+JYYlpvGE4rSn7ElP+fqDFerUFXeSbbJNxaFKjMf5FPmgv6Ouhw8Nh8rRG72arPBhjo2c5FUVxkINRQL/UXrD4HxUQx8cWoiOn1ksylk2SXN90mZTL2Jip6mi1uXwYoeAoyeUdnXQBZwet4uifpYgZOQ6jg+SdjBQO5/4WZ0341DkYfhE/z/NfALVCawC8ZWIAAAAldEVYdGRhdGU6Y3JlYXRlADIwMTktMDEtMDlUMDM6Mzc6MDErMDg6MDB7vKFkAAAAJXRFWHRkYXRlOm1vZGlmeQAyMDE5LTAxLTA5VDAzOjM3OjAxKzA4OjAwCuEZ2AAAAEN0RVh0c29mdHdhcmUAL3Vzci9sb2NhbC9pbWFnZW1hZ2ljay9zaGFyZS9kb2MvSW1hZ2VNYWdpY2stNy8vaW5kZXguaHRtbL21eQoAAAAYdEVYdFRodW1iOjpEb2N1bWVudDo6UGFnZXMAMaf/uy8AAAAYdEVYdFRodW1iOjpJbWFnZTo6SGVpZ2h0ADUxMo+NU4EAAAAXdEVYdFRodW1iOjpJbWFnZTo6V2lkdGgANTEyHHwD3AAAABl0RVh0VGh1bWI6Ok1pbWV0eXBlAGltYWdlL3BuZz+yVk4AAAAXdEVYdFRodW1iOjpNVGltZQAxNTQ2OTc2MjIxKuksGAAAABJ0RVh0VGh1bWI6OlNpemUAMTYwMDRCJw/inQAAAGJ0RVh0VGh1bWI6OlVSSQBmaWxlOi8vL2hvbWUvd3d3cm9vdC9uZXdzaXRlL3d3dy5lYXN5aWNvbi5uZXQvY2RuLWltZy5lYXN5aWNvbi5jbi9maWxlcy8xMTcvMTE3NzY3Mi5wbmeLF7+JAAAAAElFTkSuQmCC;" parent="1" vertex="1">
          <mxGeometry x="581.75" y="516.5" width="31" height="31" as="geometry"/>
        </mxCell>
        <mxCell id="rLT0J8aDYwus9qKLVi9h-27" value="" style="shape=image;verticalLabelPosition=bottom;labelBackgroundColor=#ffffff;verticalAlign=top;aspect=fixed;imageAspect=0;image=data:image/png,iVBORw0KGgoAAAANSUhEUgAAAEgAAABICAQAAAD/5HvMAAAABGdBTUEAALGPC/xhBQAAACBjSFJNAAB6JgAAgIQAAPoAAACA6AAAdTAAAOpgAAA6mAAAF3CculE8AAAAAmJLR0QA/4ePzL8AAAAHdElNRQfjAQkDHQt2lK57AAAFk0lEQVRo3u2aa2xURRTHf8tul12g0N0CLcK2ZdPS0iqPFgEVRWJjiG9jjFEJL7UEiqEGEgNEjYliwKAxPoJQEytR1MRojCKkUatCAh8gKVFTjVHkJZICUlq63e7u9UOX2Zm7d1+3d8sa+U+yuWfmzJ3/vfecOWdmx4YVsONmEqVMpZ5qXudV87dyDJrGdfiYQRk+xuHCDrgH82yZExpOIeOowUctPkopwj4YAmYJufFSxLX4mM1UPHgZZiWNdAmNxMsE5lCFnwo8eLBlh0ZyQvl48DGXcirw46Eg2ySMCRUwmWKm46eSUjyMHkoaMqHZjKeWMqqpYBROy+7szNjKNPrAQSsuC2nE6LxEHeEMetgIs59tjix9mmHUMT/jXvVMy5LzQkZvJ4aF2SNkDu5cI5St+fYqoTRgMuQOJv1IhjAf005EyBH83I2dfXTEvYQIM6mLiZrlZYMhxYX0obHcsG1DrPfQ2VCaI/2PjFoPLb22eKPuoVNJwwoZGadzlm6ho+El32AQt+JnoWimPYoxcWOG5RHiCf3GEs6J4SI0sVan0UUDB6PDaYymmblxd3GymdlSPNPwkgesY5kB+SL1daklyEpFeRp/6TQ+UtKVJwgYeJmLNnM+Gm9DeTRRLsk/8ZnS3slbBIXkp4nhGMFctDc06ik0SPVhdnBGav2EH8S1naeoNjdwJoTgMW6WpCN8Ka5Ps0Oaf29hUcI7Wxo6vKzmIIGoFKKZ+/AAsJPDQquApxOuSCIcAsWoJ1IFdHDSYClVhh9J1ahc4lGpg5NdaGj8TqVU20goSehw4pKKgxVoaKzAodS7cJHHs6lDh5smioUU5F26gO38IuoqaEz6WYIEpBKiH4B+Qkp9gAD9hGLdEs/Us1gqSW20cZQPhWynialpGUWGSBY6Gpkurvv4nFb+FPJ8HskGneT50CSeZJWYc/ZyWMScAtanXGA7lIftj47kwEaeTjMkf/rkCdpDfCpc/gQnRP0SFqSg4+Q5ZipeVgLAKu6K8zKNClVMVvYavIka/kiZoFkYOlTUK+4PYKOBMlLDwtChQu/aGhfNDWUNod20xNW9zZE07pyVVUcnL3NBaEaiUew4m2lOsbUZYT+XdEY9HWjnmKFRV8li4vK81Hke14hrFx+kXHU4cErFRgMaGg3YlHonTobxTHpGvY83xcxjZzE3iZYAm6RJ0hghglLRouEhhKbUBwkSkR0gMaELvCDlQbXcz1JGCPlHmtOxiMyRmND7fC2uHaxkLLdym9S+ne+HktARtkgxeC73AiNYzRhRd4at9CS5sz79GAgYeYbph+Raxl7WxxbJRtysxQvAAu5hp6jfwy4eT0hH3WPUmAhAEw8aJmgSjPzkPVySxh10i5YDjJdaqg2DiOWh4xhbRfoKY1grLeSu5wFJ82feSBgiLAsdIV6hXZLvZJ6iv1yaj+AdvjU3cPqEdisOPZaVul3sWSyWpH94kU7DO1sUOs7RQgGFUSnMIm6M67OUbzgVfRSNo7TycJyOxq94lc9WiA84zlkDFkVMuHxp0+1KBDmt1BQyymCwvwlImw354gEGsJFN2MhXMsMQS3gNWEOLwWbDOjYmekPOaGaXDDZpPZIIGl26mu7o7wUDbWk+y40NK2lmyg1CEnKOULa2hfNYQ42yLTyQgi3jBsNtYQnZ2RZ28V12Vh3mETLXLeds6Cqh/xqh3lz7e2qPgy7ccRskg4d+jzE1xN/ktzOOOkqpodzCgwRB1ps9SHAQ+ALwUEYxM/BTSUmC/y8yo2QKsdBxnvPAVwwcRimJHkaZfOUOo8RwkYscYx8Dx3UmUk0Jc5hCwZU6rhNDDz0c5wADB5qKqbnSB5pi6OUkJzlEzhz5iqGPU5yincuH4qYxSXcobogJxRCmmw460B8b7B0MoX8BwKGR5zxyQZIAAAAldEVYdGRhdGU6Y3JlYXRlADIwMTktMDEtMDlUMDM6Mjk6MTErMDg6MDBoUU6JAAAAJXRFWHRkYXRlOm1vZGlmeQAyMDE5LTAxLTA5VDAzOjI5OjExKzA4OjAwGQz2NQAAAEN0RVh0c29mdHdhcmUAL3Vzci9sb2NhbC9pbWFnZW1hZ2ljay9zaGFyZS9kb2MvSW1hZ2VNYWdpY2stNy8vaW5kZXguaHRtbL21eQoAAAAYdEVYdFRodW1iOjpEb2N1bWVudDo6UGFnZXMAMaf/uy8AAAAYdEVYdFRodW1iOjpJbWFnZTo6SGVpZ2h0ADUxMo+NU4EAAAAXdEVYdFRodW1iOjpJbWFnZTo6V2lkdGgANTEyHHwD3AAAABl0RVh0VGh1bWI6Ok1pbWV0eXBlAGltYWdlL3BuZz+yVk4AAAAXdEVYdFRodW1iOjpNVGltZQAxNTQ2OTc1NzUxcdbX2gAAABF0RVh0VGh1bWI6OlNpemUANjE5MkKpvy64AAAAYnRFWHRUaHVtYjo6VVJJAGZpbGU6Ly8vaG9tZS93d3dyb290L25ld3NpdGUvd3d3LmVhc3lpY29uLm5ldC9jZG4taW1nLmVhc3lpY29uLmNuL2ZpbGVzLzExNi8xMTY5NDEwLnBuZ292wSkAAAAASUVORK5CYII=;" parent="1" vertex="1">
          <mxGeometry x="514.75" y="516.5" width="32" height="32" as="geometry"/>
        </mxCell>
        <mxCell id="rLT0J8aDYwus9qKLVi9h-29" value="知识提取" style="rounded=0;whiteSpace=wrap;html=1;fillColor=#dae8fc;strokeColor=#6c8ebf;fontStyle=1" parent="1" vertex="1">
          <mxGeometry x="42" y="395.5" width="70" height="54.5" as="geometry"/>
        </mxCell>
        <mxCell id="rLT0J8aDYwus9qKLVi9h-30" value="" style="rounded=0;whiteSpace=wrap;html=1;fontSize=9;" parent="1" vertex="1">
          <mxGeometry x="119" y="398.25" width="241.5" height="44.5" as="geometry"/>
        </mxCell>
        <mxCell id="rLT0J8aDYwus9qKLVi9h-31" value="实体提取" style="rounded=1;whiteSpace=wrap;html=1;fillColor=#fff2cc;strokeColor=#d6b656;fontSize=5;" parent="1" vertex="1">
          <mxGeometry x="126" y="405.5" width="69" height="30" as="geometry"/>
        </mxCell>
        <mxCell id="rLT0J8aDYwus9qKLVi9h-32" value="关系提取" style="rounded=1;whiteSpace=wrap;html=1;fillColor=#fff2cc;strokeColor=#d6b656;fontSize=5;" parent="1" vertex="1">
          <mxGeometry x="205.5" y="405.5" width="69" height="30" as="geometry"/>
        </mxCell>
        <mxCell id="rLT0J8aDYwus9qKLVi9h-34" value="属性抽取" style="rounded=1;whiteSpace=wrap;html=1;fillColor=#fff2cc;strokeColor=#d6b656;fontSize=5;" parent="1" vertex="1">
          <mxGeometry x="281.5" y="405.5" width="69" height="30" as="geometry"/>
        </mxCell>
        <mxCell id="rLT0J8aDYwus9qKLVi9h-35" value="知识融合" style="rounded=0;whiteSpace=wrap;html=1;fillColor=#dae8fc;strokeColor=#6c8ebf;fontStyle=1" parent="1" vertex="1">
          <mxGeometry x="414" y="374.25" width="30" height="68.5" as="geometry"/>
        </mxCell>
        <mxCell id="rLT0J8aDYwus9qKLVi9h-36" value="" style="rounded=0;whiteSpace=wrap;html=1;fontSize=9;" parent="1" vertex="1">
          <mxGeometry x="450" y="371" width="190" height="75" as="geometry"/>
        </mxCell>
        <mxCell id="rLT0J8aDYwus9qKLVi9h-37" value="属性校正" style="rounded=1;whiteSpace=wrap;html=1;fillColor=#fff2cc;strokeColor=#d6b656;fontSize=5;" parent="1" vertex="1">
          <mxGeometry x="453.25" y="416" width="51" height="25.5" as="geometry"/>
        </mxCell>
        <mxCell id="rLT0J8aDYwus9qKLVi9h-38" value="质量评估" style="rounded=1;whiteSpace=wrap;html=1;fillColor=#fff2cc;strokeColor=#d6b656;fontSize=5;" parent="1" vertex="1">
          <mxGeometry x="518.5" y="374.25" width="51" height="25.5" as="geometry"/>
        </mxCell>
        <mxCell id="YerrViW4XqpFd-7M9TbX-15" style="edgeStyle=orthogonalEdgeStyle;rounded=0;orthogonalLoop=1;jettySize=auto;html=1;exitX=0.5;exitY=0;exitDx=0;exitDy=0;entryX=0.5;entryY=1;entryDx=0;entryDy=0;" parent="1" source="rLT0J8aDYwus9qKLVi9h-39" target="rLT0J8aDYwus9qKLVi9h-38" edge="1">
          <mxGeometry relative="1" as="geometry"/>
        </mxCell>
        <mxCell id="YerrViW4XqpFd-7M9TbX-16" style="edgeStyle=orthogonalEdgeStyle;rounded=0;orthogonalLoop=1;jettySize=auto;html=1;exitX=0;exitY=0.5;exitDx=0;exitDy=0;entryX=1;entryY=0.5;entryDx=0;entryDy=0;" parent="1" source="rLT0J8aDYwus9qKLVi9h-39" target="rLT0J8aDYwus9qKLVi9h-37" edge="1">
          <mxGeometry relative="1" as="geometry"/>
        </mxCell>
        <mxCell id="YerrViW4XqpFd-7M9TbX-17" style="edgeStyle=orthogonalEdgeStyle;rounded=0;orthogonalLoop=1;jettySize=auto;html=1;exitX=1;exitY=0.5;exitDx=0;exitDy=0;entryX=0;entryY=0.5;entryDx=0;entryDy=0;" parent="1" source="rLT0J8aDYwus9qKLVi9h-39" target="rLT0J8aDYwus9qKLVi9h-40" edge="1">
          <mxGeometry relative="1" as="geometry"/>
        </mxCell>
        <mxCell id="rLT0J8aDYwus9qKLVi9h-39" value="实体对齐" style="rounded=1;whiteSpace=wrap;html=1;fillColor=#fff2cc;strokeColor=#d6b656;fontSize=5;" parent="1" vertex="1">
          <mxGeometry x="518.5" y="416" width="51" height="25.5" as="geometry"/>
        </mxCell>
        <mxCell id="YerrViW4XqpFd-7M9TbX-18" style="edgeStyle=orthogonalEdgeStyle;rounded=0;orthogonalLoop=1;jettySize=auto;html=1;exitX=0.5;exitY=0;exitDx=0;exitDy=0;entryX=0.5;entryY=1;entryDx=0;entryDy=0;" parent="1" source="rLT0J8aDYwus9qKLVi9h-40" target="YerrViW4XqpFd-7M9TbX-13" edge="1">
          <mxGeometry relative="1" as="geometry"/>
        </mxCell>
        <mxCell id="rLT0J8aDYwus9qKLVi9h-40" value="本体构建" style="rounded=1;whiteSpace=wrap;html=1;fillColor=#fff2cc;strokeColor=#d6b656;fontSize=5;" parent="1" vertex="1">
          <mxGeometry x="585.5" y="416" width="51" height="25.5" as="geometry"/>
        </mxCell>
        <mxCell id="rLT0J8aDYwus9qKLVi9h-44" value="MangoDB" style="rounded=1;whiteSpace=wrap;html=1;fillColor=#fff2cc;strokeColor=#d6b656;fontSize=5;" parent="1" vertex="1">
          <mxGeometry x="555.25" y="245.25" width="69" height="30" as="geometry"/>
        </mxCell>
        <mxCell id="rLT0J8aDYwus9qKLVi9h-50" value="Node4j" style="rounded=1;whiteSpace=wrap;html=1;fillColor=#fff2cc;strokeColor=#d6b656;fontSize=5;" parent="1" vertex="1">
          <mxGeometry x="442.75" y="245.25" width="69" height="30" as="geometry"/>
        </mxCell>
        <mxCell id="rLT0J8aDYwus9qKLVi9h-51" value="概念本体信息&lt;br&gt;展示" style="rounded=1;whiteSpace=wrap;html=1;fillColor=#d5e8d4;strokeColor=#82b366;" parent="1" vertex="1">
          <mxGeometry x="268" y="40" width="100" height="30" as="geometry"/>
        </mxCell>
        <mxCell id="rLT0J8aDYwus9qKLVi9h-52" value="关联概念&lt;br&gt;网络图展示" style="rounded=1;whiteSpace=wrap;html=1;fillColor=#d5e8d4;strokeColor=#82b366;" parent="1" vertex="1">
          <mxGeometry x="406" y="40" width="100" height="30" as="geometry"/>
        </mxCell>
        <mxCell id="rLT0J8aDYwus9qKLVi9h-53" value="分享心得展示" style="rounded=1;whiteSpace=wrap;html=1;fillColor=#d5e8d4;strokeColor=#82b366;" parent="1" vertex="1">
          <mxGeometry x="542" y="40" width="98" height="30" as="geometry"/>
        </mxCell>
        <mxCell id="rLT0J8aDYwus9qKLVi9h-57" value="手工填写" style="shape=image;verticalLabelPosition=bottom;labelBackgroundColor=#ffffff;verticalAlign=top;aspect=fixed;imageAspect=0;image=data:image/png,iVBORw0KGgoAAAANSUhEUgAAAIUAAACACAQAAACPHmIEAAAABGdBTUEAALGPC/xhBQAAACBjSFJNAAB6JgAAgIQAAPoAAACA6AAAdTAAAOpgAAA6mAAAF3CculE8AAAAAmJLR0QAAKqNIzIAAAAJcEhZcwAAAlgAAAJYAJvGvrMAAAAHdElNRQfjAQkEFiFLlKjjAAAYcklEQVR42t2deXxV1bXHv/dmTkggYU4gzFMERaCAdQDEguD01IKdtba2Ul+dtc/W1+l9tPi0tbW1tdT2Y62tYKWAIoMiQhGZkTCGmTCZhEDIPOe8P3Luumufc+7NzU0gn8fv/nPu2efus/fae6/9W2uvva+PUMjhBjpzqaGJk7zLudb8ZBAfY12SnzpeINmryv4QoriXqzu6AS8Q4vgmn49cFPFc0dElvoDIYGjkosikZ0eX94JiKPHum7Gej45UcquiuqNL3i7wkUqcfT2JzpyJTBTZpNlXNTzHEnwdXY92QAI/4hapX4ZbFF6I50XRt0WM7eg6tBselVpVcKs72UtXdGaSXFdyoqNr0G7Ix7KvUpgcmSgy6CfXO6jo6Bq0G45xTK6HuBWnlyiGkSDX/6aqo2vQbjjMPrnuSWYkophCin1lcbyjy9+OOE+RXA/jspZFEc9guT7K0Y4uf7tiG7X2VRrZLYuit6JXeRzp6NK3KzZSJtdDhGWEFMVlil4Vcr6jS9+uOKE03ySn3e0WRbY8UseOji57O6Nc1agfGWaik23GM0yuS1nfQtbJxAAW1TQ6Unwk4wcsqmhypPlJxgc0USUzfbA8SQA0eND9OBIBqKfGlZZgT4611IUpbxX/5jb5xTAOhBNFmqJXVZwMk203HmSM3asKmccGldaXx2SYHeL35Km0ETxkqyyLHbzMaZU2kfvpiQU08TGvqOEZw3S+ThcsoIGV/FmJI5G7uI0kLKCGhSygIWSpj2PZZkQnpvBumPoxlGKhpwu9XRwAxDPXcIjsYoCkdeYNI+090iUtk/dVShN/VBxmONtUWj0/U8P3Go6rtEruV2W5iyqVdo6ZYeo3hsPy5Dte9mkQt1Aujz4W5rlso2gW1dynqlRmpBUqmjuFOiPtoJq6v0qjkbZNROjjxw5f1IdSjQTmO9L+Eabc6SyT5zYpVo1bbU6mk31lkc+lhxIK5XoYOaFFEccQuc5XjN2NAofsD7FKrj/jHSNtK7lyvZ81KsVitTL3thkzVgNLKfV8Dqr4p6jHWhYZKraEN8IKY4f8srNJs0y1qb1X+zgUJsM6XqDOUJtBXlrKUxQbarNE0k7zkENt1kpaHg841GZw7tnA/YbafE2VZQlzDLX5flhRrKeMbvb1MOKo935sJudlJL1Gy0gmlVQ6EeNK8ZFip7mZi59OpJJKiodLKJZUUkm1p1QTcXZaokdagp0WVhEC0It8pY26BRPMXtFX0attEYgitNVqURkyrSmM4d9Aeci0+lAtCNSq3hUeZWyTgZFNOsWBBN1mcYpyl7Exwqz/v6GKT+Q6URFKQxSXqvfKiaA3q5P2ZukBkk5/uc4N2VFjbVLU4NEl421rr96D/ibY76r14IKJNoGvdRF4SLIJfLWLpPtIsgm8m6THkIAPaPQg6cfIl5oOCSpOLQrTe+U91idwB9n4gRLWski9KIZp3EhPfFgUsoxVqloJ3MINpANNHOdfbFI5pnI7k+gENHKQBexVad2ZxQQSgXp2Md9gOv2YzRXEATVsY75yy8BIZjEUP1DORt5SpjnAQfJEFD3J9OJPv1SMbZanIEazXT1TxbdV2nQKVFo+01Ta1xWHtdjOaCXAh6lRaSvpK2nJPEe9wSKDZnU3/mYwzN+puWMAq1VKA0+76vFXST3PDHc141giDxwJ4fJ/xEFxF5JKoHe94Eh7WfRQGv90pP1ccsw27A6LRuYowZ8x0s6qYk9yEPj9ykE3myYjbT09HPV4kFpJ/U7gZlBtau/V/hDeqwTH93hhFH5XWoLkHeNiAnHqyjT5/LIYBYliBLif9Tv4Sqx6f4KDr8S57O8NShMODZQmmGGOmlgKFT/U2B6chYFGPhEzuo4NBluoYaOox/OsMtRoMavl+iTvGP6MvSyX6/0OAr9ZOQIOs8VI26R8D3scJsNGQ48AnFCacFJA+EGeeL3ohzreCMEqjnOULOKpoJJTvMQflNo8TAHZ+KigkiPM5XVFiA5QTjYNVFDFbp7hXal+I/uwyKKGCirZzE/VrF/DHpLpRSUVlLOKnym/Ryl5pJNOBZWUsJBn+Uw15D56kUIFlRTxF54XWyYAi2uk4eP5e3PoSaArxTGXR6XVZjpkrtHF7u6NlDimRT/pMpmWOHxXsaTbYq919bh4uti9s9pV6CRRlRUujppiayqLMtd0mmYPpibOe/q1Hud5+6qcr7BUJ3VlqyiS4/TmUsddSq2+0HwroCv04uA2xzx8KeKwsqQHNfflgCiGKg38SRhT6lLBYaVmezWPgoAoJgtDuDS9V05ob9ZwRgRFob1Xxy+xxcFQ2CEzXJdmo71ZFL3pJY/khfVeXTr4WGnEYcQFRJHDcLldFIJeXWo4qSbgyaQFRNFa79WlgDJV02zSm0WhvVflxirXpQzTmzW02V+Rqnw5VRF5r+JUDF8A9ZxwccULDx+96eEwv5ooUjQ8FPRMmcoklsVieq92hHGzBpDOE0wn1fAq+Wggj7lsvqiCiOUb3Et3fKosPpoo4I8scC1bO3GUfCGWdrTFTLWw92QEBfiB4VDRn/fdEU4XFDfwWYiSHOPaFn+dzgp5/hMGxKLpFRHEXqUyI0TgK0xiCKcBP9kMcq1JlJLXuu0H+OjnkU8ZeZwFYJoiASb6cQ3rWsi9RIWxDmdULHFqAfdYBJxinHaYO1BPI+DjNp4ly+WWtdjA91vBWnzcyvMe0eYWn/AwByBsLMUXmGcLLDS2MtsWdDr9oT+fSDdZoZb/Q+GxEF3SwmIrg4D+7Av5xK89VtJCoR+bQ+bzKn5gFqUhnyjl8hbfMF6FULwSyyhFr7pzj8cPqtjITruN07hG7leyiipSuFYEmM8ZYKqi8U5MIo5GIJsbSPOMHW/iGKuoBLKUO9idTw672U+5zGQH2EED/WWvRxKT2WlfJzCFIR7DOk25FqfDg2FaOfDZJwIYTpHczaUzMIr9cmcePlKUMnJ//kEskMW/wjxTyQ9IAEZwMOQzjTwO9OSQ3Pk7ycA0quXOEruifh5Xa8EhP34zxiAEhvMNe0xNVA74JZQDI8iSO6VYXBcmQL6JZTQAd3B7mLcl8wRDgWOKBDnh53Z6Ua7cCWPIAHarNZYhNnUczDci2QXnj9Bj1azHY5gh+ryBLTQBvSX2t5o8/Nwkq9MWC7mH+zgouVRzGKDFgqWRAlQb7tq3uZvvKu/mOCZQpxaQsugEnFbBy0MYD0A3l/M/hCg2hAniCmINVUA/RdG3s8sudgCl7GYo/yHfT/Fz/soKZfZssBcVDrRA5PZRYL816FUo4A3m8Tv5Hs/dxPCpqkkXAFYK541lHAnAIfZEUMOqWP5GH75InGvqC8BHA6t4nSZgYrOTA4BdHAeS6CN3qjnNLDXTryEPuIaBcmev7YZ/l+f4fgh24uM0P7BJ8S6KZTKdQl/y+Yj9MpmP4XKOEoi4i6UfG4FNFEuvm04PTlDEXDoxKIwYfBTxp1hO8QQvkRJGFFWcpBKIZbS4/SpZQxOQykh5so547pDJspr51AE5srBTTa79lmqe503SDMIceFsjRRTa90vJlVWvQfQhn/2sEFH0Y4byzMczmgXAWdZKtXuTwwngA3bQM2Rz+7AojsBqUchkryK2zex9sFrMW8a3qJRvH9ITyOBduXPEeydfWNwti34NdsTgFPXGPczitHx7x+4fX1ULhX+M/FVendTHMPqrdbMSdlIJDFJhXFvtURwMB7I4wFRZymtkJYVAH66T35yOImYjyBximMlL1LOJT/mCnTqYYewXxZ9KElXAHo7KoLyMrpyluX8EHdk17FFaKIxw5pBLKeXyOcHvyQLmKml/y376JgkfbWCuMo4O2oW5XS3U/iSK7Xi9WCW/32n3xK/SIPc+4C3FdZv1VpK6d4bpwLV8QLGq0RlWRLKl+DpOeRCQp+jCh/KtgKvsp5+UYjWxWa1uv0gM4GOeIkUzWn65Cz5ekhzKuAuA/mySe6fJk+t8qd4PlbCeoAfLPWr0vj3jCNzxc6M8De3ruUqN9E0yPY1TavIKobEVLKURSFV2wJGwcaChYLFTJuNUmw4eU7GfvckSMpAlJVymlrmvYzxXeuQ81smonKKID2E/pDBOTZu7bG9xPF1V+wWxiq0AXKZetyHK9ZW1SrdfaVs781WQfPC9MWILabGPZ6BnCKOrpk5RpErXB0v5gTqrsVXMMrkbjK9MkhdWSxzu51QMzbEoN+SdUi18ld1j96p+kaJUf4Zdn3KWyL1OhhOnkeAGS4e2cIqis4rg36XaI11F750QcpupekUQB3nPlvtwabMiI6C5NahWERed7SFQy3zP7eED7RnMYptYJ8lMlVI0sVf6k48hpsPAKYo+aspZq+hxrDJnl8tiymBPvbLInqh6qYm0WAzm1sJiswS4xXGjXa0tRmhbAKOEZ+5hu9yNE1H42a9IeIa5T8gpigkqyOeY8hJliATr2CBFy3SECAEUstzuhH0U5c5tgzf8mAqHGmU7HwtY6RHY2FfKc8q2kKA5/DqAc8qJN1D57zxEcaWMvLMGFQ12pZ3KGvSyMFdKnP9E0R4W74cJSm5ZFEF6nSlOhbc91HCMmiBXS9/VcVv1SqHqpnKJIk2N/TwOeW7I3SWZJSqlGEApi+2gpDhmigDL2R+1IKBKBQD0Ey/VMTNWxn5nf7ne4OlS9rFe+qfPnE7NyvZVbpjTFHqIoop1Mq+kuXfwcoi19lVvusvdrVFxiiA+VoFlA+y+1sBSVxyIPo3lLB97iuKAUrgj9Q4Ds7LD1OgppNqDKJ/jI7lO8/CAvS5tMVHNRQH/Q7TIVUvak8UNsIUPXRW9XMpcG2JfyDm1Oe8qvcZniqKXzB9VnhoatikzppNz/y4HVRhijiirGjHOo0Wp2mc0WHrueZa6IriTVIzoXs++WKmiD7tqD7+5CSLIvyrY4Wk8vae6V5bLkb9SHG7piux+JoMmWtSzTIQZp0jgUteqitZ2+2zOq+GjTk2zCZpx+o1sgi+pochDFAXsVt9GOHrFORaLPdBbHbhUzKk2igIOSxPEcL3McoUscjzXXTkSqtjuMeGiBqvBOE1RBCeXnZ47ebYYcfljHN6OT1XXG6pG4fJ2OAPjsBqwQeXexHJHpG6m4bhbYUQfB5Avy6EG49Si6KPMlo2exd+liFKcmiEAGnldNLqPGyWvRja3UVMAFKhGGGB7sgF2OJRjnGEKHPGMKzuqfPCKcWpRTBA3Pp4KJ2iGAXRRTwN8qiavVEapF7dHmJtFrqjIVDVzVbPYEWXaVdWpzHOr9VlvxqlFEWSaJXwGLl1RZOwt7+3Y6b9W0eMcxU+2tFPw4zo1d12pWOUae20lgAHKdLDI9djL1KQap29wyg+KItXBNN1YYpxmMVT5L6CAN9W3q1Rs8IF2Cog9oXwUk5Woz/K68dyVhjmQ6xmtvl56kmKcQVFkq6qd9nCCNrLF0Me9jQGyVll88YpcnfHkfNGgWu1vTjSU42qj4foY5Tpp9OQAPBlnUBRDDabp7lY7HGa2jsWqYb4iOz1VbNc5RY4glp4Rn+Hpp7sxBJvYLJQ/gRlq+O41VKffERixwmMl7pxir8I4g6LQTNMromq3oUoTjeGx2fhFlhLqThlUPkbzW95iPt8LGSsTQAyjeI63WMCTKtREn2t1uXIPNLBYVS3WcaDPJo+Ak0o1NXdzunvj+JX4gotso6aXWgKqdERedGed8mX/yEh7RHnBA7/K4ik5OaKWzcxRo92EnzE8J5ulG1jDbLsLJ/N3eedRJqjfdFIb55p4xsgvQW2as/iDfTcYSlHOzWYBMtggicftVtOiOGHa9gxUa1RHjVWvWLUeVsm1QBK3G3v8LCzqWM8cV3BRDCN53hVVUc6rduM8oyr8gPHLe9TZF4sdud7tIYrZKqdfmI/3p1ASl9qdr4taP1jk2O7WVwV5vGywzmx2SMpqMhnLnxxHewQ+taxXLj9I5AGOhQgEOcR/0YvrVaDLbw0/9iC1M/E1hyjGcFT6WCACcYLapP+2aZReo+JSnpakuzmHhUWhHJYTbL8f2wtA+4yuCl9UFf8bTyiReX0+UCP1alVRr88q7lURPjsNbeXjIXsva4HrqMAEXrDDK3Ml2KqHWuBa3RwREmhP06cZ0NTzqeIOGpnPSkf2jbxIIVOp5FWHkg0a5w1Mkwi4UBhEpijW4foIBQ9MZbxyCw4iSx1LZDGPcmZSypv82/G7Wp7hNFdTwF9kai1WjHMQg7WtEjyop4SpRka+MCudbi9XFxaHadct/Cf/Y/c0y26noM/8VmMfci5zeFatkzs/DTzkenu4NVlnWX+htMWXg7dTVSjZBvMwnFYih5IQRT/F/5JNT95Wi9A1PKKK342F6vkKHiWe61ioAs3Mz8qQobSR4GYV6Pho8HammhqXOMys1uEWo2UDn2reZgoxJPCycf+vjqD5y9mjUkv4EpDGtx2btQOf7R5u5shxmZoongma6mlqrvjAYXy3Bj5+71HkrXyLzoCfOcY2/eWG4mvGdE6oJ/YyDoD+PO8xVEq5sw2iuJqzXr3Cr7rmHhVS1FqkqN7V/PmMueI0m2acpbXLrqaJGL5rTL3v2eKKZYrHUPlRxCVz45vqYLF7dMKraozeGHX2XRRRs6jhX0yWrjeaXUbnnxUij0R+6xhEAaulM/c5hsrPIyhTKLwoudRxh074voqO+VLU2ceoamznO8r06qGOhLCo5YdhYr0zWaqereNxw2h8TmJ7SswqtBJBEn/I7J83KH06J9rcgX7MI5etvGAQ9STmqj0kDbysVjG9kKPiaixOq1jQ5qGygF1s4BHPY6EiQ7Ka9NeZi+A5Kgb+2VZE57uRyDAGGjn4eMBQlx9FoPlvUvrdIo/PGakp5JDdpoPWs5RWe9c8hauPIr3vtGk6dWOGcTrJIbXEEBp+HjaU5BqP2aYtGK+snX+aSd34VJIOtkCAW4fhar+JRUHEE2ASv1TBZfW85BHAED1uUwP2V84X/0WNzbZQFxM9je0ONTzZisHXyyDx1TzWpoFr4muSbxVfN5N8PC2JRZ4RbdEggd8Yk98bTo9RCxitQhEtzoacgFuP4AFGJe4/TrlPEsvaxOKC8HOfQZc+cJ+d3SJu4qRBy9qnkeL5neR5xoy9AfiKJDbyk3Z54VTDEbPX4deIDDGO2eeddtm+mcZapQ5cOU5SYcmvtcPrRpFr2AtfjjKfJIdd8+cWOEkk6KFMgA/dg3agOu3mLVfkRGvRzVCXdfy4DQZ1HyMwuZaHQ/4ZVKQYqJr9JbdzSfss2mKdAiTyjJqsGnmljf9gNlI1k8VJ+feXaKGtUo/DmP2qHXd7RFlFDh/3G+pyXZucQc24zaBpexjTptzuUVbpvV4P/FmSK5jehhdNM9y1R9TO1OgRw+OGU+jDkOsokeBXauh6zpbaOr0r6tcMNXwWRcxupz9lSuY3aq2jnhfDHLjeEoKe3EOeXhPupEIeua+1udvobpyiGN4Yby0y1WKTRVXU6jNROaq2eW+v08zwnqheEq+6noXFmxHscW8NxhorZ8VR+iviWKDo5M3uB7or2nGciVG8wse9xobn1Sq2tr1wq+HjzI1gC74XnlD7mX7q7ls3K62/KCozfTJHVDHzvP8UsY2I5UE1jC0Wtbgq74XL1ImxO5zEwc9PlUp6PIrsRxh+xzK+dgEEAZCs9qNZWLwSRbN1Un+CUOo8/6S7WvQtiIpV/LcqXj0/azNfDY1s4481SiNyBTnxPZXDr82ka5Vvc1kUTpKurFTs8k+tNMZbiyvUccmNPBVFDhPVessac4j8Wknpe1FkPUL5Rrc4YjEuBGarBcn3orBvUpRbqIybILCo2l2dH3JSxUBHjsGqJy2+CH/R9ZGKvOsdxVGplayXIOxUxuIPiGK84vTb1FajyHGDRHI1Rb1LrDUoVtGaA6KySJarrTO3k9EsCj9jVUzE+ijiLJPV/J5/Uc7rtNglUYRd1Gk9kSNf9f6BDG8WRYY6buWc2soYOQao2X17G3cERYqPVbBIThQTarnacJXGnc2iGK7U3Pao2nScyuHoRTrZN1918EmRHeHiwHYVtXMFPfzAnSrKYWkEZ+i5EdzqXHbRTtGrVH8Q1z0qk32nGiJjucZPD7X1LLrZI0NtSjh70UTRwDoCmysSovKJ6FkkjYlwhyJX0UXcDFecYl0bvAitxedVVNfSqHynI9XK7Ek/E2R4RDd7wGAlwPcv4l+JH1bnqEbDLSBfnaCU5VdnGpUYW18iR/BItqY27x1sDYoUt8iIan1EzyL41c7eTVFOg4dkxB24qKc9W2ySbV3njL99jBxb9LGaY+zAoHw5TKe1yLD5fGXIs64uFLrap9rUG0GPrUE8T9tunCX/B5QwFVsclCvNAAAAJXRFWHRkYXRlOmNyZWF0ZQAyMDE5LTAxLTA5VDA0OjIyOjMzKzA4OjAwOHilcgAAACV0RVh0ZGF0ZTptb2RpZnkAMjAxOS0wMS0wOVQwNDoyMjozMyswODowMEklHc4AAABDdEVYdHNvZnR3YXJlAC91c3IvbG9jYWwvaW1hZ2VtYWdpY2svc2hhcmUvZG9jL0ltYWdlTWFnaWNrLTcvL2luZGV4Lmh0bWy9tXkKAAAAY3RFWHRzdmc6Y29tbWVudAAgR2VuZXJhdG9yOiBBZG9iZSBJbGx1c3RyYXRvciAxNy4xLjAsIFNWRyBFeHBvcnQgUGx1Zy1JbiAuIFNWRyBWZXJzaW9uOiA2LjAwIEJ1aWxkIDApICBuO8/3AAAAGHRFWHRUaHVtYjo6RG9jdW1lbnQ6OlBhZ2VzADGn/7svAAAAGHRFWHRUaHVtYjo6SW1hZ2U6OkhlaWdodAAxOTJAXXFVAAAAF3RFWHRUaHVtYjo6SW1hZ2U6OldpZHRoADIwMO4mRTQAAAAZdEVYdFRodW1iOjpNaW1ldHlwZQBpbWFnZS9wbmc/slZOAAAAF3RFWHRUaHVtYjo6TVRpbWUAMTU0Njk3ODk1M2csQyEAAAARdEVYdFRodW1iOjpTaXplADU5MTFCDpV+/AAAAGJ0RVh0VGh1bWI6OlVSSQBmaWxlOi8vL2hvbWUvd3d3cm9vdC9uZXdzaXRlL3d3dy5lYXN5aWNvbi5uZXQvY2RuLWltZy5lYXN5aWNvbi5jbi9maWxlcy8xMTgvMTE4ODMwNC5wbmdqg11+AAAAAElFTkSuQmCC;" parent="1" vertex="1">
          <mxGeometry x="546.75" y="606" width="35" height="34" as="geometry"/>
        </mxCell>
        <mxCell id="rLT0J8aDYwus9qKLVi9h-58" value="" style="strokeWidth=2;html=1;shape=mxgraph.flowchart.database;whiteSpace=wrap;fontSize=2;" parent="1" vertex="1">
          <mxGeometry x="449.5" y="515" width="33" height="30" as="geometry"/>
        </mxCell>
        <mxCell id="rLT0J8aDYwus9qKLVi9h-59" value="DB" style="text;html=1;strokeColor=none;fillColor=none;align=center;verticalAlign=middle;whiteSpace=wrap;rounded=0;fontSize=13;fontStyle=1" parent="1" vertex="1">
          <mxGeometry x="446" y="524" width="40" height="20" as="geometry"/>
        </mxCell>
        <mxCell id="rLT0J8aDYwus9qKLVi9h-62" value="内管数据库&#xa;信息" style="shape=image;verticalLabelPosition=bottom;labelBackgroundColor=#ffffff;verticalAlign=top;aspect=fixed;imageAspect=0;image=data:image/png,iVBORw0KGgoAAAANSUhEUgAAAHIAAACACAQAAAB9jvXkAAAABGdBTUEAALGPC/xhBQAAACBjSFJNAAB6JgAAgIQAAPoAAACA6AAAdTAAAOpgAAA6mAAAF3CculE8AAAAAmJLR0QAAKqNIzIAAAAJcEhZcwAA6mAAAOpgAYTJ3nYAAAAHdElNRQfjAQkEIicZ3f4hAAALn0lEQVR42u3da3BU53kH8J92tbojJBBCSFxtJLCRwYBxbNdObew2ME0bF09m4iTTzvQ2zaS5zDSOvzjpl2QaN2nGbeJ42g/pl7pxpmnS2k0dh2kujUOwMZdiMAZxMZYshC4Iobu02u0HLbDArvailVah+p/RjnT2vOc8f73353nf/2Ee85jHPGYZBTN89/gj/nnR2Gf88WtDMqRIkZBCIQvVWqjSAgtUKhESVSqEccMKjBtxSb9LBlzUqc+YCePGjBmfeyQrVFqoQq1V1lhpmSWWKLuSg5c/r0WUWA5O5uSQLl3avesdZ3Ua0OeSgXyTXGy5esut1aTRSgty8i+bRL+zWrQ4qU27Vhdmm2RQk2ZN1lmnUXUOqSVCrxbHHXfcUSdMzDzJQre7zzbr3WrpDJO7Hh1OO2afPd7KjGr6JIOqPWiXjepnPO+mQq92b/uhH+lMl2p6JEut9rjfsVqVQB4JXkWf017ygrOGcnG7Cts87azR63q1/B+j2nzD+1RMj2DAJl/xnkjeCSU7Itr8tS0Ks6VY51P25Z1GOsdhn82uGdzmBYN5Nz/dY8ALHkhGJXHDE/Ixn7Il62IedXV0yphBgwaMYtQ4QopRrEK5ckVX7Eg0Lkofh33d88LpkSz2557QkPFDwiZMGHdRmzZtOnTr0mMw9k0EEREEBBAQFFSoXI0aNZZpsMJyC4Vi32SKNl/1D0ZTkyz1SU+qyeDWwwYNaXfUcS1adBkXNiEsYkI6s4sCQQGFggqF1Fqr0TrNlilTrjQDW7o87VkjU5MM+rin06zEEzqd966DDnrTOWERUZGM//83IqBAQKFl7rDFZissVSuYVtoOT/rna624lmSBBzzn9jRudcbbjtjngDM5oTU15TW2ukuz9dakcf1Rn/Bq8hK02A9StmO9fugpO9TOMLUbUWuHp/yX3pQ2fs+iZDcJ+qiBKRO3+qYPWT3r9OKx2oc8q3VKO/s9nqxwL/Q/UyQ87xn3WphXgpdR5T5/5/wU1v48saUFHtaTJMmQV2xXnm9u16DCw35sOInF3bYnJvlXSZJc9HV1M+zyygYBdZ7RlyRbvpDI4oDvmkhw+ZivzZFCmghV/tZYAqsnvJBoUhhIUiP3pdWl5A8bvJGkVl4hGc828cjijIv55jElep1JeL7s6q/xJBPP+Tdanm8eU2KFjQnPBxL+mmSM0OgzVuSbSVKs9FlrE36TkE0gSdmOGvU9m4TyzecGhNzp+0ndMm8kbniSkYwKO+xP5lh+rvCn3kzYH2RJcrLn+Q9/kOch3WWs8YdeSjoQuIFk+hPTUr/nQb/yMz91ILcBmQxQZIuH/Kb7MglJZDb7rvQBD/mYI37hJ07NKtWQW233fs0aFWWWNHMXQ5FmzXY474RXveqYYeE0PQCZokBQoVK3u9/9mtSqyuY22forq1Rp8rAhXQ543SFnDRo1dqOHJQsUK1Ks3Gqb3G2rGmVKsx89Z+2URYEyZWo0+bCIHseccMpJHYYMGTZi1Gha8YqgYsVKlClVZplbrdVkvcUxZ9c0MR2SV00MokGDR8CADh06dOl1Qa9Bo8ZjzsgJE7EUBQoVK1KkXLVFqtWqU2fpdN3+M0PyelRYe90oZMywYaMKjAujUAhFSpVm2ojMFZI3okhRPqdrqQNxM7gqI0dIaWHqnGwxYUXu60mOMKBVUNPUF6XOyT12+Yxf6sk3nxvQ45ee8GF7Ul2YOifDunzbi37XDs1uUZJvbhhzxmEve0m3xYlCPJmSnES3f/K8zba7V7PVeXNrRb3jiH1+ar/hdBNl0rqOec1r6m1wm83usn6W2uZJhB2z30HHHNWeWdLMzWzXbrcaKyy3ziZ3WhuLMOY6d6OiCGtz2EGHvaNNdzY3yjYvunU76BWVKtVrtl6jRrUKBQUEBbKiHBUxIWJCWKcWLd52xHn9+tIvnLkjOYkx3bqd9pqQkCKLrbVSg3r16pULKhQUjJEOEPuMiMY+IyZMmBA2YcA57dq1aXVSjzHjxnMxnctNrbpsSpcTVxZ+BlRaGPupVC6gRFBIEcaMCxsVMeiSPpdcclF/3CqTnIYDc910xBs3ojPHd88Sc2N91TzJeZLzJOdJ3myYJ3mzYJ4kZnoPUC6Q0sLUJOviA9NzEOWWTZ/kvckXy84JPODe9C9OHp887NE5WneDdnkzV0HYFp9Tl29GN6DOE07mMtLc70W75pD3tcJjXtKfXqQ5XZJRUR1+YJfqWXVf3YhC1R7z7zpSWJslyagJvX7lL23IC9VCizT7nL16p1gQkYDk1T4m4HVb03hUVFivX/iR/9WhezoOprRRqkadO33A+1UpTKvv3u/uy36KzPOjQEitxzym0377vOVd7TpyEmG+HsXqNFjhdttszX6t9HQKXa2ddgo7pcUZ7zir3Tkd16/lzxgl6tSrt9JqazS5ZbpVY/o1q9A66xDRqUu3bp06dDivW69evcZS3KFItUWqLLHUUnVq1aixRG2ueufcNR8BdVf60hGDhgwbNWLUsAGDBgxjzJjJoCylKlQoV6pYiWKlypXNREBpZtrIEiUWX3MmEtvbM+lWLojt8AnMzkhqtjqCWaKT7OGpMDzjm1umh0jqTix1Tu51yDb35Hmckxhh+7xuo4emS7LFl9TZ4YPuyWhr2Exj2F7/abdzvjx9kgG85ZgX3WG7nVYJ5tVbMLnF9xW7HXJK1KLUVS6dQliAqJNO+onn3O+33aNa0awX4LAxvfZ6xR7teuOsywHJq+jTp8V3LPY+j7hbjTLlM75we8KQQV32+m+v6TGceinEdEgyGYvs967vK7HWZls0W6JSpQU5LcZR/S7pc8Eph+x3xECsr80Y2Ra5iIhxBx30bWXWWmOVVerVqFKpUmVW7q8hl2IB2W7tzjrrjJPTl0vIRb0acthhEFKnxiLVFlmkMrYxu0y5EgEhgdjSwXFhEWOiRgwaNGTQgD4X9OrVo0dHLldF57bxGNeqNe7vEsVKlChWpEBhbCUyYRERYVFjRo0YMTrtucuskbweI0b0zegT0sLcdDXOk5wnOU/ypsY8yZsF/+9IJhtez+39BMmsi2MTTzLxCD80/W1EM4pgku0zcWziSSZ2CDXnQcokEyzVnPB83NwlnuS5hHm50R9lt6FvVlDlj92R4HzEuUSXF/hikg20fZ6xbA42UQH1/j6pLMZTidqYAtuTCpwM+7FH5lCcGSr8lt1TCJw8mDjZQj+fIqjZ6Rt+Y44U3Cr3e1bnFNb+TGXipEGPTxmFj2rzLY+mJeE0c1jj9z3nvSnt7PeR5H3CYv+WMkx90cu+YOesC5+y1E5f9LKLKW3812vlo64XArvfczak8cAzjjviDQeczkZWNiME3WKrrZqtT0vn4IhPeDU5SQI+7m/SlnTrcl6rQw54U7vxHEu6hTRotsVmyy21JG1Jt897fipJNyjxSU9akoFJwwYNO+eo405o0ZmVOF8wpjoYslSjRuttUKc0Y3G+r/hWKnE+KPZnPp+FQE04tlfnWpnFboOx8zfKLE7u/ylXY4kayyy3XIOqmBZh5sPJVl/1j+nILEKhj/p0WgteEuN6wcxJv+oIMYXzyX0+JSqUK8uhYObXfCezEMI2/5JCxW4uHVNKn06Fpf7i10LENmK/T2c/jQjY6Mta57Qccasv2TTd6WCFu+a0sPTdqUUD05cI/4gPWqVqTkyhozGJ8O+mJxGemdj7Ax61WUNyzc1ZwAXvOeplu3Mt9h5P9Tb32eY2t876WuZzTnvLPnu8PVOy/fEIaLLBOk3Wabxu7VXu0RN7AcMJR5yQhVttegHwass1aNCoUaNVyeZwWeGSs1qciL1Ko+3KQogskJsof3nsDS9LrLLaSsvUqs34pSiDOnU5F3spSldszcDg9M2bmdfbFCoUUqlWlQUWWKhCsRJRJbFw+ogCI0YN6NOv30WdLhkXFp6rr7dJfvf41xRdHZ9eHdfG93vzmMc85nHz4P8Axj/YH98VfuEAAAAldEVYdGRhdGU6Y3JlYXRlADIwMTktMDEtMDlUMDQ6MzQ6MzkrMDg6MDBQmFW7AAAAJXRFWHRkYXRlOm1vZGlmeQAyMDE5LTAxLTA5VDA0OjM0OjM5KzA4OjAwIcXtBwAAAEN0RVh0c29mdHdhcmUAL3Vzci9sb2NhbC9pbWFnZW1hZ2ljay9zaGFyZS9kb2MvSW1hZ2VNYWdpY2stNy8vaW5kZXguaHRtbL21eQoAAAAYdEVYdFRodW1iOjpEb2N1bWVudDo6UGFnZXMAMaf/uy8AAAAYdEVYdFRodW1iOjpJbWFnZTo6SGVpZ2h0ADE0OBUm5gYAAAAXdEVYdFRodW1iOjpJbWFnZTo6V2lkdGgAMTMyKUPJggAAABl0RVh0VGh1bWI6Ok1pbWV0eXBlAGltYWdlL3BuZz+yVk4AAAAXdEVYdFRodW1iOjpNVGltZQAxNTQ2OTc5Njc5Bi/o5QAAABF0RVh0VGh1bWI6OlNpemUAMjI0MkJGUrTFAAAAYnRFWHRUaHVtYjo6VVJJAGZpbGU6Ly8vaG9tZS93d3dyb290L25ld3NpdGUvd3d3LmVhc3lpY29uLm5ldC9jZG4taW1nLmVhc3lpY29uLmNuL2ZpbGVzLzEyMi8xMjIyNTg1LnBuZ3GHrTEAAAAASUVORK5CYII=;" parent="1" vertex="1">
          <mxGeometry x="476.25" y="600" width="36" height="40" as="geometry"/>
        </mxCell>
        <mxCell id="rLT0J8aDYwus9qKLVi9h-64" value="" style="shape=flexArrow;endArrow=classic;html=1;fontSize=13;strokeColor=#82b366;fillColor=#d5e8d4;" parent="1" edge="1">
          <mxGeometry width="50" height="50" relative="1" as="geometry">
            <mxPoint x="495.25" y="596" as="sourcePoint"/>
            <mxPoint x="495.25" y="556" as="targetPoint"/>
          </mxGeometry>
        </mxCell>
        <mxCell id="rLT0J8aDYwus9qKLVi9h-65" value="" style="shape=flexArrow;endArrow=classic;html=1;fontSize=13;strokeColor=#82b366;fillColor=#d5e8d4;" parent="1" edge="1">
          <mxGeometry width="50" height="50" relative="1" as="geometry">
            <mxPoint x="563.75" y="596" as="sourcePoint"/>
            <mxPoint x="563.75" y="556" as="targetPoint"/>
          </mxGeometry>
        </mxCell>
        <mxCell id="rLT0J8aDYwus9qKLVi9h-66" value="规章制度文件" style="shape=image;verticalLabelPosition=bottom;labelBackgroundColor=#ffffff;verticalAlign=top;aspect=fixed;imageAspect=0;image=data:image/png,iVBORw0KGgoAAAANSUhEUgAAAHIAAAB/CAQAAACZSl4oAAAABGdBTUEAALGPC/xhBQAAACBjSFJNAAB6JgAAgIQAAPoAAACA6AAAdTAAAOpgAAA6mAAAF3CculE8AAAAAmJLR0QAAKqNIzIAAAAJcEhZcwAAJxAAACcQAZRpURkAAAAHdElNRQfjAQkEHCtRrql3AAAL7ElEQVR42u2deXQURR7HP5NJCAFCIuGScAnBgGQFIldwMQir+5SV6MoCCs/dt7qKBPDap3jwZPUhuopi8EBF1NVVTsVFvEgQjCwEEAiLoIZwJhDIRRJykMxM7x+pVLpneq70hJmE+dYfqa6uztS36/r9fvWraggiiCCCuMgwOb0TTS+iCfF3Ab2AldOcpNYzkmaSmMII+tPexUsIPNgoYQ8bWE2Fu6ydWEwRSosNtaynv2uKsXzq92IaD5vooW2aakSyhCn+bnUeQsH5iNIPyEBpuNRm+xtvCtoK/2MzB6nzNxenaEsqCSJewzYyKWMCE4gAoJhb2K732OXsEtV9gaXaCg9AjKdMlLaE2bQHIIKF1InUh/Qfm4ZVZPiQtv7m4BYvyAqZq0rtzRGRvqwxUT0PDhBXJbxGjb85uEEkSSJ2kH+r0sspFrFOjeNNI0kTcSJ2hqP+5uAWnegtYjskLQAbNslHjjeNJEMIF7FqLP7m4BZhhIlYqSZdd7xtJGmlSL6l9v7m4BaVUqoZIOk6hbpPHhZ/u3Odvzm4RTEHRWwM8d6Q3CfeTlueZKi/WbhBLd+LWA/+QWeZruhlDlXFd/AFdwAwiA9ZxFdUB6yAbiWT4/QB4DbMLGYPNhQi9PQmLYkk1nG5iNfwExUBSxJMDCZGXhXzC3WAmSFEArCWO5wNoPdR4Xfx2jdhTWMrta/c5TzOGX9Xkq9htrtW2EkWHeglZ82WioOsaxAMQnVuZ7KTkaQyFYBqtlEVwH1Ti1CSiHZM1MMFMkkQJAuZybEWYutRiOZLRnhGEtQNuQ4rVn+X30PU6s2ULaOGPIcb2bUVI0iytSDU0NNtCEehSiqqAYqmkwzlBu6jOzayeYVfZXoI3YmiljOc9zc595gtZMDj0tCgxhUsldYyhT0MFOkDWMSvFJDHRkbq/t9IOjRjqaPIcpRdm1KTYdzMAo3GOYx53EcnJvOANNHHEse9bFU91Y94JjAcK9/zNfspb0ayHsJZTfbndc47yPyVpJGFzS41h3FAJGOZwyryqJV3yknnYYY4yM5G4YOaDGUqj3K1vLZxgp6EAu2Yo5M/juVs5kqG0dHuTiQTmMApvmMzOR79tsIpjmhS2jCIGnKMDHt6NTmNclU9FTGfwXzjUKsneYcCj/U+K5Uehlzu0tRZGkWc5BFNRenWpDckQ1kvi2ZhE9djAiZoCBXyKr/BzBRO6xI6TRbZOs3ds7CXLrJ8U7CgoHBMGEFckPSmuVrkRFHEK7zBOQAymMkzxBFGKVt4iR+xAquB11RFqqGA/fyHbRQQxlDuIplYr0WRCFV524n+HOq+X3vXJ9PoxmCOksYPKml/PTsYTEdyyaFapq6hggeIJ4Q89rORbM5yQdzbxBZ6cSO3MZTOHlMt5wMK5NU3bOAm6viUU74lmcc9tKPaYV2+QPXjDVD4ii10JYRCHbGgjiMs430GchXh+oZEDUwo5JKlynmavzCWSv7rft3G23myjjIvcldz3OX9Gvaxz8sSNKKEzz3LeEkI6EGSrQVBkq0FRkmG+VzEbgYYsQyMYjpXUMNe3tdMyB2IooaywFmvbirJGGZxv1gBm8x47hYzYhemczvdqeJHnlfZCxoRBoHjHeTcMmBiDBnSHaY+pGGmA1PZJcRmBYWdDNE81YURPMkG1jOXeNo0S6kNayH16Mx8zjjoB6U8xpdU26XuZgj1et8kXmc/JSLdRj6rmKxrWGkGkt411xB+x+Mkq+zUhcQQAkTznM4gdg0rWMVIxtBZ475gogdT+CO5fE4mJ5pMSaHYvXjuLclbeFe1ulvFW6zhBcaKF9CAUrYwnigAEkl08dvxPMoD7r1TXaCQJSxvum1AT2leq2qKe5hGGJCistopVLKS8UQwi3O6am8Vv3JC1W+Nh8P0VJXacHO1clrEylnOK+QB8AUP8wR9MFPBDpbwHdXAm1h5QdRm/bNnOcxX7OAwbRnJnYxQqdRG0M79crE3JBWWMIAEjrGIb+QsaOVdNjOCKA6pzIwK71DGY/TCxDn2soHtFMi7OXxGHClMpr9Bxygb6fLV+4Qk5DKVaCoosUs/quONZ2Ml6cQSQhFnHNTsKvazn7dI4GpDHpnH+JYq35KEMq+U5iLpyqaPs2xmswGKHiIooLcWBEm2FgRJthYYUZqv5A8kUEkWX4glg3qYiaTW/ewV+CQjmMFDDAJgFmuYy1kA2pNCCv0oZxvLdDUEkwf28oAgeTVPcKuUGUOYymGeoi3JPMg4IcGMZzSpmrXHKGK5ltFY2UIm+YHgTuFMaW7HTI476AKF3M3HmtVLBYWt9AdMdGM0T7ONArEWXUsOr/NbR1c/w/CJz0Ai85ikkvvPiz2WnVkqdkmpcR1v8x7XkszlGkJhxBHHdA6yhkxD/rXlnoiZ3pEcx3v0lVd1rGYlzzAMQEWxit0Mpx0A4xnndASPIokkSr2Shu2Rz8t81vRe7thczXyiaoq5zKUdMIMaVaqFzdzJZSxwsPc0WHdOS0uPb8IhzdY5w81VkdNCHat5ngMArKEXjxADWMjmDT6jFHgOC09p1NkqjpLOHn6kI8mkMNRHm96iRZtxAW9I2niVgcRxiqWsolKkXuCfbGI0URwii3yRWsuLnGMuPQihhBy+JIscqd5uZzlDmcRN9HG/P8cNdrjv0971yf3cSgwlYk5sgJXd7HbIe4HXWE9/zBzXcUErIp0MXmQUiYa83Y/yqXtDmLejayGFXuTOE3YgfSic5CRrDVD0EJeE7Bok2VoQJNlacEmQNKI09+Rm+lFDNl+r3M0AwrEE0naZppI0czPzGAPABd5mvhCzQ0lmIgmUkM46u03VLYxkbx7ir9JRN5zZnOAlTFxDKrcKpWoKN/CgZp0ilC6MZhRWtpJlSPfwGe6V2kasJr0NU9nroAvkcztLyLdLXS80hGiuYhbr+IkLKChUsJ0FDHEvWnsNL7WQrWQxnCqN+yX0ZR4zVCtRtWLtvwcrHFywIQWFtxjD7+lDV9X6dAdGM5pUdvMhP0hR33soVEr3UhdwtS+yJ6M4y07Vv0nkXdUuAoUMPuFRhy3wFnKIk9pFjUuVqo48yg2Ytk7wsmrHAkTxrdiq4WJPsyuE8L6qKRawgBjgXrt1413cTy8Wy9NU7EMZVT5VmvfSTUPSoNJskm4pCuksFG/wYwYyUxg/cvmAFeQD8wkjVTML28gji2y20ImJJBPvo9213eno213Y1/IzNZxgnso9AsKZxELSmC3ssPWI5FnOYsHCefaxmOlcqXqlffkzn/jkLK4MjYlMtyZdvU0zHaizs4QPoCdn5JEUrmEmgQGEcIoc3XfdhgSSGGbIDHKEjzR+X172yY48z242cb2BIniGEAPBHl72yYn8HTMQzU1uFsWNotkt6c4F9IaTibo1w5R9keGc5C6OADY22JmtWiCcN9ed3MkIytgQ8OdlGSAJWWT5u3i+wSWhNF8SJEPd3G0pB5sAKFiw6An7+iTDSSKReLq2hL0CEhZOcUwjcLogeR1zuFFHO2wZ8KAmzdzPfLr6u6QGoNPB7Enew6JmPQfAL9CSTOJpSTHQTztTiGWAvCriZyz0lOdhOiUZzhx5oNuBAD+3DswslSS/YwG7sRHLIv7k+rFx0kXlYMCfQAjxnBSlPaCqv0GcclS11MLAUHGsXQ0LDWzCvVgYJsydCsvkKZhwRqoTSuM4qz3Eth6n5TmNgYzLRNnPac5W7iv3KBQ3LlQ09kmzPHay1IAl9OKhoZ5Mgmx7JjKWZOnw8lNj1kaSNrloE2FoGehioRgrZiCKRHYBc3hG5UmSQ4b+Y/NFly1mlL8ZeIDGgSeTKCKlbUdB4TwznD02TZqJP2oBp2eH8i9R2loeI5yPVWbvudq2qBbAi7letOiBxJBtaKNY88NGNSmEA2ZGYWIjUZj4mZU8y1qtccz5ifYHyOCQ3ocpAgYRpDJYUs5mH/lks9FuQdgBkXzk03WK5g02h5OcbFSS5t7Dq+V/ZaKAq+xJ2SvFFWwilPgWbGs9xwr7DXPOv/wynLgW9uUXMFHKq7xk75ThnEQUvVvYN3wACvklkPxOgggiiEsW/wdtvAmzevtuqgAAACV0RVh0ZGF0ZTpjcmVhdGUAMjAxOS0wMS0wOVQwNDoyODo0MyswODowMCWfPKIAAAAldEVYdGRhdGU6bW9kaWZ5ADIwMTktMDEtMDlUMDQ6Mjg6NDMrMDg6MDBUwoQeAAAAQ3RFWHRzb2Z0d2FyZQAvdXNyL2xvY2FsL2ltYWdlbWFnaWNrL3NoYXJlL2RvYy9JbWFnZU1hZ2ljay03Ly9pbmRleC5odG1svbV5CgAAABh0RVh0VGh1bWI6OkRvY3VtZW50OjpQYWdlcwAxp/+7LwAAABh0RVh0VGh1bWI6OkltYWdlOjpIZWlnaHQANzgzKswMMAAAABd0RVh0VGh1bWI6OkltYWdlOjpXaWR0aAA3MDGf6rdJAAAAGXRFWHRUaHVtYjo6TWltZXR5cGUAaW1hZ2UvcG5nP7JWTgAAABd0RVh0VGh1bWI6Ok1UaW1lADE1NDY5NzkzMjOdRjdVAAAAEnRFWHRUaHVtYjo6U2l6ZQAxNzc0NUKZqmoJAAAAYnRFWHRUaHVtYjo6VVJJAGZpbGU6Ly8vaG9tZS93d3dyb290L25ld3NpdGUvd3d3LmVhc3lpY29uLm5ldC9jZG4taW1nLmVhc3lpY29uLmNuL2ZpbGVzLzEyMS8xMjE4NTg0LnBuZ1lgyEIAAAAASUVORK5CYII=;" parent="1" vertex="1">
          <mxGeometry x="281.5" y="599.5" width="42" height="47" as="geometry"/>
        </mxCell>
        <mxCell id="rLT0J8aDYwus9qKLVi9h-67" value="" style="shape=flexArrow;endArrow=classic;html=1;fontSize=13;strokeColor=#9673a6;fillColor=#e1d5e7;" parent="1" edge="1">
          <mxGeometry width="50" height="50" relative="1" as="geometry">
            <mxPoint x="302.5" y="599.5" as="sourcePoint"/>
            <mxPoint x="302.5" y="559.5" as="targetPoint"/>
          </mxGeometry>
        </mxCell>
        <mxCell id="rLT0J8aDYwus9qKLVi9h-68" value="网络爬虫" style="shape=image;verticalLabelPosition=bottom;labelBackgroundColor=#ffffff;verticalAlign=top;aspect=fixed;imageAspect=0;image=data:image/png,iVBORw0KGgoAAAANSUhEUgAAAIAAAACACAQAAABpN6lAAAAABGdBTUEAALGPC/xhBQAAACBjSFJNAAB6JgAAgIQAAPoAAACA6AAAdTAAAOpgAAA6mAAAF3CculE8AAAAAmJLR0QA/4ePzL8AAAAHdElNRQfjAQkDJgTamVzSAAAS5ElEQVR42u2deZxU1ZXHv1Xd1Us10OxrN80iahAhBCEoKgloFGE06kBUnGiiiRvRcfmESZQx0URkJoIfI04+7qgxhqhxQY3igqIGFxBQNkWhgYaGRqD3prur3vzR1afOe/XWqoYin+S8f273ve8u59177u8s9xb8i/65KSett/pzLFGqMbLd/QRFGMYQYtQfnubOYA0H2MaNRLI9cgDyuJ2dHOAjxh+O5op5BwMDgz2MzvbYARjHvkSPXqZT0JfDgZvrTEki1Y2ybI8dgG9RnEgNpfOhZ0ArBxOpHLpke+wADJRRNNN66BnQRF0iFaJbtscOQG9J1cvHOYQMaFaytpRQtkdvmofVNB96BrTKDIAScrM9fnLVut9Oy+FgQLWk+xwBG2FEMaCC2KFnQJwaSXcmP9vjJ58iSVcGfz04A3QzRUcAA/KIJlJx9h8eBmyTzSZ6BDCggMJEqpXaw8OACmFAvnA/e9SJAmFAXfDX02FAcrPJDw49O5ySs7A5HWUoHQY0CNzIOwJmQDF5idTBw8WAOpoSqdzg2LvDqVS24oM0HB4GNNEoDMi+NjBAbBoNwYFwegxoFk6HRQ/LHvWVVHJmHmIGNClp2zeN9zuSwkohqw+uCXgzwM5k1qqEzcAsawNaClXaagK5XhU40xCuoYw3eMwiXVsVGC4hN7gO3qEMSG7E21IY0I0rGM8G7mN78Kp78SYGBs3MSZkHDyVMUAYfZFkMduUj6cu1lrw8FhLHwOAlejhV4LwERidMjBFmKpNDG+2WVFRwWHYoqQoZHLDk9WFKwl4xkaODMyBX8rrS1ZJXQTyRyrY6VCBQLKYWZht1E/kQclbbnRlQJZtKYco03yHrPqmKZIeiShOwMqCr9K3JWU1yZkCN7Pb5Kba/KqUNFJFNKnLRBAZLXoMy4vhmQK3s9pEUEZLEXNlmQCelCViB8DDZ42qc9URnBjTIlArTz5KXtL5GsqwP9lWagHkGhMR/AdUC3gMwoElJ1WGWjbBBKszJsjo0SBjQaAHCet5WOGsJzgxoUQamoTLR2iipDeRkWRvoLymrKpRHd0lvcgbJzgyIUSXpHhZZr9dbb7JHIbVB11kYoPeurc5VuOkCm8X93cVi+GhWQmVAWgpVx5BWx6ssXzkqi7OVvekx4HOpssiy0vWeW5pF34D2ClVYdJJi2Z+a3azFbgyoFFFnhUIxBSx6WuTD4SRtktsu6LSNkjCoMQUk+2RAjTDACoUMxdNoFhmgUUiVJU/DoBrnKtwYUOcChbaJfMimNlAgDIilgF0Ng1yMpW4MSALIVCiUXHGFWdQGCpUmYGaATxjkzgA3KJS0vmQTDCdnX4tlmus5u8PNVujGgBb2SdoKhWqVNuDlG+hCaUCzSZg+DPAhW5IMsGoCGgZtdHOauzHADQo1+NYGTuE5lrOEiTZtF9iK0Dx+zpu8zUJ6eTCgt2zBzRYG6H1rm1sV7ibDzRgJm0oXomo+aAa4+wZ6MI8TgTLmM1X5lXtzKtMoJUINn/Ac69Q0ncQv6QwMZSt3uMYiDpD+N1oYkIRBLW4wyIum0Jiwt1XyDVNOH9YlcuJc4lLDCPYkyjUwLfG/Qn7MKqnZwKCKxXxTGPq4/P9dj9n1v1JyrWW2jKQqkVPHKW5VuMNYZ6tQUvkMORsc0TpaIXMZC/TmXhYy2mRL7Ml0nuUCQoSZxTny/z0eIS89JWVVhTQMqnarwn0J1NCYUDesUEgLnRJCjhN1J2soTaRH8BC38EPOty05mPsopju/UBj+GVdnV46aH9bwKJ8wyIsBtdQmEIAVCul9t5SIo7rZyALGy5c6nsddJnU35pOrhOJ7vObau3zVJ2t4lE8Y5LUENBQqMeVoG+wETnCpYxm/U9+xi2qxgkXM5R0FU/SesIXZKfBWU4jLGafqipnykr094AaDvCif10TMPGiBQrcpIfZOClLUVMAdHFSl257nGUkEKOYCylNyyznTo28z2Cul4/yHKS+PFyXvT5loqzk8JRW9YQE8R7NJdfgeV42gkJupMQ3wrya36vfYYcrdwGSPnk1imyq/kkGm3E68J3m3pj98gN9LRatTpP0MNagGLnatJ5f/okVKr+cYS/5PaJDcnUzw6NVo2YQNDL7iJEt+Lz6VuXFpZgy4lpg0U2rJy+WuhO/NwGAL33KpJ4eHpWQTF6XkR/mr5NfwXdc+DeV9NfzdTE0pUcbWRG4z/5YZA84UwLKb4Sm5vXhDdeU1F+g6hC1qMXW1KTFBoIvBIhc9oA8vqTar+aFNmSQMquXkzBgwRg4j1NiexzhBDSzOXEeBcw2tiVIH+XfbEvk8JzVtZ5hDPV0UTjRo4nrbCIZTqROMeXxmDBhGhXR8im2JS6hXk9ce5BTwilr//R3aOkdqanFgUgF3CyMNYtzhIHovEXmzNdNDHf1E1scdxFwef1DfZBMjbMqU8ZWUuNMxxL63iC6Dh20gWg4306TaetBRDfuNo44QmIr5QCqb7VCmP++qbr2gNPF2Ol2+bQOnObaVwxNSyzr6pORfbtpKX7Qp0UYhHlUIJUNzTT6vOkKhJJ2s9vGYTUTJnZK7lcEurc2kOVFur2iH7XQ2u9Xw32eIYy0aBi3KNIYpzJNKejtHg1yt1Nt9lo0pwguSt8xVwR1OpUgc8/Y1gS/V8NelsEdTVM3Im70H6E5x9ki6hGMc1+8jLJZ0N+40haREFepb4RrQvFfQf54JdYzgPvXFt3MNq11GNFwWh8EOLwZ40yyBQjG2cC8jHSZVmQpXMlisBFR/vhBBeolrW4WJwCwDg3vl45TJScW2xXGe4/t5jOF+tkmPm8UIkwGdbrLdGOzkcSbYLobJMoENWrhBZsvR7JSJfZZrWzkslhpeTbTRk+dV63Vc7jALo0zkz6oHbTDoJDKmwabV1/4VnufMlNUc4ial9VWJvP+m6G11nrjsfnn/73QGOvGQgtvN/MIWahXzfV5mf0o/11mU+LQoxEV8rjqRBD1vcoHFTtRJfUGDjxM62jiqE/85oDR4e5orb6+iOxHmKRUqzgIbJ0xPfsRyQX7JJ8Y6Gy0hTRrC9XymMFj708gHXG1SbI9ijcpfRBHwbWHAXlfpDfAreXc1vbhB6YgGT6YEa5VwEytN4Kh9pqziSgZ21PDbG/sRK2waa+FT5jBYVuZUvpa8g1wFjONA4u+vPRmQNLN8wrWqJoOlpukcZhh3sNHmozTwDhc6gqQMqSfnsdRmusXZzHyOIxcIcauatjs5kZEiA2o8D7gn7Q/7TcP/mGOlTIRRLBSFVz/VLGHqoT7QW8zpPGMjcAx28AjfJo9OJrm9nMmiUDVxumvdYQWG9bOJsYkShZzMH9llU2YvjzHxcMWsRTmR+y1bTtuzh2eYxDhlsYnxkpRs5QLXevOV1ph8KhJs68xUXjTNi2SJBYw53G76CKOYR7nN/nCAV3lCoYe4lLEaL61UYDKwtC+FGUAPZvIWtTayfjNzGJ7mVSAZU5ijmW0rihoFjelnt6vZDGCO5b06rqGE6/jIAsfaxO9afuaqXHUg5ZBLDiHT004lXMaHNh1Mfe701M36sVKVb+Vx5tpuwPW8y0zTBqx71tZbX+Tn/H9ffsLxhDBokkAk/Vcc6MdwjvIY3hdM4UvP1mbygMCdFvbRy0Zha2EtG6imXZkLkU8O7e65MAWEiLOShzPxDCeHv8THt9Ur3f5p5We+2utsIwdS24r56tHTyn2aJnXmMV/D937WONoCrTTN4kRJ/4mzMLOzrRHuVKAmkyfGVb5bLWJpBzGgTX3KwCZ0rbL4ZvZsDITMz++wdg1q3H1Wbtw5hzlqAm1gt4jMsMlxESIfiJPHIEcT5GPukToWeov1Lh7nWsppIQzETW75FuUhLhULUmf+h0peD9B6gsab7AAf8Q3yKUw8Ubqop5ju9GAcf3L8brsDuyduchFztTzKGLrTne6mfhRJ//IZxVr1xvrgd14NMxm4vvRQYrpxPRtddoG/BA6mPEq5zCuU96lduH3KFR6hdxNN/uN3Lf5jD+pjwuR7XB2M+ZzN8hRRWclK5Qw7Nyj/yeNZqWszk7krRQc4yJuc4RpLOEPcegYGT9v4KxyoSHlyDeodrXAQZjRPpWxaDSzmJP4sf28Jxv0EXSTmtQYmE2ICL6RYI/bzGMe79O5Gk0bye3/zMJffqu/ZyhxHh2cp8yyBDQatfMC5ROmh3FyL0orRKFMy6DcAdGYGK1MWWjm/coxPyeduJUsOcpMfgHyVyeDxgIOG3YWf8mlKZ7ZwXcIWM04sBi3MSGP4kK8Q6Idi5BjAbNPaNjCIsYqZDv3sarJSVttEJlhomskB9Yrt/QARJrM0ZTru4x5ltfm5MKeS49JiAPynfL1KFZsQYgQPipUxuexe5lTbTX0gb6tyFe7BN2P5XBX+OCWQBWA4D5uEi4FBEy8xUU30iLIJfWgbDuGHxojgszrK8pnMUvEjtj9V/J9tXMFIPlOl1jHSqcGhyhNs8BUnppTI4WqbLWkNMy2H5/qyXvLnpX3jnHaXp9bSjUtMA2t7vuBiG+1xEttVmbftUWkv5VM12MvZNmXGSeRvckr90sb5MFp9O7t6/FFExQ2tsD2fWMZtKYa5CkbZlLxQLNNtuCRlS4zygBJpDVxp891C3GNqqoaHGWX7fafLFrYnoxCV2dKWU6RHmDE8abFT32hbbraSWnEWmJ17OdymVlQrv7YFGD1ZLWWaWcaZju7y26XcJtcQSi/6rgzNzaUSZRrvKqvRClvIU8A9akts4nq9VH5gAjMPOpwHPk2MkjFuc8VV+oqNTI7WJoPt692D3unFQmnzgANw787TapT7k9tzGRtUxqsO3yzMA1LGenrATDq+9K2MjlQNEeHVxBkeZUcp+TTHoUyZKZhnA4PabGolSiqu5jp2OfA4uSt8TLlLV0IKb1UHv+NRUauyQXphuC/ZIOlzHUKjypmlSg1kQBsD9ojpsJxZbHRoYIwYoGM85Xprl6EOsRZmdLI4LCLWsJwLTaU6XqHdLDpMQTIzreY6dibSe9ujX8JcynbqWe8SvpCjbIMVtgBJ0yNS9r2MnFXHihOswebQlZWOUy6zuS7oYzqfU882fpz8OGGO5WTXkML+bJTKF3tenTNPyq52PVDjRWNFo9jveiahjaK8Lu1+5nrJ1xBO5uhgc3O6KJbNTPcsfZlsSuVpqcLtdL7giQrnm4AUXSvt1nsG3CfIHxciTJevvotVnuU3iowozshTP17wyH63E+BCfxMBHmWav7H5Y0A/5dNb5uNerl3S3U4uAY1elK/Cbre4H31K0DbWSvosfxDMHwO+I1F7zTzr49K6r0XS5jA5bbt8T8W8Zb7uCmziedmBBjprfUEZkMd5MhV3uIQoJqlWbaanpL0IRoma1cgnPt9ZKqGRBXzfD+v9MKBE4fClVPh4I84SOSk2ME11KJcLxSuxy4dTtY0qWCPp0zoiSA7gCrERNnqe5Wqngcqi93hasRtDVIj9owGsiklj6kF1BjUD0ocdNjLA51sRZRWuYkwa7d4q6nlToIDXUgnMNXiiI673OEZZfhcEAA9TlZb+h8B24TIFvNYGUqlzFevLGZo5A64XLbqeSQHe66rOdu3zAWQ1hfmdiiu6MdC7cJ4CbelZpBVFVbjCpwHvkL1U2WDeCHR05TtKtf0y8FfUsP0vmd54OUIpGLcHfLerMkjHmOd7PQ5SxtkYNwTucw6LAihuHnSLVFXrYZOxo6nKFNnA1b4kSE9lCjX4e1o3F58lfupWjxOtHtRJHVVYlcb5qwj3mYxQ13gKw/48pYyz+31vu2bSBvUlmQTJjFanOW9Jq4b+LFcsqGe+6+1zJ/CWKh3jljRhdFidO6i0Pcjnk37raWj0prFqXzaI8T7n2BpJBvDfJveFwR8zMKhOEjNvjMvSraSYFdKZFf696yn0Pcv9ALUsYxbH0YMC8iiiHxNYwHpLTMgS31FldtSDT6Smpeneejle+QCD7sVWFmw2Dc6glUpW8wYvs5xNJq9N2/Ncxjg+6cSpsvUV+aC7pIqvPWN8vWicySDt/jRyd6YHXoEJYk6LMyudCrqrqN13OuDm0AHMtz1lYH02cnGHXNfdlQ8z6/+pMjHjXN0BHYIIp/KMzXRPCshyft0R6D1BSdPsPh8mVQuF1A6e9hqyoSjjmcsa9pnCqpqoZBlXBrXUetBYdc3KTc4DtadevC4mpaWcl84v+DhSiF6UUkYZg+lCFZvZRjnb0/mZJFfqwitycPJDppjuQvOk05UjNO191JPC5B7SH+y7VWZAtU24hwvpK0922dwd8o9Co1TE05wgL/ZVh56ePwJ+TCldKlLQeqX92QF7odNDCsdYnM7PFx0hVM/faHeY9rMP1rJnwF65+rCcFdkeRUb0nJjJtwb7Mb5z2UANm/nBEfCroplQmJ+yhWpWO13O5Dy8MvpQxVaOlJ/XTp8FQ+hOhS9/xr/on5D+H9HPecL3/kkFAAAAJXRFWHRkYXRlOmNyZWF0ZQAyMDE5LTAxLTA5VDAzOjM4OjA0KzA4OjAw2I/VTgAAACV0RVh0ZGF0ZTptb2RpZnkAMjAxOS0wMS0wOVQwMzozODowNCswODowMKnSbfIAAABDdEVYdHNvZnR3YXJlAC91c3IvbG9jYWwvaW1hZ2VtYWdpY2svc2hhcmUvZG9jL0ltYWdlTWFnaWNrLTcvL2luZGV4Lmh0bWy9tXkKAAAAGHRFWHRUaHVtYjo6RG9jdW1lbnQ6OlBhZ2VzADGn/7svAAAAGHRFWHRUaHVtYjo6SW1hZ2U6OkhlaWdodAA1MTKPjVOBAAAAF3RFWHRUaHVtYjo6SW1hZ2U6OldpZHRoADUxMhx8A9wAAAAZdEVYdFRodW1iOjpNaW1ldHlwZQBpbWFnZS9wbmc/slZOAAAAF3RFWHRUaHVtYjo6TVRpbWUAMTU0Njk3NjI4NKBsMB0AAAASdEVYdFRodW1iOjpTaXplADI0MzgxQrqKyUAAAABidEVYdFRodW1iOjpVUkkAZmlsZTovLy9ob21lL3d3d3Jvb3QvbmV3c2l0ZS93d3cuZWFzeWljb24ubmV0L2Nkbi1pbWcuZWFzeWljb24uY24vZmlsZXMvMTE3LzExNzg3MDQucG5nZgVjiQAAAABJRU5ErkJggg==;" parent="1" vertex="1">
          <mxGeometry x="156.5" y="600" width="49" height="49" as="geometry"/>
        </mxCell>
        <mxCell id="rLT0J8aDYwus9qKLVi9h-70" value="知识图谱&lt;br&gt;知识库" style="rounded=0;whiteSpace=wrap;html=1;fillColor=#dae8fc;strokeColor=#6c8ebf;fontStyle=1" parent="1" vertex="1">
          <mxGeometry x="41" y="220" width="70" height="130" as="geometry"/>
        </mxCell>
        <mxCell id="rLT0J8aDYwus9qKLVi9h-73" value="" style="strokeWidth=2;html=1;shape=mxgraph.flowchart.database;whiteSpace=wrap;fontSize=13;fillColor=#f5f5f5;strokeColor=#666666;fontColor=#333333;" parent="1" vertex="1">
          <mxGeometry x="290.25" y="260" width="51.5" height="37.75" as="geometry"/>
        </mxCell>
        <mxCell id="rLT0J8aDYwus9qKLVi9h-74" value="本体库" style="text;html=1;strokeColor=none;fillColor=none;align=center;verticalAlign=middle;whiteSpace=wrap;rounded=0;fontSize=13;" parent="1" vertex="1">
          <mxGeometry x="287.5" y="296.25" width="57" height="20" as="geometry"/>
        </mxCell>
        <mxCell id="rLT0J8aDYwus9qKLVi9h-77" value="" style="strokeWidth=2;html=1;shape=mxgraph.flowchart.database;whiteSpace=wrap;fontSize=13;fillColor=#f5f5f5;strokeColor=#666666;fontColor=#333333;" parent="1" vertex="1">
          <mxGeometry x="172.25" y="260" width="51.5" height="37.75" as="geometry"/>
        </mxCell>
        <mxCell id="rLT0J8aDYwus9qKLVi9h-78" value="资源数据库" style="text;html=1;strokeColor=none;fillColor=none;align=center;verticalAlign=middle;whiteSpace=wrap;rounded=0;fontSize=13;" parent="1" vertex="1">
          <mxGeometry x="158.5" y="297.75" width="79" height="20" as="geometry"/>
        </mxCell>
        <mxCell id="xYqnvsWUiP1YkH5jJToU-5" value="数据源&lt;br&gt;的获取&lt;br&gt;途径" style="rounded=0;whiteSpace=wrap;html=1;fillColor=#dae8fc;strokeColor=#6c8ebf;fontStyle=1" parent="1" vertex="1">
          <mxGeometry x="42" y="570" width="70" height="90" as="geometry"/>
        </mxCell>
        <mxCell id="YerrViW4XqpFd-7M9TbX-7" value="" style="shape=flexArrow;endArrow=classic;html=1;fontSize=13;strokeColor=#82b366;fillColor=#d5e8d4;" parent="1" edge="1">
          <mxGeometry width="50" height="50" relative="1" as="geometry">
            <mxPoint x="240" y="490" as="sourcePoint"/>
            <mxPoint x="239.55" y="442.75" as="targetPoint"/>
            <Array as="points">
              <mxPoint x="239.55" y="442.75"/>
            </Array>
          </mxGeometry>
        </mxCell>
        <mxCell id="YerrViW4XqpFd-7M9TbX-9" value="" style="shape=flexArrow;endArrow=classic;html=1;exitX=1;exitY=0.5;exitDx=0;exitDy=0;fillColor=#d5e8d4;strokeColor=#82b366;" parent="1" source="rLT0J8aDYwus9qKLVi9h-30" edge="1">
          <mxGeometry width="50" height="50" relative="1" as="geometry">
            <mxPoint x="360" y="400" as="sourcePoint"/>
            <mxPoint x="404" y="421" as="targetPoint"/>
          </mxGeometry>
        </mxCell>
        <mxCell id="YerrViW4XqpFd-7M9TbX-10" value="" style="shape=flexArrow;endArrow=classic;html=1;fillColor=#d5e8d4;strokeColor=#82b366;" parent="1" edge="1">
          <mxGeometry width="50" height="50" relative="1" as="geometry">
            <mxPoint x="530.46" y="490" as="sourcePoint"/>
            <mxPoint x="530.46" y="450" as="targetPoint"/>
          </mxGeometry>
        </mxCell>
        <mxCell id="YerrViW4XqpFd-7M9TbX-13" value="知识更新" style="rounded=1;whiteSpace=wrap;html=1;fillColor=#fff2cc;strokeColor=#d6b656;fontSize=5;" parent="1" vertex="1">
          <mxGeometry x="585.5" y="374.25" width="51" height="25.5" as="geometry"/>
        </mxCell>
        <mxCell id="YerrViW4XqpFd-7M9TbX-20" value="" style="shape=flexArrow;endArrow=classic;html=1;fillColor=#d5e8d4;strokeColor=#82b366;" parent="1" edge="1">
          <mxGeometry width="50" height="50" relative="1" as="geometry">
            <mxPoint x="547.9300000000003" y="371" as="sourcePoint"/>
            <mxPoint x="547.9300000000003" y="331" as="targetPoint"/>
          </mxGeometry>
        </mxCell>
        <mxCell id="YerrViW4XqpFd-7M9TbX-22" value="RDF" style="rounded=0;whiteSpace=wrap;html=1;fillColor=#f8cecc;strokeColor=#b85450;" parent="1" vertex="1">
          <mxGeometry x="447.25" y="304" width="176" height="24" as="geometry"/>
        </mxCell>
        <mxCell id="YerrViW4XqpFd-7M9TbX-23" value="" style="shape=flexArrow;endArrow=classic;html=1;endWidth=13.888888888888888;endSize=5.706666666666667;width=9.333333333333334;" parent="1" edge="1">
          <mxGeometry width="50" height="50" relative="1" as="geometry">
            <mxPoint x="479.58" y="305.25" as="sourcePoint"/>
            <mxPoint x="479.25" y="275.25" as="targetPoint"/>
          </mxGeometry>
        </mxCell>
        <mxCell id="YerrViW4XqpFd-7M9TbX-24" value="" style="shape=flexArrow;endArrow=classic;html=1;endWidth=13.888888888888888;endSize=5.706666666666667;width=9.333333333333334;" parent="1" edge="1">
          <mxGeometry width="50" height="50" relative="1" as="geometry">
            <mxPoint x="590.66" y="304" as="sourcePoint"/>
            <mxPoint x="590.33" y="274" as="targetPoint"/>
          </mxGeometry>
        </mxCell>
        <mxCell id="YerrViW4XqpFd-7M9TbX-27" value="持久化" style="text;html=1;strokeColor=none;fillColor=none;align=center;verticalAlign=middle;whiteSpace=wrap;rounded=0;fontStyle=1" parent="1" vertex="1">
          <mxGeometry x="511.37" y="230" width="47.75" height="20" as="geometry"/>
        </mxCell>
        <mxCell id="YerrViW4XqpFd-7M9TbX-29" value="" style="shape=flexArrow;endArrow=classic;html=1;fontSize=13;strokeColor=#82b366;fillColor=#d5e8d4;exitX=0;exitY=0.5;exitDx=0;exitDy=0;entryX=1;entryY=0.5;entryDx=0;entryDy=0;" parent="1" source="YerrViW4XqpFd-7M9TbX-25" target="YerrViW4XqpFd-7M9TbX-30" edge="1">
          <mxGeometry width="50" height="50" relative="1" as="geometry">
            <mxPoint x="397.95" y="316.25" as="sourcePoint"/>
            <mxPoint x="397.50000000000017" y="269" as="targetPoint"/>
            <Array as="points"/>
          </mxGeometry>
        </mxCell>
        <mxCell id="YerrViW4XqpFd-7M9TbX-30" value="" style="rounded=0;whiteSpace=wrap;html=1;fillColor=none;" parent="1" vertex="1">
          <mxGeometry x="143" y="230" width="217.5" height="102.63" as="geometry"/>
        </mxCell>
        <mxCell id="YerrViW4XqpFd-7M9TbX-31" value="知识库" style="text;html=1;strokeColor=none;fillColor=none;align=center;verticalAlign=middle;whiteSpace=wrap;rounded=0;fontStyle=1" parent="1" vertex="1">
          <mxGeometry x="222.75" y="234" width="58" height="20" as="geometry"/>
        </mxCell>
        <mxCell id="YerrViW4XqpFd-7M9TbX-33" value="&lt;span style=&quot;font-size: 11px&quot;&gt;知识维护&lt;br&gt;&lt;/span&gt;" style="rounded=1;whiteSpace=wrap;html=1;fillColor=#fff2cc;strokeColor=#d6b656;fontSize=5;" parent="1" vertex="1">
          <mxGeometry x="138" y="130" width="120" height="30" as="geometry"/>
        </mxCell>
        <mxCell id="YerrViW4XqpFd-7M9TbX-34" value="&lt;span style=&quot;font-size: 11px&quot;&gt;知识嵌入&lt;br&gt;&lt;/span&gt;" style="rounded=1;whiteSpace=wrap;html=1;fillColor=#fff2cc;strokeColor=#d6b656;fontSize=5;" parent="1" vertex="1">
          <mxGeometry x="138" y="170" width="120" height="30" as="geometry"/>
        </mxCell>
        <mxCell id="YerrViW4XqpFd-7M9TbX-35" value="&lt;span style=&quot;font-size: 11px&quot;&gt;分享知识心得&lt;br&gt;&lt;/span&gt;" style="rounded=1;whiteSpace=wrap;html=1;fillColor=#fff2cc;strokeColor=#d6b656;fontSize=5;" parent="1" vertex="1">
          <mxGeometry x="313.25" y="170" width="120" height="30" as="geometry"/>
        </mxCell>
        <mxCell id="YerrViW4XqpFd-7M9TbX-36" value="&lt;span style=&quot;font-size: 11px&quot;&gt;分享知识维护&lt;br&gt;&lt;/span&gt;" style="rounded=1;whiteSpace=wrap;html=1;fillColor=#fff2cc;strokeColor=#d6b656;fontSize=5;" parent="1" vertex="1">
          <mxGeometry x="492.75" y="170" width="120" height="30" as="geometry"/>
        </mxCell>
      </root>
    </mxGraphModel>
  </diagram>
  <diagram id="NUUoOPNwUeMm8oNxEWtt" name="本体">
    <mxGraphModel dx="1635" dy="812" grid="1" gridSize="10" guides="1" tooltips="1" connect="1" arrows="1" fold="1" page="1" pageScale="1" pageWidth="827" pageHeight="1169" math="0" shadow="0">
      <root>
        <mxCell id="rY0lbp-Ri3fiWo_WKVB5-0"/>
        <mxCell id="rY0lbp-Ri3fiWo_WKVB5-1" parent="rY0lbp-Ri3fiWo_WKVB5-0"/>
        <mxCell id="rY0lbp-Ri3fiWo_WKVB5-46" style="edgeStyle=orthogonalEdgeStyle;rounded=0;orthogonalLoop=1;jettySize=auto;html=1;exitX=1;exitY=0.5;exitDx=0;exitDy=0;entryX=0;entryY=0.5;entryDx=0;entryDy=0;fontSize=19;" parent="rY0lbp-Ri3fiWo_WKVB5-1" source="rY0lbp-Ri3fiWo_WKVB5-4" target="rY0lbp-Ri3fiWo_WKVB5-45" edge="1">
          <mxGeometry relative="1" as="geometry">
            <Array as="points">
              <mxPoint x="180.5" y="550"/>
              <mxPoint x="180.5" y="594"/>
            </Array>
          </mxGeometry>
        </mxCell>
        <mxCell id="rY0lbp-Ri3fiWo_WKVB5-56" style="edgeStyle=orthogonalEdgeStyle;rounded=0;orthogonalLoop=1;jettySize=auto;html=1;exitX=1;exitY=0.5;exitDx=0;exitDy=0;entryX=0;entryY=0.5;entryDx=0;entryDy=0;fontSize=19;" parent="rY0lbp-Ri3fiWo_WKVB5-1" source="rY0lbp-Ri3fiWo_WKVB5-4" target="rY0lbp-Ri3fiWo_WKVB5-43" edge="1">
          <mxGeometry relative="1" as="geometry"/>
        </mxCell>
        <mxCell id="rY0lbp-Ri3fiWo_WKVB5-4" value="业务" style="rounded=0;whiteSpace=wrap;html=1;fontSize=19;fillColor=#d5e8d4;strokeColor=#82b366;" parent="rY0lbp-Ri3fiWo_WKVB5-1" vertex="1">
          <mxGeometry x="80" y="530" width="81" height="40" as="geometry"/>
        </mxCell>
        <mxCell id="rY0lbp-Ri3fiWo_WKVB5-51" style="edgeStyle=orthogonalEdgeStyle;rounded=0;orthogonalLoop=1;jettySize=auto;html=1;exitX=1;exitY=0.5;exitDx=0;exitDy=0;entryX=0;entryY=0.5;entryDx=0;entryDy=0;fontSize=19;" parent="rY0lbp-Ri3fiWo_WKVB5-1" source="rY0lbp-Ri3fiWo_WKVB5-43" target="rY0lbp-Ri3fiWo_WKVB5-47" edge="1">
          <mxGeometry relative="1" as="geometry"/>
        </mxCell>
        <mxCell id="rY0lbp-Ri3fiWo_WKVB5-54" style="edgeStyle=orthogonalEdgeStyle;rounded=0;orthogonalLoop=1;jettySize=auto;html=1;exitX=1;exitY=0.5;exitDx=0;exitDy=0;entryX=0;entryY=0.5;entryDx=0;entryDy=0;fontSize=19;" parent="rY0lbp-Ri3fiWo_WKVB5-1" source="rY0lbp-Ri3fiWo_WKVB5-43" target="rY0lbp-Ri3fiWo_WKVB5-50" edge="1">
          <mxGeometry relative="1" as="geometry"/>
        </mxCell>
        <mxCell id="rY0lbp-Ri3fiWo_WKVB5-43" value="线上业务" style="rounded=0;whiteSpace=wrap;html=1;fontSize=19;fillColor=#d5e8d4;strokeColor=#82b366;" parent="rY0lbp-Ri3fiWo_WKVB5-1" vertex="1">
          <mxGeometry x="200.5" y="470" width="100" height="40" as="geometry"/>
        </mxCell>
        <mxCell id="rY0lbp-Ri3fiWo_WKVB5-47" value="业务描述" style="rounded=0;whiteSpace=wrap;html=1;fontSize=19;fillColor=#d5e8d4;strokeColor=#82b366;" parent="rY0lbp-Ri3fiWo_WKVB5-1" vertex="1">
          <mxGeometry x="350.5" y="390" width="100" height="40" as="geometry"/>
        </mxCell>
        <mxCell id="rY0lbp-Ri3fiWo_WKVB5-17" value="" style="edgeStyle=orthogonalEdgeStyle;rounded=0;orthogonalLoop=1;jettySize=auto;html=1;fontSize=19;" parent="rY0lbp-Ri3fiWo_WKVB5-1" source="rY0lbp-Ri3fiWo_WKVB5-9" target="rY0lbp-Ri3fiWo_WKVB5-16" edge="1">
          <mxGeometry relative="1" as="geometry"/>
        </mxCell>
        <mxCell id="rY0lbp-Ri3fiWo_WKVB5-41" style="edgeStyle=orthogonalEdgeStyle;rounded=0;orthogonalLoop=1;jettySize=auto;html=1;exitX=1;exitY=0.5;exitDx=0;exitDy=0;entryX=0;entryY=0.5;entryDx=0;entryDy=0;fontSize=19;" parent="rY0lbp-Ri3fiWo_WKVB5-1" source="rY0lbp-Ri3fiWo_WKVB5-9" target="rY0lbp-Ri3fiWo_WKVB5-21" edge="1">
          <mxGeometry relative="1" as="geometry"/>
        </mxCell>
        <mxCell id="rY0lbp-Ri3fiWo_WKVB5-42" style="edgeStyle=orthogonalEdgeStyle;rounded=0;orthogonalLoop=1;jettySize=auto;html=1;exitX=1;exitY=0.5;exitDx=0;exitDy=0;entryX=0;entryY=0.5;entryDx=0;entryDy=0;fontSize=19;" parent="rY0lbp-Ri3fiWo_WKVB5-1" source="rY0lbp-Ri3fiWo_WKVB5-9" target="rY0lbp-Ri3fiWo_WKVB5-23" edge="1">
          <mxGeometry relative="1" as="geometry"/>
        </mxCell>
        <mxCell id="rY0lbp-Ri3fiWo_WKVB5-9" value="地点" style="rounded=0;whiteSpace=wrap;html=1;fontSize=19;fillColor=#d5e8d4;strokeColor=#82b366;" parent="rY0lbp-Ri3fiWo_WKVB5-1" vertex="1">
          <mxGeometry x="450.5" y="300" width="81" height="40" as="geometry"/>
        </mxCell>
        <mxCell id="rY0lbp-Ri3fiWo_WKVB5-16" value="门店" style="rounded=0;whiteSpace=wrap;html=1;fontSize=19;fillColor=#d5e8d4;strokeColor=#82b366;" parent="rY0lbp-Ri3fiWo_WKVB5-1" vertex="1">
          <mxGeometry x="571" y="260" width="100" height="40" as="geometry"/>
        </mxCell>
        <mxCell id="rY0lbp-Ri3fiWo_WKVB5-10" value="部门描述" style="rounded=0;whiteSpace=wrap;html=1;fontSize=19;fillColor=#d5e8d4;strokeColor=#82b366;" parent="rY0lbp-Ri3fiWo_WKVB5-1" vertex="1">
          <mxGeometry x="560.5" y="100" width="100" height="40" as="geometry"/>
        </mxCell>
        <mxCell id="rY0lbp-Ri3fiWo_WKVB5-11" value="部门人员" style="rounded=0;whiteSpace=wrap;html=1;fontSize=19;fillColor=#d5e8d4;strokeColor=#82b366;" parent="rY0lbp-Ri3fiWo_WKVB5-1" vertex="1">
          <mxGeometry x="560.5" y="160" width="100" height="40" as="geometry"/>
        </mxCell>
        <mxCell id="rY0lbp-Ri3fiWo_WKVB5-60" style="edgeStyle=orthogonalEdgeStyle;rounded=0;orthogonalLoop=1;jettySize=auto;html=1;exitX=1;exitY=0.5;exitDx=0;exitDy=0;entryX=0;entryY=0.5;entryDx=0;entryDy=0;fontSize=19;" parent="rY0lbp-Ri3fiWo_WKVB5-1" source="rY0lbp-Ri3fiWo_WKVB5-12" target="rY0lbp-Ri3fiWo_WKVB5-10" edge="1">
          <mxGeometry relative="1" as="geometry"/>
        </mxCell>
        <mxCell id="rY0lbp-Ri3fiWo_WKVB5-61" style="edgeStyle=orthogonalEdgeStyle;rounded=0;orthogonalLoop=1;jettySize=auto;html=1;exitX=1;exitY=0.5;exitDx=0;exitDy=0;entryX=0;entryY=0.5;entryDx=0;entryDy=0;fontSize=19;" parent="rY0lbp-Ri3fiWo_WKVB5-1" source="rY0lbp-Ri3fiWo_WKVB5-12" target="rY0lbp-Ri3fiWo_WKVB5-11" edge="1">
          <mxGeometry relative="1" as="geometry"/>
        </mxCell>
        <mxCell id="rY0lbp-Ri3fiWo_WKVB5-12" value="部门" style="rounded=0;whiteSpace=wrap;html=1;fontSize=19;fillColor=#d5e8d4;strokeColor=#82b366;" parent="rY0lbp-Ri3fiWo_WKVB5-1" vertex="1">
          <mxGeometry x="440.5" y="130" width="81" height="40" as="geometry"/>
        </mxCell>
        <mxCell id="rY0lbp-Ri3fiWo_WKVB5-37" style="edgeStyle=orthogonalEdgeStyle;rounded=0;orthogonalLoop=1;jettySize=auto;html=1;exitX=1;exitY=0.5;exitDx=0;exitDy=0;entryX=0;entryY=0.5;entryDx=0;entryDy=0;fontSize=19;" parent="rY0lbp-Ri3fiWo_WKVB5-1" source="rY0lbp-Ri3fiWo_WKVB5-15" target="rY0lbp-Ri3fiWo_WKVB5-18" edge="1">
          <mxGeometry relative="1" as="geometry"/>
        </mxCell>
        <mxCell id="rY0lbp-Ri3fiWo_WKVB5-38" style="edgeStyle=orthogonalEdgeStyle;rounded=0;orthogonalLoop=1;jettySize=auto;html=1;exitX=1;exitY=0.5;exitDx=0;exitDy=0;fontSize=19;" parent="rY0lbp-Ri3fiWo_WKVB5-1" source="rY0lbp-Ri3fiWo_WKVB5-15" target="rY0lbp-Ri3fiWo_WKVB5-24" edge="1">
          <mxGeometry relative="1" as="geometry"/>
        </mxCell>
        <mxCell id="rY0lbp-Ri3fiWo_WKVB5-39" style="edgeStyle=orthogonalEdgeStyle;rounded=0;orthogonalLoop=1;jettySize=auto;html=1;exitX=1;exitY=0.5;exitDx=0;exitDy=0;entryX=0;entryY=0.5;entryDx=0;entryDy=0;fontSize=19;" parent="rY0lbp-Ri3fiWo_WKVB5-1" source="rY0lbp-Ri3fiWo_WKVB5-15" target="rY0lbp-Ri3fiWo_WKVB5-35" edge="1">
          <mxGeometry relative="1" as="geometry"/>
        </mxCell>
        <mxCell id="rY0lbp-Ri3fiWo_WKVB5-15" value="产品" style="rounded=0;whiteSpace=wrap;html=1;fontSize=19;fillColor=#d5e8d4;strokeColor=#82b366;" parent="rY0lbp-Ri3fiWo_WKVB5-1" vertex="1">
          <mxGeometry x="80" y="300" width="81" height="40" as="geometry"/>
        </mxCell>
        <mxCell id="rY0lbp-Ri3fiWo_WKVB5-18" value="卷烟" style="rounded=0;whiteSpace=wrap;html=1;fontSize=19;fillColor=#d5e8d4;strokeColor=#82b366;" parent="rY0lbp-Ri3fiWo_WKVB5-1" vertex="1">
          <mxGeometry x="201.5" y="235" width="90" height="40" as="geometry"/>
        </mxCell>
        <mxCell id="rY0lbp-Ri3fiWo_WKVB5-21" value="零售客户&lt;br&gt;地址" style="rounded=0;whiteSpace=wrap;html=1;fontSize=19;fillColor=#d5e8d4;strokeColor=#82b366;" parent="rY0lbp-Ri3fiWo_WKVB5-1" vertex="1">
          <mxGeometry x="571" y="310" width="100" height="40" as="geometry"/>
        </mxCell>
        <mxCell id="rY0lbp-Ri3fiWo_WKVB5-23" value="仓库" style="rounded=0;whiteSpace=wrap;html=1;fontSize=19;fillColor=#d5e8d4;strokeColor=#82b366;" parent="rY0lbp-Ri3fiWo_WKVB5-1" vertex="1">
          <mxGeometry x="571" y="370" width="100" height="40" as="geometry"/>
        </mxCell>
        <mxCell id="rY0lbp-Ri3fiWo_WKVB5-26" value="" style="edgeStyle=orthogonalEdgeStyle;rounded=0;orthogonalLoop=1;jettySize=auto;html=1;fontSize=19;" parent="rY0lbp-Ri3fiWo_WKVB5-1" source="rY0lbp-Ri3fiWo_WKVB5-24" target="rY0lbp-Ri3fiWo_WKVB5-25" edge="1">
          <mxGeometry relative="1" as="geometry"/>
        </mxCell>
        <mxCell id="rY0lbp-Ri3fiWo_WKVB5-40" style="edgeStyle=orthogonalEdgeStyle;rounded=0;orthogonalLoop=1;jettySize=auto;html=1;exitX=1;exitY=0.5;exitDx=0;exitDy=0;entryX=0;entryY=0.5;entryDx=0;entryDy=0;fontSize=19;" parent="rY0lbp-Ri3fiWo_WKVB5-1" source="rY0lbp-Ri3fiWo_WKVB5-24" target="rY0lbp-Ri3fiWo_WKVB5-27" edge="1">
          <mxGeometry relative="1" as="geometry"/>
        </mxCell>
        <mxCell id="rY0lbp-Ri3fiWo_WKVB5-24" value="烟叶" style="rounded=0;whiteSpace=wrap;html=1;fontSize=19;fillColor=#d5e8d4;strokeColor=#82b366;" parent="rY0lbp-Ri3fiWo_WKVB5-1" vertex="1">
          <mxGeometry x="200.5" y="300" width="90" height="40" as="geometry"/>
        </mxCell>
        <mxCell id="rY0lbp-Ri3fiWo_WKVB5-25" value="品质" style="rounded=0;whiteSpace=wrap;html=1;fontSize=19;fillColor=#d5e8d4;strokeColor=#82b366;" parent="rY0lbp-Ri3fiWo_WKVB5-1" vertex="1">
          <mxGeometry x="340.5" y="270" width="100" height="40" as="geometry"/>
        </mxCell>
        <mxCell id="rY0lbp-Ri3fiWo_WKVB5-27" value="数量" style="rounded=0;whiteSpace=wrap;html=1;fontSize=19;fillColor=#d5e8d4;strokeColor=#82b366;" parent="rY0lbp-Ri3fiWo_WKVB5-1" vertex="1">
          <mxGeometry x="340.5" y="330" width="100" height="40" as="geometry"/>
        </mxCell>
        <mxCell id="rY0lbp-Ri3fiWo_WKVB5-32" style="edgeStyle=orthogonalEdgeStyle;rounded=0;orthogonalLoop=1;jettySize=auto;html=1;exitX=1;exitY=0.5;exitDx=0;exitDy=0;entryX=0;entryY=0.5;entryDx=0;entryDy=0;fontSize=19;" parent="rY0lbp-Ri3fiWo_WKVB5-1" source="rY0lbp-Ri3fiWo_WKVB5-28" target="rY0lbp-Ri3fiWo_WKVB5-29" edge="1">
          <mxGeometry relative="1" as="geometry"/>
        </mxCell>
        <mxCell id="rY0lbp-Ri3fiWo_WKVB5-34" style="edgeStyle=orthogonalEdgeStyle;rounded=0;orthogonalLoop=1;jettySize=auto;html=1;exitX=1;exitY=0.5;exitDx=0;exitDy=0;entryX=0;entryY=0.5;entryDx=0;entryDy=0;fontSize=19;" parent="rY0lbp-Ri3fiWo_WKVB5-1" source="rY0lbp-Ri3fiWo_WKVB5-28" target="rY0lbp-Ri3fiWo_WKVB5-33" edge="1">
          <mxGeometry relative="1" as="geometry"/>
        </mxCell>
        <mxCell id="rY0lbp-Ri3fiWo_WKVB5-28" value="规章" style="rounded=0;whiteSpace=wrap;html=1;fontSize=19;fillColor=#d5e8d4;strokeColor=#82b366;" parent="rY0lbp-Ri3fiWo_WKVB5-1" vertex="1">
          <mxGeometry x="80" y="130" width="81" height="40" as="geometry"/>
        </mxCell>
        <mxCell id="rY0lbp-Ri3fiWo_WKVB5-29" value="法律" style="rounded=0;whiteSpace=wrap;html=1;fontSize=19;fillColor=#d5e8d4;strokeColor=#82b366;" parent="rY0lbp-Ri3fiWo_WKVB5-1" vertex="1">
          <mxGeometry x="200.5" y="80" width="81" height="40" as="geometry"/>
        </mxCell>
        <mxCell id="rY0lbp-Ri3fiWo_WKVB5-33" value="守则" style="rounded=0;whiteSpace=wrap;html=1;fontSize=19;fillColor=#d5e8d4;strokeColor=#82b366;" parent="rY0lbp-Ri3fiWo_WKVB5-1" vertex="1">
          <mxGeometry x="200.5" y="170" width="81" height="40" as="geometry"/>
        </mxCell>
        <mxCell id="rY0lbp-Ri3fiWo_WKVB5-35" value="包装" style="rounded=0;whiteSpace=wrap;html=1;fontSize=19;fillColor=#d5e8d4;strokeColor=#82b366;" parent="rY0lbp-Ri3fiWo_WKVB5-1" vertex="1">
          <mxGeometry x="200.5" y="370" width="90" height="40" as="geometry"/>
        </mxCell>
        <mxCell id="rY0lbp-Ri3fiWo_WKVB5-58" style="edgeStyle=orthogonalEdgeStyle;rounded=0;orthogonalLoop=1;jettySize=auto;html=1;exitX=1;exitY=0.5;exitDx=0;exitDy=0;entryX=0;entryY=0.5;entryDx=0;entryDy=0;fontSize=19;" parent="rY0lbp-Ri3fiWo_WKVB5-1" source="rY0lbp-Ri3fiWo_WKVB5-45" target="rY0lbp-Ri3fiWo_WKVB5-52" edge="1">
          <mxGeometry relative="1" as="geometry"/>
        </mxCell>
        <mxCell id="rY0lbp-Ri3fiWo_WKVB5-59" style="edgeStyle=orthogonalEdgeStyle;rounded=0;orthogonalLoop=1;jettySize=auto;html=1;exitX=1;exitY=0.5;exitDx=0;exitDy=0;entryX=0;entryY=0.5;entryDx=0;entryDy=0;fontSize=19;" parent="rY0lbp-Ri3fiWo_WKVB5-1" source="rY0lbp-Ri3fiWo_WKVB5-45" target="rY0lbp-Ri3fiWo_WKVB5-53" edge="1">
          <mxGeometry relative="1" as="geometry"/>
        </mxCell>
        <mxCell id="rY0lbp-Ri3fiWo_WKVB5-45" value="线下业务" style="rounded=0;whiteSpace=wrap;html=1;fontSize=19;fillColor=#d5e8d4;strokeColor=#82b366;" parent="rY0lbp-Ri3fiWo_WKVB5-1" vertex="1">
          <mxGeometry x="210.5" y="574" width="100" height="40" as="geometry"/>
        </mxCell>
        <mxCell id="rY0lbp-Ri3fiWo_WKVB5-50" value="操作方式" style="rounded=0;whiteSpace=wrap;html=1;fontSize=19;fillColor=#d5e8d4;strokeColor=#82b366;" parent="rY0lbp-Ri3fiWo_WKVB5-1" vertex="1">
          <mxGeometry x="350.5" y="490" width="100" height="40" as="geometry"/>
        </mxCell>
        <mxCell id="rY0lbp-Ri3fiWo_WKVB5-52" value="业务描述" style="rounded=0;whiteSpace=wrap;html=1;fontSize=19;fillColor=#d5e8d4;strokeColor=#82b366;" parent="rY0lbp-Ri3fiWo_WKVB5-1" vertex="1">
          <mxGeometry x="350.5" y="540" width="100" height="40" as="geometry"/>
        </mxCell>
        <mxCell id="rY0lbp-Ri3fiWo_WKVB5-53" value="操作方式" style="rounded=0;whiteSpace=wrap;html=1;fontSize=19;fillColor=#d5e8d4;strokeColor=#82b366;" parent="rY0lbp-Ri3fiWo_WKVB5-1" vertex="1">
          <mxGeometry x="350.5" y="614" width="100" height="40" as="geometry"/>
        </mxCell>
      </root>
    </mxGraphModel>
  </diagram>
  <diagram id="gc7ce8vrb5bhUMTbKuDT" name="ner算法">
    <mxGraphModel dx="1635" dy="812" grid="1" gridSize="10" guides="1" tooltips="1" connect="1" arrows="1" fold="1" page="1" pageScale="1" pageWidth="827" pageHeight="1169" math="0" shadow="0">
      <root>
        <mxCell id="2OcLIGnFEqhdF5Hf5jc4-0"/>
        <mxCell id="2OcLIGnFEqhdF5Hf5jc4-1" parent="2OcLIGnFEqhdF5Hf5jc4-0"/>
        <mxCell id="2OcLIGnFEqhdF5Hf5jc4-10" style="edgeStyle=orthogonalEdgeStyle;rounded=0;orthogonalLoop=1;jettySize=auto;html=1;exitX=0.5;exitY=1;exitDx=0;exitDy=0;entryX=0.5;entryY=0;entryDx=0;entryDy=0;fontSize=14;" parent="2OcLIGnFEqhdF5Hf5jc4-1" source="2OcLIGnFEqhdF5Hf5jc4-2" target="2OcLIGnFEqhdF5Hf5jc4-7" edge="1">
          <mxGeometry relative="1" as="geometry"/>
        </mxCell>
        <mxCell id="2OcLIGnFEqhdF5Hf5jc4-19" style="edgeStyle=orthogonalEdgeStyle;rounded=0;orthogonalLoop=1;jettySize=auto;html=1;exitX=0.5;exitY=1;exitDx=0;exitDy=0;entryX=0.5;entryY=0;entryDx=0;entryDy=0;fontSize=14;" parent="2OcLIGnFEqhdF5Hf5jc4-1" source="2OcLIGnFEqhdF5Hf5jc4-2" target="2OcLIGnFEqhdF5Hf5jc4-3" edge="1">
          <mxGeometry relative="1" as="geometry"/>
        </mxCell>
        <mxCell id="2OcLIGnFEqhdF5Hf5jc4-2" value="实体关系抽取" style="rounded=0;whiteSpace=wrap;html=1;fillColor=#d5e8d4;strokeColor=#82b366;fontSize=14;" parent="2OcLIGnFEqhdF5Hf5jc4-1" vertex="1">
          <mxGeometry x="270" y="40" width="120" height="60" as="geometry"/>
        </mxCell>
        <mxCell id="2OcLIGnFEqhdF5Hf5jc4-6" value="" style="edgeStyle=orthogonalEdgeStyle;rounded=0;orthogonalLoop=1;jettySize=auto;html=1;fontSize=14;" parent="2OcLIGnFEqhdF5Hf5jc4-1" source="2OcLIGnFEqhdF5Hf5jc4-3" target="2OcLIGnFEqhdF5Hf5jc4-5" edge="1">
          <mxGeometry relative="1" as="geometry"/>
        </mxCell>
        <mxCell id="2OcLIGnFEqhdF5Hf5jc4-9" style="edgeStyle=orthogonalEdgeStyle;rounded=0;orthogonalLoop=1;jettySize=auto;html=1;exitX=0.5;exitY=1;exitDx=0;exitDy=0;entryX=0.5;entryY=0;entryDx=0;entryDy=0;fontSize=14;" parent="2OcLIGnFEqhdF5Hf5jc4-1" source="2OcLIGnFEqhdF5Hf5jc4-3" target="2OcLIGnFEqhdF5Hf5jc4-8" edge="1">
          <mxGeometry relative="1" as="geometry"/>
        </mxCell>
        <mxCell id="2OcLIGnFEqhdF5Hf5jc4-3" value="基于规则的方法" style="rounded=0;whiteSpace=wrap;html=1;fillColor=#ffe6cc;strokeColor=#d79b00;fontSize=14;" parent="2OcLIGnFEqhdF5Hf5jc4-1" vertex="1">
          <mxGeometry x="110" y="140" width="120" height="60" as="geometry"/>
        </mxCell>
        <mxCell id="2OcLIGnFEqhdF5Hf5jc4-5" value="正则匹配" style="rounded=0;whiteSpace=wrap;html=1;fillColor=#f8cecc;strokeColor=#b85450;fontSize=14;" parent="2OcLIGnFEqhdF5Hf5jc4-1" vertex="1">
          <mxGeometry x="80" y="240" width="90" height="50" as="geometry"/>
        </mxCell>
        <mxCell id="2OcLIGnFEqhdF5Hf5jc4-16" style="edgeStyle=orthogonalEdgeStyle;rounded=0;orthogonalLoop=1;jettySize=auto;html=1;exitX=0.5;exitY=1;exitDx=0;exitDy=0;entryX=0.5;entryY=0;entryDx=0;entryDy=0;fontSize=14;" parent="2OcLIGnFEqhdF5Hf5jc4-1" source="2OcLIGnFEqhdF5Hf5jc4-7" target="2OcLIGnFEqhdF5Hf5jc4-13" edge="1">
          <mxGeometry relative="1" as="geometry"/>
        </mxCell>
        <mxCell id="2OcLIGnFEqhdF5Hf5jc4-17" style="edgeStyle=orthogonalEdgeStyle;rounded=0;orthogonalLoop=1;jettySize=auto;html=1;exitX=0.5;exitY=1;exitDx=0;exitDy=0;entryX=0.5;entryY=0;entryDx=0;entryDy=0;fontSize=14;" parent="2OcLIGnFEqhdF5Hf5jc4-1" source="2OcLIGnFEqhdF5Hf5jc4-7" target="2OcLIGnFEqhdF5Hf5jc4-14" edge="1">
          <mxGeometry relative="1" as="geometry"/>
        </mxCell>
        <mxCell id="2OcLIGnFEqhdF5Hf5jc4-18" style="edgeStyle=orthogonalEdgeStyle;rounded=0;orthogonalLoop=1;jettySize=auto;html=1;exitX=0.5;exitY=1;exitDx=0;exitDy=0;entryX=0.5;entryY=0;entryDx=0;entryDy=0;fontSize=14;" parent="2OcLIGnFEqhdF5Hf5jc4-1" source="2OcLIGnFEqhdF5Hf5jc4-7" target="2OcLIGnFEqhdF5Hf5jc4-15" edge="1">
          <mxGeometry relative="1" as="geometry"/>
        </mxCell>
        <mxCell id="2OcLIGnFEqhdF5Hf5jc4-7" value="基于模型的方法" style="rounded=0;whiteSpace=wrap;html=1;fillColor=#ffe6cc;strokeColor=#d79b00;fontSize=14;" parent="2OcLIGnFEqhdF5Hf5jc4-1" vertex="1">
          <mxGeometry x="405" y="140" width="120" height="60" as="geometry"/>
        </mxCell>
        <mxCell id="2OcLIGnFEqhdF5Hf5jc4-8" value="文本相似度&lt;br style=&quot;font-size: 14px;&quot;&gt;匹配" style="rounded=0;whiteSpace=wrap;html=1;fillColor=#f8cecc;strokeColor=#b85450;fontSize=14;" parent="2OcLIGnFEqhdF5Hf5jc4-1" vertex="1">
          <mxGeometry x="180" y="240" width="90" height="50" as="geometry"/>
        </mxCell>
        <mxCell id="2OcLIGnFEqhdF5Hf5jc4-13" value="隐含马尔可夫&lt;br style=&quot;font-size: 14px;&quot;&gt;模型（HMM）" style="rounded=0;whiteSpace=wrap;html=1;fillColor=#f8cecc;strokeColor=#b85450;fontSize=14;" parent="2OcLIGnFEqhdF5Hf5jc4-1" vertex="1">
          <mxGeometry x="320" y="240" width="90" height="50" as="geometry"/>
        </mxCell>
        <mxCell id="2OcLIGnFEqhdF5Hf5jc4-14" value="条件随机场&lt;br style=&quot;font-size: 14px;&quot;&gt;（CRF）" style="rounded=0;whiteSpace=wrap;html=1;fillColor=#f8cecc;strokeColor=#b85450;fontSize=14;" parent="2OcLIGnFEqhdF5Hf5jc4-1" vertex="1">
          <mxGeometry x="420" y="240" width="90" height="50" as="geometry"/>
        </mxCell>
        <mxCell id="2OcLIGnFEqhdF5Hf5jc4-15" value="神经网络" style="rounded=0;whiteSpace=wrap;html=1;fillColor=#f8cecc;strokeColor=#b85450;fontSize=14;" parent="2OcLIGnFEqhdF5Hf5jc4-1" vertex="1">
          <mxGeometry x="520" y="240" width="90" height="50" as="geometry"/>
        </mxCell>
      </root>
    </mxGraphModel>
  </diagram>
  <diagram id="FvxK5fmpPBqGoshxXmYt" name="架构图2">
    <mxGraphModel dx="1635" dy="812" grid="1" gridSize="10" guides="1" tooltips="1" connect="1" arrows="1" fold="1" page="1" pageScale="1" pageWidth="827" pageHeight="1169" math="0" shadow="0">
      <root>
        <mxCell id="rkUMa0L5RHN7pk2te-x6-0"/>
        <mxCell id="rkUMa0L5RHN7pk2te-x6-1" parent="rkUMa0L5RHN7pk2te-x6-0"/>
        <mxCell id="yx77YmfgwSrMBqolKUSb-2" value="" style="shape=flexArrow;endArrow=classic;html=1;fontSize=15;strokeColor=#666666;fillColor=#f5f5f5;" parent="rkUMa0L5RHN7pk2te-x6-1" edge="1">
          <mxGeometry width="50" height="50" relative="1" as="geometry">
            <mxPoint x="179.5" y="645.5" as="sourcePoint"/>
            <mxPoint x="179.5" y="605.5" as="targetPoint"/>
          </mxGeometry>
        </mxCell>
        <mxCell id="yx77YmfgwSrMBqolKUSb-3" value="内管系统" style="rounded=0;whiteSpace=wrap;html=1;fontSize=20;fillColor=#dae8fc;strokeColor=#6c8ebf;" parent="rkUMa0L5RHN7pk2te-x6-1" vertex="1">
          <mxGeometry x="129" y="95" width="570" height="30" as="geometry"/>
        </mxCell>
        <mxCell id="yx77YmfgwSrMBqolKUSb-4" value="" style="rounded=0;whiteSpace=wrap;html=1;fontSize=15;" parent="rkUMa0L5RHN7pk2te-x6-1" vertex="1">
          <mxGeometry x="126.74" y="140" width="574" height="65" as="geometry"/>
        </mxCell>
        <mxCell id="yx77YmfgwSrMBqolKUSb-5" value="表现层" style="rounded=0;whiteSpace=wrap;html=1;fillColor=#dae8fc;strokeColor=#6c8ebf;fontStyle=1;fontSize=15;" parent="rkUMa0L5RHN7pk2te-x6-1" vertex="1">
          <mxGeometry x="41" y="50" width="71" height="80" as="geometry"/>
        </mxCell>
        <mxCell id="yx77YmfgwSrMBqolKUSb-6" value="基础服务层" style="rounded=0;whiteSpace=wrap;html=1;fillColor=#dae8fc;strokeColor=#6c8ebf;fontStyle=1;fontSize=15;" parent="rkUMa0L5RHN7pk2te-x6-1" vertex="1">
          <mxGeometry x="41" y="140" width="70" height="65" as="geometry"/>
        </mxCell>
        <mxCell id="yx77YmfgwSrMBqolKUSb-7" value="数据层" style="rounded=0;whiteSpace=wrap;html=1;fillColor=#dae8fc;strokeColor=#6c8ebf;fontStyle=1;fontSize=15;" parent="rkUMa0L5RHN7pk2te-x6-1" vertex="1">
          <mxGeometry x="42" y="535.5" width="70" height="70" as="geometry"/>
        </mxCell>
        <mxCell id="yx77YmfgwSrMBqolKUSb-8" value="内管平台&lt;br style=&quot;font-size: 15px&quot;&gt;知识图谱嵌入" style="rounded=1;whiteSpace=wrap;html=1;fillColor=#d5e8d4;strokeColor=#82b366;fontSize=15;" parent="rkUMa0L5RHN7pk2te-x6-1" vertex="1">
          <mxGeometry x="129" y="50" width="130" height="40" as="geometry"/>
        </mxCell>
        <mxCell id="yx77YmfgwSrMBqolKUSb-9" value="知识查询与维护" style="rounded=1;whiteSpace=wrap;html=1;fillColor=#fff2cc;strokeColor=#d6b656;fontSize=15;" parent="rkUMa0L5RHN7pk2te-x6-1" vertex="1">
          <mxGeometry x="282.62" y="157.5" width="124" height="30" as="geometry"/>
        </mxCell>
        <mxCell id="yx77YmfgwSrMBqolKUSb-11" value="" style="rounded=0;whiteSpace=wrap;html=1;fontSize=15;" parent="rkUMa0L5RHN7pk2te-x6-1" vertex="1">
          <mxGeometry x="450" y="542" width="250.74" height="60" as="geometry"/>
        </mxCell>
        <mxCell id="yx77YmfgwSrMBqolKUSb-12" value="结构化数据" style="text;html=1;strokeColor=none;fillColor=none;align=center;verticalAlign=middle;whiteSpace=wrap;rounded=0;fontSize=15;" parent="rkUMa0L5RHN7pk2te-x6-1" vertex="1">
          <mxGeometry x="518.37" y="542" width="120" height="20" as="geometry"/>
        </mxCell>
        <mxCell id="yx77YmfgwSrMBqolKUSb-13" value="" style="rounded=0;whiteSpace=wrap;html=1;fontSize=15;" parent="rkUMa0L5RHN7pk2te-x6-1" vertex="1">
          <mxGeometry x="121" y="540.5" width="239" height="60" as="geometry"/>
        </mxCell>
        <mxCell id="yx77YmfgwSrMBqolKUSb-14" value="半结构化数据" style="text;html=1;strokeColor=none;fillColor=none;align=center;verticalAlign=middle;whiteSpace=wrap;rounded=0;fontSize=15;" parent="rkUMa0L5RHN7pk2te-x6-1" vertex="1">
          <mxGeometry x="181.75" y="543.5" width="120" height="20" as="geometry"/>
        </mxCell>
        <mxCell id="yx77YmfgwSrMBqolKUSb-17" value="" style="shape=image;verticalLabelPosition=bottom;labelBackgroundColor=#ffffff;verticalAlign=top;aspect=fixed;imageAspect=0;image=data:image/png,iVBORw0KGgoAAAANSUhEUgAAADoAAAA/CAQAAAAbfxMQAAAABGdBTUEAALGPC/xhBQAAACBjSFJNAAB6JgAAgIQAAPoAAACA6AAAdTAAAOpgAAA6mAAAF3CculE8AAAAAmJLR0QAAKqNIzIAAAAJcEhZcwAAAHgAAAB4AJ31WmAAAAAHdElNRQfjAQkDMgmKhvc6AAAGnElEQVRYw62Za2xURRTHf7vdvsujQB9QKJYAVkoBH+EVBAVRLPLQ+IBAIIEQQjBQkEQQEyKpBkgQFIiSoGAg8QM0VMMjAQIUEh5VQA3IoxAKFrAP2tJut3R3u+OHnb29d+/cu+3imQ/de89/zv/OzDkz50yhI+JiKnu5w3lmE9+hHs8sqWygHoFA0MRO+lki08gnm9hnp+zKbkkYaqUMVeBSWMYVarhDMe88K/Fa2sJIBYfpFobqyS4dromt9IyeciiVJkqBj7kGVDf2mDA/khIt6ecKSoHgCIkaxsUmBaKNwugoEzhuQfqQwRpqBk1KTDk50ZD25ZYFqY8PtKk9ZYERVmN1RiDNsNC4SJO/RjPKsv8kdVTbk8bbuH6c/DtRt7rhMoRenSe1EwFAAi/bYFy4/l9Sn5yLrjaYVonqFGkNTywpqwBIsiW9Tm3nSe9xy0JTxR9yLB6b/hfxql7r5zyHF0nnKpdokW+aOcR4C3P/ANBCoyXlvxy2HRI9WMcdfAiecJBJ2gzkKCP1Ke9rPb+1jNIdxNhR9uZnA7yedSRL3UoCJnP7NS1MwaOkvMUQO8pk9il2ziL5nd1M2vO6LRCS2K+gbNB2LAtZgE/RrYn3pD6NnbRoH1NCblj/wZSadub5di7qoAclvKrUnWUmdQAkUMB0cqjhKMU0mJD9WcVM0okjgJtzbOKU7DeOiaQCbsoo416oQwGNFo7gZbbOsJNE9f4itc/zNouYzWhtvfuxG7dmzc8NCkO69ZbeJzhgQxNJunPQZM/PdpIATtqQltps5pFkmcLrBT6WAJYnpkBwOmrSVC5Y2PybQdFv+PaSR56FJpd50ayZg670IQ0/D6jiqRIzzDItczDdhbtThHFM4ENG0JeuBKjhJr+yX3GWDLexkQJbbNZ0d1iID2KPKQkLUGqK8ziO2Fi9D5Ops1B6KDCYGstlSzPvGpCJnLYhrYR49loojxkO6BFcszH0iGkG0lM22HvB+S9XqB7zls5MFmdszAgEdxijoWMpsUGWB0FTuB+maKEQh2bExfYIlALBBV09940N7kYI9Aa/aWdNC5dZoKWYALN0e6hd26sVVnMVZVeoFbePpjdjGYaLB9zkqky7gjKGfQzoUEAJtrKGVuAFjpOlxHiDG6G95Fr6rKq18ilOwMlGC8RJdQKulxzDgeCjkgqqlFt5qLlZggPI4JBCW2FxdutkECfCImwMfRkewZMbWCgXbDOPdB/o5gQTIlG+wkXTdwb9c0eESa5jMTGAkzwW8i3fsYMVjDfV7yaZwg1FWGcDsC3i2rop7GzJ4mAuj5R7SZD0iw64VHPnaF0s065wjK2S/gCs6pAnN7NCnW6bz9NkVrOKBO3Zw0MeUosXJ9U0A8gKxctjfLjIsMjkkygihq34I42yC9t1e4mPEgrIIhkXMcRo07UUgWADA8lmLA80vJevWcwSlnJJvvHwWaQ7tiS2GVx8rcX5vwRBqzwQ+nFP6+FhnPSJX3TbxZbwclI/vQ4+loEN4OcrNhAAoAeZJOGmgSoE0Aa00Sp76SU40fG6j41jOYK1WiUYJlMNx3moSHIyi4tUUU81B2R2OB+BRwZ6tmGkwXfhh7iP9frbi/aR9mA1qdqTl5+k08xhuzY9mXJVW+UMdFRcrOQKB0OP7ZE02XA1Uytr8HQ+0a1IiMqH6BQpJLOULmbS1wzXN7WydMpnkMKEHxG2lpFlFCPCSRPDjD+V9yIZuohtl7ZOjxRSpGfrSLuQaYAkysyhQpkX+3WkHR9xdjipy5CeQLo8aq9zVdE9oCO1v18xDsRhJG2m3gDoST4A9RRRob0N+Xqbrm81hzUHc2rjth1/yIybu4w0vF/ECeqAo8xgGi/RhXp+lystEMTL6QrwJWX0QgB+6fPxwSo0TFrMnhB+XAXYbLhIjjd4ugehbRVmGai8D19jBo43VSleflAGDEzAg8BLEd2V+jl4TZRN7ddg7XOfQjFvmrrfpoQyrlGDR1s5P69TQiLgp4xjVNFCo8yanXSnPwsUKes5poauSPQL/hF7LKKylmqeSPcBQSr5hqxA0CY/yYFL6USC5WxTTUoCuzqUEUTTSq2z3Qzbwif6drd9N1JJJt9b/O+hvbXiwU09jXhosU28g63cUP+hCuI4JjKPkaSSTCxOBD78eGjGx31uU8GfuGnjKXHE4uI58hhAPhnKLKOBI2zkr0ikQeIs+tCXdJLwUkcd1TzGx2OLG4p4epNPHrkMJxkHTgIIajjDSc6ar0L+A7tYECPmoImzAAAAJXRFWHRkYXRlOmNyZWF0ZQAyMDE5LTAxLTA5VDAzOjUwOjA5KzA4OjAwQjo+OQAAACV0RVh0ZGF0ZTptb2RpZnkAMjAxOS0wMS0wOVQwMzo1MDowOSswODowMDNnhoUAAABDdEVYdHNvZnR3YXJlAC91c3IvbG9jYWwvaW1hZ2VtYWdpY2svc2hhcmUvZG9jL0ltYWdlTWFnaWNrLTcvL2luZGV4Lmh0bWy9tXkKAAAAGHRFWHRUaHVtYjo6RG9jdW1lbnQ6OlBhZ2VzADGn/7svAAAAGHRFWHRUaHVtYjo6SW1hZ2U6OkhlaWdodAA0NzA2G/8cAAAAF3RFWHRUaHVtYjo6SW1hZ2U6OldpZHRoADQzMMGGakUAAAAZdEVYdFRodW1iOjpNaW1ldHlwZQBpbWFnZS9wbmc/slZOAAAAF3RFWHRUaHVtYjo6TVRpbWUAMTU0Njk3NzAwOa08daMAAAASdEVYdFRodW1iOjpTaXplADEyODk3QjPHBP4AAABidEVYdFRodW1iOjpVUkkAZmlsZTovLy9ob21lL3d3d3Jvb3QvbmV3c2l0ZS93d3cuZWFzeWljb24ubmV0L2Nkbi1pbWcuZWFzeWljb24uY24vZmlsZXMvMTE5LzExOTMzNzEucG5nKOEzJgAAAABJRU5ErkJggg==;fontSize=15;" parent="rkUMa0L5RHN7pk2te-x6-1" vertex="1">
          <mxGeometry x="130.5" y="563.5" width="28" height="30" as="geometry"/>
        </mxCell>
        <mxCell id="yx77YmfgwSrMBqolKUSb-18" value="" style="shape=image;verticalLabelPosition=bottom;labelBackgroundColor=#ffffff;verticalAlign=top;aspect=fixed;imageAspect=0;image=data:image/png,iVBORw0KGgoAAAANSUhEUgAAADAAAAAwCAYAAABXAvmHAAAABGdBTUEAALGPC/xhBQAAACBjSFJNAAB6JgAAgIQAAPoAAACA6AAAdTAAAOpgAAA6mAAAF3CculE8AAAABmJLR0QA/wD/AP+gvaeTAAAAB3RJTUUH4wEJAgI4BdyrxAAAC/tJREFUaN7tWctvXMWa/1XVeXW33dfxQ+6o48GkncRvC2yQbAkBYsEiZMkCXQldCc0skJhZzIJ/gN2d2SLNrECjSGh2LFjOEgTkQVDAFsZ23PiRxLG77X6cZz1m4VN1T7c7vt7NYlJS6/SprlPne/y+3/d91cCL8WL8/x6ke0Ip9X8tU29BCek5bz3vge+//x7Ly8sol8vY29vrVlLvRjJG6L52GylrGZW5N1dCiFlz8+ZNLC8vgzF2vmLdE0opfPPNN3jvvffwxRdfFMMwnPE8708kNYFlWYQxRgAQSikopUQpRaSUUEoRIQSRUsLzPDiOY96hlFLpGiO8Oh36qpIkUek0giBQvu+fSCkfWpbVIoTgk08+uZgChBB8+eWXlxlj/1ooFP7sed6oXssYAyEEnHOkCoBzbp5LkgQA4HkeLMvq2Dd77R5SSiRJAsYYKKVIkkSFYXjQarX+6+jo6K+2bR/k83l89NFH50Po888/x9dff+0+e/bsHwcHB/95dHTUJoRASgkAoJRCKQUhBAghHcroey0E0IndrPBaYSmlMQDnHK7rgjGmYTr65MmTfwmCoH50dPRXAEm3vGcUsG0btVrtT/39/X8ZHh62tbBCCCiljGD6KoQApbQDq1JKCCHAOYdlWcZrUkoQQjoU0ZbXc5zzDmMNDQ3ZJycnH7Varf+wLOuoW17aSwHGGHMcp8+2bfNS/dGb63vLsmBZlrnXQyucFTbrJb2222PZ9UIIWJYF13X7bNtmaUyd7wFKKSzLMlDRCmQtqq3YLYxWruMF6fosbLpjTnsoq2B2L+3hXox0RoEUJpo5wDk/o2C3BbW19LxSygietWz2Ge0dbSBKqYFedh/tkQvnAb2hlNJ8lFIaWsZaWUGSJEEcx7BtG47jdFhTC58VpBs+WWt3B71WUgjR28PdE0mSGFbR7hVCAIDBalaYbJDrGAKAOI479tD7SCk1y3QIp/fuFeScc/M5A/nuiTiOwTknml26N9RQ0L8xxuA4TsdaLai+6nzRbX0tXDaWsjGg2ak71s71gKY9jd0s7qMoMolKC08IgW3b8DwPcRyjVqsZHFuWhf7+fggh4Pt+B426rgsAiKLIeCNJEliWBcdxIKVEGIYYGBiAZVmwbbsjMT5XAUopXNclWQtphQ4ODvDTTz+hXq9DCAHXdXHp0iUsLi6iXC5jdXUV3377LaIoguM4uHLlCt555x34vo87d+5gf38fnHOUSiWsrKygr68Pq6urqFarODo6QpIkGB0dxdLSEoaGhuA4jjHS8zxwBkKMsY7ko6lLSolSqYS3334bfX19qFariKII7777LmZmZmDbNqanpzE3N4eDgwMcHx/jrbfewtjYGIaGhvDGG28gjmNYloVbt26hUqkgl8vhtddewyuvvIK9vT1cvXoVH3zwAebn55HL5eB53hlo/V0FNEziODYsJIRAHMcQQsDzPExOTqJQKKBWq2F3dxfNZhNJksC2bbz66qt46aWXEMcxHj9+jHa7DUopms0mgiDAm2++ieHhYTSbTePhw8NDXLlyBTdv3gRjDM+ePesgifNYqKcCnHMSxzFJkgRJknRkVSklxsfHMTIygnq9jvX1dcMOhBAUi0UsLi7Ctm3cvXvX/Pbw4UOUSiXMzc0ZhdOqE7/++ivm5+cxODiIMAw7ckeW5S7EQo7jmPJAC9UdzI7jYHJyEp7nYWNjA8fHxx3rr1+/jlKphJ2dHWxvb+Pw8BCPHj3C66+/DsdxEEWR2bfRaEAIgenpaSNgtgroLkcuHANaWNu2TRLTOKSUYnJy0nihWq12KDs0NIQbN24gjmPcu3cPq6uryOfzmJ+fh+/7HWvX1tYwMjKCsbExtNtts3/WC7qUyDLjcxXQD2VpUltEf2eMYWBgAFNTUyCE4MGDB6Yq1RacmprC8PAw1tbWcPfuXaysrMC2bSRJYgzRaDSwv7+PqakpMMZMWZ3Ff9b6FwpibW3HceC6rkkqmp91ve44Dq5du4ZcLofHjx9ja2vLcDWlFOVyGZVKBb7vo1gs4tq1awiCwFiSMYbt7W1IKTE/P48wDA109UeXJr0sfy6EKKWKUqo0S2TmO6rV0dFRVCoVBEGAn3/+2VhJCzg3N4dCoYCTkxPU63UAMGwSBAHW19cxMTGBYrFoPJitobK1V69KtqcCOniklIY6s+VBllpzuRwqlQo8z0O1WsXOzk5HIdhutyGEwM7ODu7fvw/OOcIwhBACe3t72NrawsLCgtlbv0czn2YezvnFWUjnAX3VXtBC6xzBOUeSJBgfH0epVEK9Xsdvv/1mXthqtXD//n0UCgUIIfDjjz+i2WyakmF9fR3lchmlUgntdtsozTlHHMeI49goovm/Fxv1LOa0AlrQrPXDMDRWBID+/n5MTEyAUoq1tTXUajUAwMbGBmq1Gm7duoWxsTHU63X88ssvcBwHvu9jc3MTCwsLYIzB9/2OtpVzjiiKjFeycfF3FfB9H81mU2khtRLdzY1WTAiB69evI5/PY3d3F3/88QdOTk5w584dlMtlzM7OYnZ2FpZlYW1tDb7vo1qtghCCiYkJtFot6ISp36PjIDuX7UPOVSBb7sZxjDAMjVu1V7Iwi6II+XweL7/8MqSUuHfvHjY3N7G7u4uVlRWEYYiJiQlcunQJ1WoV6+vr2NnZQaVSwcDAAIIgAOccQRCYd3VD6TwI9TyZU0opvSnnHLZtd3Cybk5s2zaMc+PGDfz+++/Y2tpCvV7H1NQUyuUyjo6OMDg4iMuXL+PBgwf47rvvAADvv/8+Go0GgiAwRst6Wzc5+r3Py8hnPJBlA01tSinjDR3YOpjDMEQURRgcHES5XDY9wezsrFkvhECpVAIhBLu7uxgcHMTo6CiOj48NGWi4ZOsvnr5LU/eFmnohBKIoUkopxFEExhhsy0LCOeIoOl3jeaCUnnrBsqAYQz6Xw9jYGLa2tjA9PY1KpYJnBwemARoZGUGpVMLh4SEWFxfht9uIowiUMYhMDcR1F0cIRCqP/u1CHVm26uScgwsB23GgpARlDDKlUkIpCOeQaaZUUuJKuYyFhQUsLy8DSPtrIcAoRS6Xw+TkJJrNJsbHx/F4fx9hGAJpcUgJQZw54NKFM8scdPUaZxTo7+9HPp9XAOB6nnGtDi4pJUAIlBBAqqxmCC+Xw9LSEoaHh/H0yRNEcQzbssCFQBiGuHz5MmZmZtBqtXB4dAQpJVzXhZQStm2fOTjThjxv9Axi3UZq6iSA4WUppXE5CAEBkDAGqgMOwPb2Nki6T+D7CIIACoDrujg+PsbR4SF4ymK6NeVJYnphfYCm8Lfmv/tw4bkKZI9UhE7jaQmgT48N3E4xBwXAsm0oKdFoNAAAxWIRzLJ0g3TKMgCiNL+YalNKJHGMZhjCtm3kcjmTAxRgDHlhD6TWVwYyaXaM49hsFIahaXyiNHN7nmfoNXuGo+91GcLS43hC6akHKUXb9xEGgSnmHMcx3pRCQJ5Doz1ZqNFoqHw+D6UUWo3GKVOkvKzhpT2hLSylhOM4iKMIMmWwJEkQBMHp9xQWlmUBSkGkRBBHEYIgQBRFcF3XQBVKgVAK6bqQKa1fyAPpUUbIGLtPKX2XMnbKFug8mWs1m+bPjSRJEAUBSMrXnufB9/3T4A0Ckzv6+vrAKEW73e4o0wn+1nnpDG/bNvKFAgAgSZI7YRgGFzqdLhQK+OGHHxrT09P/ZlnWRLFYrGhvuK5r+FjXSVEUgaVWZanwXi53SotpOV7o69PnTR1/fCTpqZzruhjM9BH6WL3Q1wchxG9RFP17qVRqHhwcXAxCMzMzuH379v98+OGHfw7C8J+UUv/gOA6ctEPTlgrC8BSfAGzHQS6XOw1upSBSt1PG4Hke7PTQlxCCfKEAISVIHJtnLcsCJQRSKQ0ZdXx8XLUs6z83NzfvaCbqHj3PrD/77DNzIv3pp59iYWkJS0tLmJ6ZOeV1zvH06VNsbGyYtnN8fBzXb9zALw8fIkkSPHn6FPVaDfPz87h69eppbnj6FP39/SgWi3j06NGpolIin8shn8/DdV3s7+9jY2MD9Xod/337Nr766iscHh6CMYaPP/4YL8aL8WJ0jv8F1gy2lmPxm4kAAAAldEVYdGRhdGU6Y3JlYXRlADIwMTktMDEtMDlUMDI6MDI6NTYrMDg6MDBUpuVOAAAAJXRFWHRkYXRlOm1vZGlmeQAyMDE5LTAxLTA5VDAyOjAyOjU2KzA4OjAwJftd8gAAAEN0RVh0c29mdHdhcmUAL3Vzci9sb2NhbC9pbWFnZW1hZ2ljay9zaGFyZS9kb2MvSW1hZ2VNYWdpY2stNy8vaW5kZXguaHRtbL21eQoAAAAYdEVYdFRodW1iOjpEb2N1bWVudDo6UGFnZXMAMaf/uy8AAAAXdEVYdFRodW1iOjpJbWFnZTo6SGVpZ2h0ADY0vOCphAAAABZ0RVh0VGh1bWI6OkltYWdlOjpXaWR0aAA2NERPaQkAAAAZdEVYdFRodW1iOjpNaW1ldHlwZQBpbWFnZS9wbmc/slZOAAAAF3RFWHRUaHVtYjo6TVRpbWUAMTU0Njk3MDU3NuneBKcAAAARdEVYdFRodW1iOjpTaXplADQ0NTNC9KBFzwAAAGJ0RVh0VGh1bWI6OlVSSQBmaWxlOi8vL2hvbWUvd3d3cm9vdC9uZXdzaXRlL3d3dy5lYXN5aWNvbi5uZXQvY2RuLWltZy5lYXN5aWNvbi5jbi9maWxlcy8xMDcvMTA3NTY2MS5wbmc3A5vJAAAAAElFTkSuQmCC;fontSize=15;" parent="rkUMa0L5RHN7pk2te-x6-1" vertex="1">
          <mxGeometry x="170.25" y="560.5" width="35" height="35" as="geometry"/>
        </mxCell>
        <mxCell id="yx77YmfgwSrMBqolKUSb-19" value="" style="shape=image;verticalLabelPosition=bottom;labelBackgroundColor=#ffffff;verticalAlign=top;aspect=fixed;imageAspect=0;image=data:image/png,iVBORw0KGgoAAAANSUhEUgAAAEAAAABACAQAAAAAYLlVAAAABGdBTUEAALGPC/xhBQAAACBjSFJNAAB6JgAAgIQAAPoAAACA6AAAdTAAAOpgAAA6mAAAF3CculE8AAAAAmJLR0QAAKqNIzIAAAAJcEhZcwAAAMgAAADIAGP6560AAAAHdElNRQfjAQkDNzs/JlL/AAAH4UlEQVRo3u3Ze3DU1RUH8M9mN+RJSHiEVyBAoJTXoLUEFdup7YBUx6L2gWKVVoexL+tUxZmOTp3aqe3gq9NaGW3VSltrxWeR1ledio9SCUVBAeURIAQCJBBCHoTNZvtHdkl2s8kmg/Sf9vubnfn97j3n3u8999xzz73L/zoC/ZANGoBMg3rQCmhxDO1aPx4CGQYqMsIwo2K/4aJyDBdKKR/VoBatdmtQqdEetQ6p19xfAsPNMNsMZUYpki2ANu3qhdHkkPYUWnmGCWKgHBkyENHosCrbbfKOLY70hcBUi11sokwtDthrlxq7HLFPRI1WAa0aRFMQyFKAgKHy5RirwDglSowyTEizLf7mcVt6n+Vr7BZVaYVvO9douf3yku4IKTDBPEuttFdUpcWCPYtfrVmtW407xW5TD26SH6vT7NqeRKaoVGfBx951VyxQa7epqSvvEHXHae0ebhW1LFVFkQrVJp12AqV22GJ494pzNVnZm4N8TAh4VNgF8c+MkxXlcr0jctoJRK0VMiv+2RnTZmjzXj/GUaLMRAOE7bRDVT+ov6fZDMFEjVyv22dCnxoImuMh2zVrEtWkWaXHzJXZRwKj7FRhUMdHfAoKjbFPbR/Uh/uFlT4pqN69mj1gnWEmW+FBY/pEoN5eIxUlEig2RFVvm0YME60w143uk+NnXha0zQ8ds9p3zbbSmX0g0GKXwUYmEhgiT7W2NKojLTfSFZ62xEa/FUDQ255wlfUucdSDStMSiNonS3EigVJBlWkUQ25TYrEN5iv3Ky0nA/Zv5LrCNtcJ+YmstBT2CCRbIB8NadTOc5nbbRD0dRu91qVmi5dcapBdfuQC89ISqCPZAuNF7OlVKega73oWo822ShMiaEfUX4xXhtVetSStDWq0xS0QjwODRB3vVanU+d51DSYrNsF1mCzocwgYLdv11opqN0uZzb221aZNsVCnz2X7u3pn9Kr0RcdjT0Qk9nZCVDj23h4rbXHCwjQWKLPfGjmdFgjI1Ohwr0rj7fUDR7HUODdpFXGWu9zvGUFBd6i3TECWu+Pm7RFhkXhOFScQSJuCBFV7URiLFHotZr52H3oTLBK1Bpnq4w7WK/JlaYk7YYFi4ZSJZieiCg2TLUumHEWyZcpFtpBsBUoEZck2UCiNLWl2RLGCTgtkyVflaK9K1co8pxWTFFgljEEyXe8rAgKmO+5VARmmeygNgSZHDO54zYiNjhNp4uBWjbG5PWhAB/su1hkozwG0GyFiUx+mIAFjVce9skdked5zBhpgllpLZco0z3E3CMm0yEFnGyDXI16Xn6a/HGtUG9tpgb6g1SNmmeWEzTabJySsNWa5sPPttNkJZ7rQ7zT2fex9J8DL1vqpEk2eNccXutRMdaEXNBjidps80x/j94dAi1vle8hIf7LTDfJOno++54QnDHaPUrekceZTIMBW1ynxhDJ3KXe9DFER83zNcgM97jw32tCvFvtJgLddpcUzPu8jS12i3VmWOW66Z2VZaHU/24uhL6sgxxilBiPXYq+rFRWJ/eq95VqFYKAxctP012UVhPQFQ11koSky1HnHi573lKlm+oQCTT7ygU2OGma+z5ljjA2WK1LgDVtP3QKT3aJCWPTk06rCbaYlTF+++X5ulb0xmUZtoraYq9wZ3YbZxQKBGIF/2uECLUlin3K5BT3kuges8y8NcgxAhqBWjfb4ssu7nK/qZDrhD5bZn0D3FWOda3enBaq8b2hCB3OsVt9l3H17NrjUAynKv5PQ9miVtnXdtAutt7fDJF0I1Pa7+6ioTcqtSyjZ6qakwY1V7c0OV+2YnVaN3c6rb3nUzX1zoRiiqq233nR5XaZghV/bkUK2vSOMxd0jINjtaPWwy1Ic1qJOYEBCAtNun/XWqTfZAtNjSWmLv7rX2hR5RqE8bV0JhB1SbkQS063ud3eKUNVsjyrHDTbaAA3etVXYWBeZdnKbjnjTvV5Jcus4iuTb3ZEEdxBoc1AwRUz4va86J6ksoEihMbbb6CX7DTXVQpO6mJ0tHvDHVJdyMWQJxE8h8U5rhIzoJljrPmekiA8Bg5Ur16ZVVhLxvR633C69YaygnYkEDmBICtEXvOpiUK/F8KQJCSV1Xu9Jv/SBdBhIPGeIN7BfNGkZdqDFPcod8Zzn1fmsBebEs7kkhL3sPv/o00XFBJHOINSBc7RYkTI1z/SZLtSynO1O6x1PWOkRb7s6wQt6Q9DTjiYf5MfbZ03aXSyOob7kMZXaRUV96Pspp68nFFin0ujEwkEq7DCqH81kKPMtT7nTxH5oxQf7RvJgg57UZHY/m+rrdp6IucIe6RxHByI2yTWz342lu1NJhZlCNiYTYJ2Is0/DJXUygmY5rqJ7xQhbbE+5FD9elKlSEb8j62qBGi8os+i0E7hSiRdTh+np9jj0X7iu32VKT9VLtKhzu7LTcmk9xi0OafHNnkWCvmGXqCp/drO5xis4ZSo5RppliYdtE1VlSWKL3b1+iivNN022NodU22OfSsfs1uqow2jXIJyyszy5CBkhU7FhSowyzhjD5YnYbpUVyUf31MuuyDSfNtNEJYbIFUREVJNGAWEHevhrskgRggpP7pOtjthnh/dV+Lea7iq9r/s8hYoNUSrfeIOUCslQ3OO2065OAw7b76AaB9SocdixnvfI/gWebAEBBbJS/m8IjVrQ1sMU/R8p8B8Xp7RfbVBJRAAAACV0RVh0ZGF0ZTpjcmVhdGUAMjAxOS0wMS0wOVQwMzo1NTo1OSswODowMOzz+xkAAAAldEVYdGRhdGU6bW9kaWZ5ADIwMTktMDEtMDlUMDM6NTU6NTkrMDg6MDCdrkOlAAAAQ3RFWHRzb2Z0d2FyZQAvdXNyL2xvY2FsL2ltYWdlbWFnaWNrL3NoYXJlL2RvYy9JbWFnZU1hZ2ljay03Ly9pbmRleC5odG1svbV5CgAAAGN0RVh0c3ZnOmNvbW1lbnQAIEdlbmVyYXRvcjogQWRvYmUgSWxsdXN0cmF0b3IgMTkuMC4wLCBTVkcgRXhwb3J0IFBsdWctSW4gLiBTVkcgVmVyc2lvbjogNi4wMCBCdWlsZCAwKSAgzkiQCwAAABh0RVh0VGh1bWI6OkRvY3VtZW50OjpQYWdlcwAxp/+7LwAAABl0RVh0VGh1bWI6OkltYWdlOjpIZWlnaHQAMTU1MzDIGTIAAAAYdEVYdFRodW1iOjpJbWFnZTo6V2lkdGgAMTU1MyWBxSsAAAAZdEVYdFRodW1iOjpNaW1ldHlwZQBpbWFnZS9wbmc/slZOAAAAF3RFWHRUaHVtYjo6TVRpbWUAMTU0Njk3NzM1OdINP78AAAASdEVYdFRodW1iOjpTaXplADYzMTAwQi46/zQAAABidEVYdFRodW1iOjpVUkkAZmlsZTovLy9ob21lL3d3d3Jvb3QvbmV3c2l0ZS93d3cuZWFzeWljb24ubmV0L2Nkbi1pbWcuZWFzeWljb24uY24vZmlsZXMvMTE5LzExOTkxMzgucG5nuD8eoAAAAABJRU5ErkJggg==;fontSize=15;" parent="rkUMa0L5RHN7pk2te-x6-1" vertex="1">
          <mxGeometry x="214.25" y="562" width="32" height="32" as="geometry"/>
        </mxCell>
        <mxCell id="yx77YmfgwSrMBqolKUSb-20" value="" style="shape=image;verticalLabelPosition=bottom;labelBackgroundColor=#ffffff;verticalAlign=top;aspect=fixed;imageAspect=0;image=data:image/png,iVBORw0KGgoAAAANSUhEUgAAADUAAAA/CAYAAABAfYAWAAAABGdBTUEAALGPC/xhBQAAACBjSFJNAAB6JgAAgIQAAPoAAACA6AAAdTAAAOpgAAA6mAAAF3CculE8AAAABmJLR0QAAAAAAAD5Q7t/AAAACXBIWXMAAAJYAAACWACbxr6zAAAAB3RJTUUH4wEJAzMloUWqmAAABaJJREFUaN7d2luoXNUZB/DfnDmaqCdqxRhTYyNqA0YbvBAU8UJbRUjw0qrNgy2xKoq0gqIPindBEazaB0VoNaKUqFG8PPStpU8GUV9sUhO0aTVNNFEbSaIx1zM+fHvmrDOZ2XPfc8gfhtmzZ62913+t9f3Xt75vcQCiVH9jztx5w25TQ2z49KPuSNURmoGjcVgj8gVgN7biS+zrhFytsQmhH2ApfoU5mD4EQjIi2/AOnsm+2yJWqiP0QzyFKwxndJphE+7Gsk5JjWaEbsr++xb/xMas14okWcEYTsGJ2b3PRWe/24rYaHJ9Gn6ZXW/GrfgrdhRIJsUIfoSHsQSzcSPex3hexZTUuZiZXT+Pl4dEpop9WIcHcb4wjYU4EltSUasftdGRcrl6/ePk/idphQYyf4xiVLEiRuzzjNTRmJ+1b4tsFs2ZO28SsdHSRLtSlRtpQmghrsWFOGLAhKooZWRgFlYIuV+LV/EatqbE0ulXafHwq/HHrMeGhbKwLZiLi3EJbsHmKrHRvCcko3QmHk8IbcR/tDDYAaEiHIP5OER09ibcJlukR9t4yIiQ+eOz32/g3ozUMFARpnIZ/iDEbQmeFUtQW6SOxNnZ9SY8gH8NiVAVO/EifoI7hHCd2wmpMeE6ERK7rtcWdeKcNkJiFmlbajfbIZVir8l2dKiY22PyhaaC/+J/1Ub1QixR5XRJOaRbUinmidX+YkzTWj0/wSNYjvEBbHFq7++GVNVQH8ZVHdQ7BU+KEXs7uzeGBTiozWeU8B1WyXHfuiE1njXwp9nvj/F3zUeqIpRzkVhEL01IXS9Gr13PpCRM4L6sg/pGqmJi8ygjdHOLOhfgIjHvU0/kOGGXnWJ23p+92FRKEo1VrYFBpyP6lJDnmVrbZPU5X+DPgybVlFAbWC+mUl/RN1IFdUINeeo5NFKtGtYLhkYqIVTGwR1U3aWDnW+3qNQ1smmZBjgDtwvJb0coCEf6CazuN6l9SSNmCJmu5JQ9yoQCpkr4W1zT4bsvFAvw7/pJagQb8H8RF7xc+H97c+rMEq4Umf+X4X3hPnXSjj14L69AN6RKYgr8BXficJzVZt1VYvtdxXL8Q/tuErGV3zQIUuN4VAQ/FgsPo9ykfAXbsUa4NqmW7zV55PqCXoRiKx7D08IxHckpu0MERzuKiedh0OvUDl0EPAeZXemF1AycKrYh7cpxrygJgVojR5i69dIPEja1VP60GwSpbbhLlizoFylCnk83sf0oEtPFot0U3arfN7hfZCGKHqnteK7fpKr4W/aZcuiaVK+S3Cvy1LPIqVMYuh6pqZrF74mUiCb9Qsh7kevUFpEU/Hc/SVWElD+E8woiU4/DRPq2b6QI9/8j7Xvn/UJJRJ/W5hXqdp3aLbINy3romG5JbZez6+2WVBVfm4i0TikckOvUAS/pnR4fmC4yeEWiJERqs2TDuR+pysQSsyu532rdKYtw8a/bKNtv7M7e/VJTUuP7anHBj5P7x+c8tCKyFz9rUW6QOD+XVNLRK/GVCKJciw/wlv1Horr1eFLE7Yo8OlfCZ/hTXqHUplbhTdwgzks8Jw44bRbByHq8kpUv2ineIz/GOInUXnGcYJbI9o3h5y1esMsUxCiTst0bRcryN7gSJ4tg5TR16jgF16la+xpNnS9FAH6R8MSXiuwdoXpDP7GZEEqzHzurF7XpV+35pMLW7POZsKtZOEmclFw9RRbfE5Lrmnrv51Gk0ypr+DYRkF8gEsj3iPOs6w3nwBWR/F4s1JeYXSubkmqAcSGhizJSS8S5vzVC2os+W1sWWf0FJkJ0r0s895YNSqbZdeJAyLEFkmiH5Jv4vTCT1uf96rAMH4ozE+cIVSx3UL+f2ClyZCvwgtgG1UynralTJwplce7hCJ3lavuFisigfCU2jFJCbZNqQm7KYNhrZiH4HjIUXyzSvL7AAAAAJXRFWHRkYXRlOmNyZWF0ZQAyMDE5LTAxLTA5VDAzOjUxOjM3KzA4OjAwc0gpuQAAACV0RVh0ZGF0ZTptb2RpZnkAMjAxOS0wMS0wOVQwMzo1MTozNyswODowMAIVkQUAAABDdEVYdHNvZnR3YXJlAC91c3IvbG9jYWwvaW1hZ2VtYWdpY2svc2hhcmUvZG9jL0ltYWdlTWFnaWNrLTcvL2luZGV4Lmh0bWy9tXkKAAAAY3RFWHRzdmc6Y29tbWVudAAgR2VuZXJhdG9yOiBBZG9iZSBJbGx1c3RyYXRvciAxOC4wLjAsIFNWRyBFeHBvcnQgUGx1Zy1JbiAuIFNWRyBWZXJzaW9uOiA2LjAwIEJ1aWxkIDApICDT3YPcAAAAGHRFWHRUaHVtYjo6RG9jdW1lbnQ6OlBhZ2VzADGn/7svAAAAGHRFWHRUaHVtYjo6SW1hZ2U6OkhlaWdodAA3NjVdLISLAAAAF3RFWHRUaHVtYjo6SW1hZ2U6OldpZHRoADYzObveBo8AAAAZdEVYdFRodW1iOjpNaW1ldHlwZQBpbWFnZS9wbmc/slZOAAAAF3RFWHRUaHVtYjo6TVRpbWUAMTU0Njk3NzA5N5tG4+0AAAASdEVYdFRodW1iOjpTaXplADE1MjIzQoZjEm8AAABidEVYdFRodW1iOjpVUkkAZmlsZTovLy9ob21lL3d3d3Jvb3QvbmV3c2l0ZS93d3cuZWFzeWljb24ubmV0L2Nkbi1pbWcuZWFzeWljb24uY24vZmlsZXMvMTE5LzExOTQ4OTEucG5nGikPtQAAAABJRU5ErkJggg==;fontSize=15;" parent="rkUMa0L5RHN7pk2te-x6-1" vertex="1">
          <mxGeometry x="262.25" y="563.5" width="28" height="33" as="geometry"/>
        </mxCell>
        <mxCell id="yx77YmfgwSrMBqolKUSb-21" value="" style="shape=image;verticalLabelPosition=bottom;labelBackgroundColor=#ffffff;verticalAlign=top;aspect=fixed;imageAspect=0;image=data:image/png,iVBORw0KGgoAAAANSUhEUgAAADcAAABHCAQAAAAJ8BcMAAAABGdBTUEAALGPC/xhBQAAACBjSFJNAAB6JgAAgIQAAPoAAACA6AAAdTAAAOpgAAA6mAAAF3CculE8AAAAAmJLR0QAAKqNIzIAAAAJcEhZcwAAAlgAAAJYAJvGvrMAAAAHdElNRQfjAQkDFC11W5DPAAADOElEQVRYw+3ZT2gcdRTA8c/sbrauSWqSJkSjYEVUKIhY8SJepAh68B/2Ioj3FiyCYHsQPXioUKQWrCAS6EERvFQqFAVRjAdBFKMSD6VViy2xTf3TNCZNNrvjIZPZndk/Rru7gszby+/Hm/f7znvz9s17TOBTW4U6LYF5ex1vVJwSdul3yoONuJNdw4XOeKSXuNCsx+thhXi16oRFQUee3E1GotW1DtvsyHp21HCX7DItf8WoUMGbHo33415R9lYaF5o33xHfcsqJ/bBXFRxZU9WkM4Fsds4WB+2xKYnrpgw5YI984cpP2qAUvWCgV97BgOe6g2uVBbluBLNq0meq0S60xTOG15XrVeVXd3bFU673U8RY7sWzK9SC28tUyXAZLsNluAyX4WJpfJsXlRL7ssVoFehPtL0VSyot7dbkT6vtcQ/ZF7/4Ydn33jElNOg12+oAq876yFFzYIcXUz1KYNmzvkgen24edjcZLObsFhgx3aCp+th28FQTu7L7caPTrZuHZqPlqJfco1LnWc2D+xwyjrCJZZDuyVp3YoumLLrGdsMY8bCZSFP1uTmj7jAI7rXT4ZRdED33c+lj08HcFe1/tFVO0fPR/phxXwmFLntAYMBjse2H+jypKhT62e02GzJkSEmQDObf9Zl5A9Hqcl0CVYQWHHWb/eBWY3Eox0xaBjkHvLfRYI553ZJRd0X7b600XPONFUWU9Me4Te6O9RNpg9a4/sQgP+3dJteUojIRJv46bWQjTXvFl552Ih6Aa9m7I7L/w8U4By+a9LsAQfo/1w53yTELAr/52pRfErqrlfTb6YloP+NCHe6gM//cuwv2tTDrs99eg25xFVjwtvqpp818/28moJxtiVAf8v5GTRtx63eZbzKlNV593htetqpWQQrtZvzGA077QCgwaymlKZsyG+dg2ZwZn/guKm1nHRcInIvfIE0lXVXyioqK+prcZV+kW9OnQ9zKrm1VaVaIa/61lmqTMtAg/+/mIcNluAyX4TJchvvPcZ3/ircmdR12rXnIGXddB74BNcImaqcGTroZVMxGk0unpc9E5NZKzbu8G7oCS0jPU6WXwFzBDypdy8m0lP8CSGmI599NlnsAAAAldEVYdGRhdGU6Y3JlYXRlADIwMTktMDEtMDlUMDM6MjA6NDUrMDg6MDAo6080AAAAJXRFWHRkYXRlOm1vZGlmeQAyMDE5LTAxLTA5VDAzOjIwOjQ1KzA4OjAwWbb3iAAAAEN0RVh0c29mdHdhcmUAL3Vzci9sb2NhbC9pbWFnZW1hZ2ljay9zaGFyZS9kb2MvSW1hZ2VNYWdpY2stNy8vaW5kZXguaHRtbL21eQoAAABjdEVYdHN2Zzpjb21tZW50ACBHZW5lcmF0b3I6IEFkb2JlIElsbHVzdHJhdG9yIDE2LjAuMCwgU1ZHIEV4cG9ydCBQbHVnLUluIC4gU1ZHIFZlcnNpb246IDYuMDAgQnVpbGQgMCkgIHILdZYAAAAYdEVYdFRodW1iOjpEb2N1bWVudDo6UGFnZXMAMaf/uy8AAAAYdEVYdFRodW1iOjpJbWFnZTo6SGVpZ2h0ADM3OD2PYasAAAAXdEVYdFRodW1iOjpJbWFnZTo6V2lkdGgAMjkxSOPO6wAAABl0RVh0VGh1bWI6Ok1pbWV0eXBlAGltYWdlL3BuZz+yVk4AAAAXdEVYdFRodW1iOjpNVGltZQAxNTQ2OTc1MjQ1aWvgaQAAABF0RVh0VGh1bWI6OlNpemUAMzIyMEJNiYNFAAAAYnRFWHRUaHVtYjo6VVJJAGZpbGU6Ly8vaG9tZS93d3dyb290L25ld3NpdGUvd3d3LmVhc3lpY29uLm5ldC9jZG4taW1nLmVhc3lpY29uLmNuL2ZpbGVzLzExNS8xMTU2ODQzLnBuZ+LcApkAAAAASUVORK5CYII=;fontSize=15;" parent="rkUMa0L5RHN7pk2te-x6-1" vertex="1">
          <mxGeometry x="314.5" y="562.5" width="26" height="34" as="geometry"/>
        </mxCell>
        <mxCell id="yx77YmfgwSrMBqolKUSb-22" value="" style="shape=image;verticalLabelPosition=bottom;labelBackgroundColor=#ffffff;verticalAlign=top;aspect=fixed;imageAspect=0;image=data:image/png,iVBORw0KGgoAAAANSUhEUgAAAGAAAABgCAQAAABIkb+zAAAABGdBTUEAALGPC/xhBQAAACBjSFJNAAB6JgAAgIQAAPoAAACA6AAAdTAAAOpgAAA6mAAAF3CculE8AAAAAmJLR0QA/4ePzL8AAAAHdElNRQfjAQkDJQGB3vueAAAGjElEQVR42u3cfWxV5R0H8E9Lawu1oOVNxJdFWHwJ8gcvyRgviTN1m2MJG3SbDKIGfPlDk6GBuZgt29iL0wUyZ4a4mYhlfzCCHW4rwzlwW4xkQwzblE3rAK2QIq2hxQKW9uwPDpfbctt7bu89PWXr9/5z7nOec57v9zy/8/ye83t+59AfLHNYEPOvUU2/uEVAjabY6QcCu1waB/25DgwI/cBBV2enU5Ij/ameSJ22U7POGC5RidGKQVBoAdM9aWrqX5Ovei9sqnDoNEmtsdHVRsdYPzQj7X+HBo0Fpn8Gp6NXjX79Kj2iultJUcGv/hkMy6VyVAqjrXFHuP0nH8RCvF+IJqDY1y0P677k+9qTpn0O0e6BO9wbbv3dfU7FZDr9QnYqxe72qErwqmVez81G40b2HljkUaPAEQ/ZnTThnsjWA1N9O6Tf5iEvJk03VwEzPe160GyFDUmTzYS+TOh6T5oGujzi6aSpZkbvPVBpdUifZ6xPmmiuAqqssQB0ecoqbUkT7Q2ZTehiP7A83N5spdakafaOzD1wv7vCrb2+M5jpZxJQ5C4PhuV/s9y+pCn2jfNNaInHwpH/Dfd4LWmC2dCzBz6d8rutvjn46fcUMMOPXQbe9zV1vRzTlTTpdKSb0MW+ZwrosN6LruyF/sTBNJ1LF1DlunCr2J2WKsp4RKDU6KRpZxYgRXmYiUkTi4p8Hk2OOJ40/cyeuEtz1rhAkaN+pCVp+pkFNFvq7aw3aqvDSZPvTcBpb2tImlhUZL4HBtEw2T8BFxCGBCSNIQFJY0hA0hgSkDSGBCSNIQFJY0hA0hiMAs7GnYLCpxr0hhEuLdhD0Lm4U4krnIuUdGpxIg4BVWosdI3SAgk4F3cab7PTKQEdGtTZ3Fcg4SoHBQKHXBu5uU/aqXOA0m8CnXZ0y9bIW0CVnQNG/uzvBVXpFPIzoRrzwq1WH+Z1puyoMBLcrCZ9xS4fASMsDEexZz2pRdBLNDV/BIpUecAiFFuoNnO2Rq4mNFGDQOCYWTER747ZjgkE3nL5ucJ8/MCwcOT5cIBCjEdDM70o3W4K48giOJy4WimMgLhsP0Irg3EqkRMueAGFmQtlRrkZppuARq/a41Rqzw1ucqV2//SKw0rNd4l6TT2OH2m+Ir+O7mFyHUb7rj/bc9pS/rPNL0wCRZY4INAl0GmvW/ETgYfPO8NSXeqUp/5f61CY0XtV/D1wt9XGeM5L2gRGmmupj9yny0JP2O8x7ypzo9vNUm+jxW6zoVsW6ki3K1LvZPRGC9cDczRp96DhqZIyNaah3DaBL6Vd1ctRaosglV5yBp9xwgEfTyvJ2ANx3MTlVhjncWvT5u+nbLYHo3zMMW+myv/tEDrswiIj0s5Srdzvs68UxSFghmr7/Czjiv4JLUaZfV75VvvNSZuSjDHXMRuzu8g4BMxU6c/eybivVR1We9y8MJXzDN60VUWasJvMsMNfszcWh4CJONjr3p/7qXL322are01IlW9x3GfDVx5K1WCTj5IRUKKv/PNjVlpotd0+YZ3fuDks3227mWF6+UzVdkVL8oxDwFGM72P/Kdt8y+d8wU7TfSM0pZNqsUQ5vuwSz2tOSsA+gWkqstQ6brtl3jDNNWHJX+wxz42ucKv2KPYfl4BX/MMsn49Q8x1vKU050xY7jHKbL5psh13JCThkvTLf7fGc9ilTUKE6LVlnguscSktZ+J02883XZWN/UvwL54krbRHY7x5XG6XKFA9rtkmpxdrVm6NCmck2CKxJO264eoGTXjMuQ3sDOBdqs1KjxdZ5z/tKTTBSvbU6vG6rBWb5l5Mmu8xW69KOO+FZtyjzS0eiNhXXZO4/Vqi1wDSVTnrZH23Xir3u9IwFblDmZb/1fI+s1O3WqPCr/jVa2On0GVxkuLIM5eVG5BxNjdGEep+x9OZLc5gk993K//VDfacOUNE9WhkbxoTOsSP9Bch8TOgDDSZhpAesdTRm+mOtDKOjDemBtHwEtKtTrRiL3DJgwd0udZkWOuhfeH3HgIfXt3c32Pxu4har/GEAc6m7vGBV90hsvsPobl+JYYlpvGE4rSn7ElP+fqDFerUFXeSbbJNxaFKjMf5FPmgv6Ouhw8Nh8rRG72arPBhjo2c5FUVxkINRQL/UXrD4HxUQx8cWoiOn1ksylk2SXN90mZTL2Jip6mi1uXwYoeAoyeUdnXQBZwet4uifpYgZOQ6jg+SdjBQO5/4WZ0341DkYfhE/z/NfALVCawC8ZWIAAAAldEVYdGRhdGU6Y3JlYXRlADIwMTktMDEtMDlUMDM6Mzc6MDErMDg6MDB7vKFkAAAAJXRFWHRkYXRlOm1vZGlmeQAyMDE5LTAxLTA5VDAzOjM3OjAxKzA4OjAwCuEZ2AAAAEN0RVh0c29mdHdhcmUAL3Vzci9sb2NhbC9pbWFnZW1hZ2ljay9zaGFyZS9kb2MvSW1hZ2VNYWdpY2stNy8vaW5kZXguaHRtbL21eQoAAAAYdEVYdFRodW1iOjpEb2N1bWVudDo6UGFnZXMAMaf/uy8AAAAYdEVYdFRodW1iOjpJbWFnZTo6SGVpZ2h0ADUxMo+NU4EAAAAXdEVYdFRodW1iOjpJbWFnZTo6V2lkdGgANTEyHHwD3AAAABl0RVh0VGh1bWI6Ok1pbWV0eXBlAGltYWdlL3BuZz+yVk4AAAAXdEVYdFRodW1iOjpNVGltZQAxNTQ2OTc2MjIxKuksGAAAABJ0RVh0VGh1bWI6OlNpemUAMTYwMDRCJw/inQAAAGJ0RVh0VGh1bWI6OlVSSQBmaWxlOi8vL2hvbWUvd3d3cm9vdC9uZXdzaXRlL3d3dy5lYXN5aWNvbi5uZXQvY2RuLWltZy5lYXN5aWNvbi5jbi9maWxlcy8xMTcvMTE3NzY3Mi5wbmeLF7+JAAAAAElFTkSuQmCC;fontSize=15;" parent="rkUMa0L5RHN7pk2te-x6-1" vertex="1">
          <mxGeometry x="623.87" y="563.5" width="31" height="31" as="geometry"/>
        </mxCell>
        <mxCell id="yx77YmfgwSrMBqolKUSb-23" value="" style="shape=image;verticalLabelPosition=bottom;labelBackgroundColor=#ffffff;verticalAlign=top;aspect=fixed;imageAspect=0;image=data:image/png,iVBORw0KGgoAAAANSUhEUgAAAEgAAABICAQAAAD/5HvMAAAABGdBTUEAALGPC/xhBQAAACBjSFJNAAB6JgAAgIQAAPoAAACA6AAAdTAAAOpgAAA6mAAAF3CculE8AAAAAmJLR0QA/4ePzL8AAAAHdElNRQfjAQkDHQt2lK57AAAFk0lEQVRo3u2aa2xURRTHf8tul12g0N0CLcK2ZdPS0iqPFgEVRWJjiG9jjFEJL7UEiqEGEgNEjYliwKAxPoJQEytR1MRojCKkUatCAh8gKVFTjVHkJZICUlq63e7u9UOX2Zm7d1+3d8sa+U+yuWfmzJ3/vfecOWdmx4YVsONmEqVMpZ5qXudV87dyDJrGdfiYQRk+xuHCDrgH82yZExpOIeOowUctPkopwj4YAmYJufFSxLX4mM1UPHgZZiWNdAmNxMsE5lCFnwo8eLBlh0ZyQvl48DGXcirw46Eg2ySMCRUwmWKm46eSUjyMHkoaMqHZjKeWMqqpYBROy+7szNjKNPrAQSsuC2nE6LxEHeEMetgIs59tjix9mmHUMT/jXvVMy5LzQkZvJ4aF2SNkDu5cI5St+fYqoTRgMuQOJv1IhjAf005EyBH83I2dfXTEvYQIM6mLiZrlZYMhxYX0obHcsG1DrPfQ2VCaI/2PjFoPLb22eKPuoVNJwwoZGadzlm6ho+El32AQt+JnoWimPYoxcWOG5RHiCf3GEs6J4SI0sVan0UUDB6PDaYymmblxd3GymdlSPNPwkgesY5kB+SL1daklyEpFeRp/6TQ+UtKVJwgYeJmLNnM+Gm9DeTRRLsk/8ZnS3slbBIXkp4nhGMFctDc06ik0SPVhdnBGav2EH8S1naeoNjdwJoTgMW6WpCN8Ka5Ps0Oaf29hUcI7Wxo6vKzmIIGoFKKZ+/AAsJPDQquApxOuSCIcAsWoJ1IFdHDSYClVhh9J1ahc4lGpg5NdaGj8TqVU20goSehw4pKKgxVoaKzAodS7cJHHs6lDh5smioUU5F26gO38IuoqaEz6WYIEpBKiH4B+Qkp9gAD9hGLdEs/Us1gqSW20cZQPhWynialpGUWGSBY6Gpkurvv4nFb+FPJ8HskGneT50CSeZJWYc/ZyWMScAtanXGA7lIftj47kwEaeTjMkf/rkCdpDfCpc/gQnRP0SFqSg4+Q5ZipeVgLAKu6K8zKNClVMVvYavIka/kiZoFkYOlTUK+4PYKOBMlLDwtChQu/aGhfNDWUNod20xNW9zZE07pyVVUcnL3NBaEaiUew4m2lOsbUZYT+XdEY9HWjnmKFRV8li4vK81Hke14hrFx+kXHU4cErFRgMaGg3YlHonTobxTHpGvY83xcxjZzE3iZYAm6RJ0hghglLRouEhhKbUBwkSkR0gMaELvCDlQbXcz1JGCPlHmtOxiMyRmND7fC2uHaxkLLdym9S+ne+HktARtkgxeC73AiNYzRhRd4at9CS5sz79GAgYeYbph+Raxl7WxxbJRtysxQvAAu5hp6jfwy4eT0hH3WPUmAhAEw8aJmgSjPzkPVySxh10i5YDjJdaqg2DiOWh4xhbRfoKY1grLeSu5wFJ82feSBgiLAsdIV6hXZLvZJ6iv1yaj+AdvjU3cPqEdisOPZaVul3sWSyWpH94kU7DO1sUOs7RQgGFUSnMIm6M67OUbzgVfRSNo7TycJyOxq94lc9WiA84zlkDFkVMuHxp0+1KBDmt1BQyymCwvwlImw354gEGsJFN2MhXMsMQS3gNWEOLwWbDOjYmekPOaGaXDDZpPZIIGl26mu7o7wUDbWk+y40NK2lmyg1CEnKOULa2hfNYQ42yLTyQgi3jBsNtYQnZ2RZ28V12Vh3mETLXLeds6Cqh/xqh3lz7e2qPgy7ccRskg4d+jzE1xN/ktzOOOkqpodzCgwRB1ps9SHAQ+ALwUEYxM/BTSUmC/y8yo2QKsdBxnvPAVwwcRimJHkaZfOUOo8RwkYscYx8Dx3UmUk0Jc5hCwZU6rhNDDz0c5wADB5qKqbnSB5pi6OUkJzlEzhz5iqGPU5yincuH4qYxSXcobogJxRCmmw460B8b7B0MoX8BwKGR5zxyQZIAAAAldEVYdGRhdGU6Y3JlYXRlADIwMTktMDEtMDlUMDM6Mjk6MTErMDg6MDBoUU6JAAAAJXRFWHRkYXRlOm1vZGlmeQAyMDE5LTAxLTA5VDAzOjI5OjExKzA4OjAwGQz2NQAAAEN0RVh0c29mdHdhcmUAL3Vzci9sb2NhbC9pbWFnZW1hZ2ljay9zaGFyZS9kb2MvSW1hZ2VNYWdpY2stNy8vaW5kZXguaHRtbL21eQoAAAAYdEVYdFRodW1iOjpEb2N1bWVudDo6UGFnZXMAMaf/uy8AAAAYdEVYdFRodW1iOjpJbWFnZTo6SGVpZ2h0ADUxMo+NU4EAAAAXdEVYdFRodW1iOjpJbWFnZTo6V2lkdGgANTEyHHwD3AAAABl0RVh0VGh1bWI6Ok1pbWV0eXBlAGltYWdlL3BuZz+yVk4AAAAXdEVYdFRodW1iOjpNVGltZQAxNTQ2OTc1NzUxcdbX2gAAABF0RVh0VGh1bWI6OlNpemUANjE5MkKpvy64AAAAYnRFWHRUaHVtYjo6VVJJAGZpbGU6Ly8vaG9tZS93d3dyb290L25ld3NpdGUvd3d3LmVhc3lpY29uLm5ldC9jZG4taW1nLmVhc3lpY29uLmNuL2ZpbGVzLzExNi8xMTY5NDEwLnBuZ292wSkAAAAASUVORK5CYII=;fontSize=15;" parent="rkUMa0L5RHN7pk2te-x6-1" vertex="1">
          <mxGeometry x="556.87" y="563.5" width="32" height="32" as="geometry"/>
        </mxCell>
        <mxCell id="yx77YmfgwSrMBqolKUSb-24" value="知识抽取层" style="rounded=0;whiteSpace=wrap;html=1;fillColor=#dae8fc;strokeColor=#6c8ebf;fontStyle=1;fontSize=15;" parent="rkUMa0L5RHN7pk2te-x6-1" vertex="1">
          <mxGeometry x="41" y="452.12" width="70" height="54.5" as="geometry"/>
        </mxCell>
        <mxCell id="yx77YmfgwSrMBqolKUSb-25" value="" style="rounded=0;whiteSpace=wrap;html=1;fontSize=15;" parent="rkUMa0L5RHN7pk2te-x6-1" vertex="1">
          <mxGeometry x="121" y="454.87" width="241.5" height="44.5" as="geometry"/>
        </mxCell>
        <mxCell id="yx77YmfgwSrMBqolKUSb-26" value="实体提取" style="rounded=1;whiteSpace=wrap;html=1;fillColor=#fff2cc;strokeColor=#d6b656;fontSize=15;" parent="rkUMa0L5RHN7pk2te-x6-1" vertex="1">
          <mxGeometry x="132.5" y="462.12" width="69" height="30" as="geometry"/>
        </mxCell>
        <mxCell id="yx77YmfgwSrMBqolKUSb-27" value="关系提取" style="rounded=1;whiteSpace=wrap;html=1;fillColor=#fff2cc;strokeColor=#d6b656;fontSize=15;" parent="rkUMa0L5RHN7pk2te-x6-1" vertex="1">
          <mxGeometry x="207.25" y="462.12" width="69" height="30" as="geometry"/>
        </mxCell>
        <mxCell id="yx77YmfgwSrMBqolKUSb-28" value="属性抽取" style="rounded=1;whiteSpace=wrap;html=1;fillColor=#fff2cc;strokeColor=#d6b656;fontSize=15;" parent="rkUMa0L5RHN7pk2te-x6-1" vertex="1">
          <mxGeometry x="282.62" y="462.12" width="69" height="30" as="geometry"/>
        </mxCell>
        <mxCell id="yx77YmfgwSrMBqolKUSb-29" value="知识融合&lt;br&gt;层&lt;br&gt;&lt;br&gt;" style="rounded=0;whiteSpace=wrap;html=1;fillColor=#dae8fc;strokeColor=#6c8ebf;fontStyle=1;fontSize=15;" parent="rkUMa0L5RHN7pk2te-x6-1" vertex="1">
          <mxGeometry x="396" y="380" width="44" height="130" as="geometry"/>
        </mxCell>
        <mxCell id="yx77YmfgwSrMBqolKUSb-30" value="" style="rounded=0;whiteSpace=wrap;html=1;fontSize=15;" parent="rkUMa0L5RHN7pk2te-x6-1" vertex="1">
          <mxGeometry x="440" y="380" width="260" height="130" as="geometry"/>
        </mxCell>
        <mxCell id="M3BuIXT7cpHWkspZqmxe-15" style="edgeStyle=orthogonalEdgeStyle;rounded=0;orthogonalLoop=1;jettySize=auto;html=1;exitX=1;exitY=0.5;exitDx=0;exitDy=0;entryX=0;entryY=0.5;entryDx=0;entryDy=0;" parent="rkUMa0L5RHN7pk2te-x6-1" source="yx77YmfgwSrMBqolKUSb-31" target="yx77YmfgwSrMBqolKUSb-38" edge="1">
          <mxGeometry relative="1" as="geometry"/>
        </mxCell>
        <mxCell id="yx77YmfgwSrMBqolKUSb-31" value="数据&lt;br&gt;整合" style="rounded=1;whiteSpace=wrap;html=1;fillColor=#fff2cc;strokeColor=#d6b656;fontSize=15;" parent="rkUMa0L5RHN7pk2te-x6-1" vertex="1">
          <mxGeometry x="552.12" y="457.74" width="52.5" height="38.75" as="geometry"/>
        </mxCell>
        <mxCell id="yx77YmfgwSrMBqolKUSb-32" value="质量&lt;br&gt;评估" style="rounded=1;whiteSpace=wrap;html=1;fillColor=#fff2cc;strokeColor=#d6b656;fontSize=15;" parent="rkUMa0L5RHN7pk2te-x6-1" vertex="1">
          <mxGeometry x="552.12" y="390" width="52.5" height="38.75" as="geometry"/>
        </mxCell>
        <mxCell id="M3BuIXT7cpHWkspZqmxe-13" style="edgeStyle=orthogonalEdgeStyle;rounded=0;orthogonalLoop=1;jettySize=auto;html=1;exitX=1;exitY=0.5;exitDx=0;exitDy=0;entryX=0;entryY=0.5;entryDx=0;entryDy=0;" parent="rkUMa0L5RHN7pk2te-x6-1" source="yx77YmfgwSrMBqolKUSb-36" target="yx77YmfgwSrMBqolKUSb-31" edge="1">
          <mxGeometry relative="1" as="geometry"/>
        </mxCell>
        <mxCell id="yx77YmfgwSrMBqolKUSb-36" value="实体&lt;br&gt;对齐" style="rounded=1;whiteSpace=wrap;html=1;fillColor=#fff2cc;strokeColor=#d6b656;fontSize=15;" parent="rkUMa0L5RHN7pk2te-x6-1" vertex="1">
          <mxGeometry x="453.5" y="457.75" width="52.5" height="38.75" as="geometry"/>
        </mxCell>
        <mxCell id="M3BuIXT7cpHWkspZqmxe-16" style="edgeStyle=orthogonalEdgeStyle;rounded=0;orthogonalLoop=1;jettySize=auto;html=1;exitX=0.5;exitY=0;exitDx=0;exitDy=0;entryX=1;entryY=0.5;entryDx=0;entryDy=0;" parent="rkUMa0L5RHN7pk2te-x6-1" source="yx77YmfgwSrMBqolKUSb-38" target="yx77YmfgwSrMBqolKUSb-32" edge="1">
          <mxGeometry relative="1" as="geometry"/>
        </mxCell>
        <mxCell id="yx77YmfgwSrMBqolKUSb-38" value="本体&lt;br&gt;构建" style="rounded=1;whiteSpace=wrap;html=1;fillColor=#fff2cc;strokeColor=#d6b656;fontSize=15;" parent="rkUMa0L5RHN7pk2te-x6-1" vertex="1">
          <mxGeometry x="644" y="457.74" width="52.5" height="38.75" as="geometry"/>
        </mxCell>
        <mxCell id="yx77YmfgwSrMBqolKUSb-41" value="结构化知识&lt;br&gt;可视化" style="rounded=1;whiteSpace=wrap;html=1;fillColor=#d5e8d4;strokeColor=#82b366;fontSize=15;" parent="rkUMa0L5RHN7pk2te-x6-1" vertex="1">
          <mxGeometry x="276.25" y="50" width="130" height="40" as="geometry"/>
        </mxCell>
        <mxCell id="yx77YmfgwSrMBqolKUSb-42" value="语义网可视化" style="rounded=1;whiteSpace=wrap;html=1;fillColor=#d5e8d4;strokeColor=#82b366;fontSize=15;" parent="rkUMa0L5RHN7pk2te-x6-1" vertex="1">
          <mxGeometry x="422" y="50" width="130" height="40" as="geometry"/>
        </mxCell>
        <mxCell id="yx77YmfgwSrMBqolKUSb-43" value="分享心得&lt;br&gt;展示" style="rounded=1;whiteSpace=wrap;html=1;fillColor=#d5e8d4;strokeColor=#82b366;fontSize=15;" parent="rkUMa0L5RHN7pk2te-x6-1" vertex="1">
          <mxGeometry x="568.04" y="50" width="130" height="40" as="geometry"/>
        </mxCell>
        <mxCell id="yx77YmfgwSrMBqolKUSb-44" value="手工填写" style="shape=image;verticalLabelPosition=bottom;labelBackgroundColor=#ffffff;verticalAlign=top;aspect=fixed;imageAspect=0;image=data:image/png,iVBORw0KGgoAAAANSUhEUgAAAIUAAACACAQAAACPHmIEAAAABGdBTUEAALGPC/xhBQAAACBjSFJNAAB6JgAAgIQAAPoAAACA6AAAdTAAAOpgAAA6mAAAF3CculE8AAAAAmJLR0QAAKqNIzIAAAAJcEhZcwAAAlgAAAJYAJvGvrMAAAAHdElNRQfjAQkEFiFLlKjjAAAYcklEQVR42t2deXxV1bXHv/dmTkggYU4gzFMERaCAdQDEguD01IKdtba2Ul+dtc/W1+l9tPi0tbW1tdT2Y62tYKWAIoMiQhGZkTCGmTCZhEDIPOe8P3Luumufc+7NzU0gn8fv/nPu2efus/fae6/9W2uvva+PUMjhBjpzqaGJk7zLudb8ZBAfY12SnzpeINmryv4QoriXqzu6AS8Q4vgmn49cFPFc0dElvoDIYGjkosikZ0eX94JiKPHum7Gej45UcquiuqNL3i7wkUqcfT2JzpyJTBTZpNlXNTzHEnwdXY92QAI/4hapX4ZbFF6I50XRt0WM7eg6tBselVpVcKs72UtXdGaSXFdyoqNr0G7Ix7KvUpgcmSgy6CfXO6jo6Bq0G45xTK6HuBWnlyiGkSDX/6aqo2vQbjjMPrnuSWYkophCin1lcbyjy9+OOE+RXA/jspZFEc9guT7K0Y4uf7tiG7X2VRrZLYuit6JXeRzp6NK3KzZSJtdDhGWEFMVlil4Vcr6jS9+uOKE03ySn3e0WRbY8UseOji57O6Nc1agfGWaik23GM0yuS1nfQtbJxAAW1TQ6Unwk4wcsqmhypPlJxgc0USUzfbA8SQA0eND9OBIBqKfGlZZgT4611IUpbxX/5jb5xTAOhBNFmqJXVZwMk203HmSM3asKmccGldaXx2SYHeL35Km0ETxkqyyLHbzMaZU2kfvpiQU08TGvqOEZw3S+ThcsoIGV/FmJI5G7uI0kLKCGhSygIWSpj2PZZkQnpvBumPoxlGKhpwu9XRwAxDPXcIjsYoCkdeYNI+090iUtk/dVShN/VBxmONtUWj0/U8P3Go6rtEruV2W5iyqVdo6ZYeo3hsPy5Dte9mkQt1Aujz4W5rlso2gW1dynqlRmpBUqmjuFOiPtoJq6v0qjkbZNROjjxw5f1IdSjQTmO9L+Eabc6SyT5zYpVo1bbU6mk31lkc+lhxIK5XoYOaFFEccQuc5XjN2NAofsD7FKrj/jHSNtK7lyvZ81KsVitTL3thkzVgNLKfV8Dqr4p6jHWhYZKraEN8IKY4f8srNJs0y1qb1X+zgUJsM6XqDOUJtBXlrKUxQbarNE0k7zkENt1kpaHg841GZw7tnA/YbafE2VZQlzDLX5flhRrKeMbvb1MOKo935sJudlJL1Gy0gmlVQ6EeNK8ZFip7mZi59OpJJKiodLKJZUUkm1p1QTcXZaokdagp0WVhEC0It8pY26BRPMXtFX0attEYgitNVqURkyrSmM4d9Aeci0+lAtCNSq3hUeZWyTgZFNOsWBBN1mcYpyl7Exwqz/v6GKT+Q6URFKQxSXqvfKiaA3q5P2ZukBkk5/uc4N2VFjbVLU4NEl421rr96D/ibY76r14IKJNoGvdRF4SLIJfLWLpPtIsgm8m6THkIAPaPQg6cfIl5oOCSpOLQrTe+U91idwB9n4gRLWski9KIZp3EhPfFgUsoxVqloJ3MINpANNHOdfbFI5pnI7k+gENHKQBexVad2ZxQQSgXp2Md9gOv2YzRXEATVsY75yy8BIZjEUP1DORt5SpjnAQfJEFD3J9OJPv1SMbZanIEazXT1TxbdV2nQKVFo+01Ta1xWHtdjOaCXAh6lRaSvpK2nJPEe9wSKDZnU3/mYwzN+puWMAq1VKA0+76vFXST3PDHc141giDxwJ4fJ/xEFxF5JKoHe94Eh7WfRQGv90pP1ccsw27A6LRuYowZ8x0s6qYk9yEPj9ykE3myYjbT09HPV4kFpJ/U7gZlBtau/V/hDeqwTH93hhFH5XWoLkHeNiAnHqyjT5/LIYBYliBLif9Tv4Sqx6f4KDr8S57O8NShMODZQmmGGOmlgKFT/U2B6chYFGPhEzuo4NBluoYaOox/OsMtRoMavl+iTvGP6MvSyX6/0OAr9ZOQIOs8VI26R8D3scJsNGQ48AnFCacFJA+EGeeL3ohzreCMEqjnOULOKpoJJTvMQflNo8TAHZ+KigkiPM5XVFiA5QTjYNVFDFbp7hXal+I/uwyKKGCirZzE/VrF/DHpLpRSUVlLOKnym/Ryl5pJNOBZWUsJBn+Uw15D56kUIFlRTxF54XWyYAi2uk4eP5e3PoSaArxTGXR6XVZjpkrtHF7u6NlDimRT/pMpmWOHxXsaTbYq919bh4uti9s9pV6CRRlRUujppiayqLMtd0mmYPpibOe/q1Hud5+6qcr7BUJ3VlqyiS4/TmUsddSq2+0HwroCv04uA2xzx8KeKwsqQHNfflgCiGKg38SRhT6lLBYaVmezWPgoAoJgtDuDS9V05ob9ZwRgRFob1Xxy+xxcFQ2CEzXJdmo71ZFL3pJY/khfVeXTr4WGnEYcQFRJHDcLldFIJeXWo4qSbgyaQFRNFa79WlgDJV02zSm0WhvVflxirXpQzTmzW02V+Rqnw5VRF5r+JUDF8A9ZxwccULDx+96eEwv5ooUjQ8FPRMmcoklsVieq92hHGzBpDOE0wn1fAq+Wggj7lsvqiCiOUb3Et3fKosPpoo4I8scC1bO3GUfCGWdrTFTLWw92QEBfiB4VDRn/fdEU4XFDfwWYiSHOPaFn+dzgp5/hMGxKLpFRHEXqUyI0TgK0xiCKcBP9kMcq1JlJLXuu0H+OjnkU8ZeZwFYJoiASb6cQ3rWsi9RIWxDmdULHFqAfdYBJxinHaYO1BPI+DjNp4ly+WWtdjA91vBWnzcyvMe0eYWn/AwByBsLMUXmGcLLDS2MtsWdDr9oT+fSDdZoZb/Q+GxEF3SwmIrg4D+7Av5xK89VtJCoR+bQ+bzKn5gFqUhnyjl8hbfMF6FULwSyyhFr7pzj8cPqtjITruN07hG7leyiipSuFYEmM8ZYKqi8U5MIo5GIJsbSPOMHW/iGKuoBLKUO9idTw672U+5zGQH2EED/WWvRxKT2WlfJzCFIR7DOk25FqfDg2FaOfDZJwIYTpHczaUzMIr9cmcePlKUMnJ//kEskMW/wjxTyQ9IAEZwMOQzjTwO9OSQ3Pk7ycA0quXOEruifh5Xa8EhP34zxiAEhvMNe0xNVA74JZQDI8iSO6VYXBcmQL6JZTQAd3B7mLcl8wRDgWOKBDnh53Z6Ua7cCWPIAHarNZYhNnUczDci2QXnj9Bj1azHY5gh+ryBLTQBvSX2t5o8/Nwkq9MWC7mH+zgouVRzGKDFgqWRAlQb7tq3uZvvKu/mOCZQpxaQsugEnFbBy0MYD0A3l/M/hCg2hAniCmINVUA/RdG3s8sudgCl7GYo/yHfT/Fz/soKZfZssBcVDrRA5PZRYL816FUo4A3m8Tv5Hs/dxPCpqkkXAFYK541lHAnAIfZEUMOqWP5GH75InGvqC8BHA6t4nSZgYrOTA4BdHAeS6CN3qjnNLDXTryEPuIaBcmev7YZ/l+f4fgh24uM0P7BJ8S6KZTKdQl/y+Yj9MpmP4XKOEoi4i6UfG4FNFEuvm04PTlDEXDoxKIwYfBTxp1hO8QQvkRJGFFWcpBKIZbS4/SpZQxOQykh5so547pDJspr51AE5srBTTa79lmqe503SDMIceFsjRRTa90vJlVWvQfQhn/2sEFH0Y4byzMczmgXAWdZKtXuTwwngA3bQM2Rz+7AojsBqUchkryK2zex9sFrMW8a3qJRvH9ITyOBduXPEeydfWNwti34NdsTgFPXGPczitHx7x+4fX1ULhX+M/FVendTHMPqrdbMSdlIJDFJhXFvtURwMB7I4wFRZymtkJYVAH66T35yOImYjyBximMlL1LOJT/mCnTqYYewXxZ9KElXAHo7KoLyMrpyluX8EHdk17FFaKIxw5pBLKeXyOcHvyQLmKml/y376JgkfbWCuMo4O2oW5XS3U/iSK7Xi9WCW/32n3xK/SIPc+4C3FdZv1VpK6d4bpwLV8QLGq0RlWRLKl+DpOeRCQp+jCh/KtgKvsp5+UYjWxWa1uv0gM4GOeIkUzWn65Cz5ekhzKuAuA/mySe6fJk+t8qd4PlbCeoAfLPWr0vj3jCNzxc6M8De3ruUqN9E0yPY1TavIKobEVLKURSFV2wJGwcaChYLFTJuNUmw4eU7GfvckSMpAlJVymlrmvYzxXeuQ81smonKKID2E/pDBOTZu7bG9xPF1V+wWxiq0AXKZetyHK9ZW1SrdfaVs781WQfPC9MWILabGPZ6BnCKOrpk5RpErXB0v5gTqrsVXMMrkbjK9MkhdWSxzu51QMzbEoN+SdUi18ld1j96p+kaJUf4Zdn3KWyL1OhhOnkeAGS4e2cIqis4rg36XaI11F750QcpupekUQB3nPlvtwabMiI6C5NahWERed7SFQy3zP7eED7RnMYptYJ8lMlVI0sVf6k48hpsPAKYo+aspZq+hxrDJnl8tiymBPvbLInqh6qYm0WAzm1sJiswS4xXGjXa0tRmhbAKOEZ+5hu9yNE1H42a9IeIa5T8gpigkqyOeY8hJliATr2CBFy3SECAEUstzuhH0U5c5tgzf8mAqHGmU7HwtY6RHY2FfKc8q2kKA5/DqAc8qJN1D57zxEcaWMvLMGFQ12pZ3KGvSyMFdKnP9E0R4W74cJSm5ZFEF6nSlOhbc91HCMmiBXS9/VcVv1SqHqpnKJIk2N/TwOeW7I3SWZJSqlGEApi+2gpDhmigDL2R+1IKBKBQD0Ey/VMTNWxn5nf7ne4OlS9rFe+qfPnE7NyvZVbpjTFHqIoop1Mq+kuXfwcoi19lVvusvdrVFxiiA+VoFlA+y+1sBSVxyIPo3lLB97iuKAUrgj9Q4Ds7LD1OgppNqDKJ/jI7lO8/CAvS5tMVHNRQH/Q7TIVUvak8UNsIUPXRW9XMpcG2JfyDm1Oe8qvcZniqKXzB9VnhoatikzppNz/y4HVRhijiirGjHOo0Wp2mc0WHrueZa6IriTVIzoXs++WKmiD7tqD7+5CSLIvyrY4Wk8vae6V5bLkb9SHG7piux+JoMmWtSzTIQZp0jgUteqitZ2+2zOq+GjTk2zCZpx+o1sgi+pochDFAXsVt9GOHrFORaLPdBbHbhUzKk2igIOSxPEcL3McoUscjzXXTkSqtjuMeGiBqvBOE1RBCeXnZ47ebYYcfljHN6OT1XXG6pG4fJ2OAPjsBqwQeXexHJHpG6m4bhbYUQfB5Avy6EG49Si6KPMlo2exd+liFKcmiEAGnldNLqPGyWvRja3UVMAFKhGGGB7sgF2OJRjnGEKHPGMKzuqfPCKcWpRTBA3Pp4KJ2iGAXRRTwN8qiavVEapF7dHmJtFrqjIVDVzVbPYEWXaVdWpzHOr9VlvxqlFEWSaJXwGLl1RZOwt7+3Y6b9W0eMcxU+2tFPw4zo1d12pWOUae20lgAHKdLDI9djL1KQap29wyg+KItXBNN1YYpxmMVT5L6CAN9W3q1Rs8IF2Cog9oXwUk5Woz/K68dyVhjmQ6xmtvl56kmKcQVFkq6qd9nCCNrLF0Me9jQGyVll88YpcnfHkfNGgWu1vTjSU42qj4foY5Tpp9OQAPBlnUBRDDabp7lY7HGa2jsWqYb4iOz1VbNc5RY4glp4Rn+Hpp7sxBJvYLJQ/gRlq+O41VKffERixwmMl7pxir8I4g6LQTNMromq3oUoTjeGx2fhFlhLqThlUPkbzW95iPt8LGSsTQAyjeI63WMCTKtREn2t1uXIPNLBYVS3WcaDPJo+Ak0o1NXdzunvj+JX4gotso6aXWgKqdERedGed8mX/yEh7RHnBA7/K4ik5OaKWzcxRo92EnzE8J5ulG1jDbLsLJ/N3eedRJqjfdFIb55p4xsgvQW2as/iDfTcYSlHOzWYBMtggicftVtOiOGHa9gxUa1RHjVWvWLUeVsm1QBK3G3v8LCzqWM8cV3BRDCN53hVVUc6rduM8oyr8gPHLe9TZF4sdud7tIYrZKqdfmI/3p1ASl9qdr4taP1jk2O7WVwV5vGywzmx2SMpqMhnLnxxHewQ+taxXLj9I5AGOhQgEOcR/0YvrVaDLbw0/9iC1M/E1hyjGcFT6WCACcYLapP+2aZReo+JSnpakuzmHhUWhHJYTbL8f2wtA+4yuCl9UFf8bTyiReX0+UCP1alVRr88q7lURPjsNbeXjIXsva4HrqMAEXrDDK3Ml2KqHWuBa3RwREmhP06cZ0NTzqeIOGpnPSkf2jbxIIVOp5FWHkg0a5w1Mkwi4UBhEpijW4foIBQ9MZbxyCw4iSx1LZDGPcmZSypv82/G7Wp7hNFdTwF9kai1WjHMQg7WtEjyop4SpRka+MCudbi9XFxaHadct/Cf/Y/c0y26noM/8VmMfci5zeFatkzs/DTzkenu4NVlnWX+htMWXg7dTVSjZBvMwnFYih5IQRT/F/5JNT95Wi9A1PKKK342F6vkKHiWe61ioAs3Mz8qQobSR4GYV6Pho8HammhqXOMys1uEWo2UDn2reZgoxJPCycf+vjqD5y9mjUkv4EpDGtx2btQOf7R5u5shxmZoongma6mlqrvjAYXy3Bj5+71HkrXyLzoCfOcY2/eWG4mvGdE6oJ/YyDoD+PO8xVEq5sw2iuJqzXr3Cr7rmHhVS1FqkqN7V/PmMueI0m2acpbXLrqaJGL5rTL3v2eKKZYrHUPlRxCVz45vqYLF7dMKraozeGHX2XRRRs6jhX0yWrjeaXUbnnxUij0R+6xhEAaulM/c5hsrPIyhTKLwoudRxh074voqO+VLU2ceoamznO8r06qGOhLCo5YdhYr0zWaqereNxw2h8TmJ7SswqtBJBEn/I7J83KH06J9rcgX7MI5etvGAQ9STmqj0kDbysVjG9kKPiaixOq1jQ5qGygF1s4BHPY6EiQ7Ka9NeZi+A5Kgb+2VZE57uRyDAGGjn4eMBQlx9FoPlvUvrdIo/PGakp5JDdpoPWs5RWe9c8hauPIr3vtGk6dWOGcTrJIbXEEBp+HjaU5BqP2aYtGK+snX+aSd34VJIOtkCAW4fhar+JRUHEE2ASv1TBZfW85BHAED1uUwP2V84X/0WNzbZQFxM9je0ONTzZisHXyyDx1TzWpoFr4muSbxVfN5N8PC2JRZ4RbdEggd8Yk98bTo9RCxitQhEtzoacgFuP4AFGJe4/TrlPEsvaxOKC8HOfQZc+cJ+d3SJu4qRBy9qnkeL5neR5xoy9AfiKJDbyk3Z54VTDEbPX4deIDDGO2eeddtm+mcZapQ5cOU5SYcmvtcPrRpFr2AtfjjKfJIdd8+cWOEkk6KFMgA/dg3agOu3mLVfkRGvRzVCXdfy4DQZ1HyMwuZaHQ/4ZVKQYqJr9JbdzSfss2mKdAiTyjJqsGnmljf9gNlI1k8VJ+feXaKGtUo/DmP2qHXd7RFlFDh/3G+pyXZucQc24zaBpexjTptzuUVbpvV4P/FmSK5jehhdNM9y1R9TO1OgRw+OGU+jDkOsokeBXauh6zpbaOr0r6tcMNXwWRcxupz9lSuY3aq2jnhfDHLjeEoKe3EOeXhPupEIeua+1udvobpyiGN4Yby0y1WKTRVXU6jNROaq2eW+v08zwnqheEq+6noXFmxHscW8NxhorZ8VR+iviWKDo5M3uB7or2nGciVG8wse9xobn1Sq2tr1wq+HjzI1gC74XnlD7mX7q7ls3K62/KCozfTJHVDHzvP8UsY2I5UE1jC0Wtbgq74XL1ImxO5zEwc9PlUp6PIrsRxh+xzK+dgEEAZCs9qNZWLwSRbN1Un+CUOo8/6S7WvQtiIpV/LcqXj0/azNfDY1s4481SiNyBTnxPZXDr82ka5Vvc1kUTpKurFTs8k+tNMZbiyvUccmNPBVFDhPVessac4j8Wknpe1FkPUL5Rrc4YjEuBGarBcn3orBvUpRbqIybILCo2l2dH3JSxUBHjsGqJy2+CH/R9ZGKvOsdxVGplayXIOxUxuIPiGK84vTb1FajyHGDRHI1Rb1LrDUoVtGaA6KySJarrTO3k9EsCj9jVUzE+ijiLJPV/J5/Uc7rtNglUYRd1Gk9kSNf9f6BDG8WRYY6buWc2soYOQao2X17G3cERYqPVbBIThQTarnacJXGnc2iGK7U3Pao2nScyuHoRTrZN1918EmRHeHiwHYVtXMFPfzAnSrKYWkEZ+i5EdzqXHbRTtGrVH8Q1z0qk32nGiJjucZPD7X1LLrZI0NtSjh70UTRwDoCmysSovKJ6FkkjYlwhyJX0UXcDFecYl0bvAitxedVVNfSqHynI9XK7Ek/E2R4RDd7wGAlwPcv4l+JH1bnqEbDLSBfnaCU5VdnGpUYW18iR/BItqY27x1sDYoUt8iIan1EzyL41c7eTVFOg4dkxB24qKc9W2ySbV3njL99jBxb9LGaY+zAoHw5TKe1yLD5fGXIs64uFLrap9rUG0GPrUE8T9tunCX/B5QwFVsclCvNAAAAJXRFWHRkYXRlOmNyZWF0ZQAyMDE5LTAxLTA5VDA0OjIyOjMzKzA4OjAwOHilcgAAACV0RVh0ZGF0ZTptb2RpZnkAMjAxOS0wMS0wOVQwNDoyMjozMyswODowMEklHc4AAABDdEVYdHNvZnR3YXJlAC91c3IvbG9jYWwvaW1hZ2VtYWdpY2svc2hhcmUvZG9jL0ltYWdlTWFnaWNrLTcvL2luZGV4Lmh0bWy9tXkKAAAAY3RFWHRzdmc6Y29tbWVudAAgR2VuZXJhdG9yOiBBZG9iZSBJbGx1c3RyYXRvciAxNy4xLjAsIFNWRyBFeHBvcnQgUGx1Zy1JbiAuIFNWRyBWZXJzaW9uOiA2LjAwIEJ1aWxkIDApICBuO8/3AAAAGHRFWHRUaHVtYjo6RG9jdW1lbnQ6OlBhZ2VzADGn/7svAAAAGHRFWHRUaHVtYjo6SW1hZ2U6OkhlaWdodAAxOTJAXXFVAAAAF3RFWHRUaHVtYjo6SW1hZ2U6OldpZHRoADIwMO4mRTQAAAAZdEVYdFRodW1iOjpNaW1ldHlwZQBpbWFnZS9wbmc/slZOAAAAF3RFWHRUaHVtYjo6TVRpbWUAMTU0Njk3ODk1M2csQyEAAAARdEVYdFRodW1iOjpTaXplADU5MTFCDpV+/AAAAGJ0RVh0VGh1bWI6OlVSSQBmaWxlOi8vL2hvbWUvd3d3cm9vdC9uZXdzaXRlL3d3dy5lYXN5aWNvbi5uZXQvY2RuLWltZy5lYXN5aWNvbi5jbi9maWxlcy8xMTgvMTE4ODMwNC5wbmdqg11+AAAAAElFTkSuQmCC;fontSize=15;" parent="rkUMa0L5RHN7pk2te-x6-1" vertex="1">
          <mxGeometry x="623.87" y="652" width="38.09" height="37" as="geometry"/>
        </mxCell>
        <mxCell id="yx77YmfgwSrMBqolKUSb-45" value="" style="strokeWidth=2;html=1;shape=mxgraph.flowchart.database;whiteSpace=wrap;fontSize=15;" parent="rkUMa0L5RHN7pk2te-x6-1" vertex="1">
          <mxGeometry x="491.62" y="562" width="33" height="30" as="geometry"/>
        </mxCell>
        <mxCell id="yx77YmfgwSrMBqolKUSb-46" value="DB" style="text;html=1;strokeColor=none;fillColor=none;align=center;verticalAlign=middle;whiteSpace=wrap;rounded=0;fontSize=15;fontStyle=1" parent="rkUMa0L5RHN7pk2te-x6-1" vertex="1">
          <mxGeometry x="488.12" y="571" width="40" height="20" as="geometry"/>
        </mxCell>
        <mxCell id="yx77YmfgwSrMBqolKUSb-47" value="内管数据库&#xa;信息" style="shape=image;verticalLabelPosition=bottom;labelBackgroundColor=#ffffff;verticalAlign=top;aspect=fixed;imageAspect=0;image=data:image/png,iVBORw0KGgoAAAANSUhEUgAAAHIAAACACAQAAAB9jvXkAAAABGdBTUEAALGPC/xhBQAAACBjSFJNAAB6JgAAgIQAAPoAAACA6AAAdTAAAOpgAAA6mAAAF3CculE8AAAAAmJLR0QAAKqNIzIAAAAJcEhZcwAA6mAAAOpgAYTJ3nYAAAAHdElNRQfjAQkEIicZ3f4hAAALn0lEQVR42u3da3BU53kH8J92tbojJBBCSFxtJLCRwYBxbNdObew2ME0bF09m4iTTzvQ2zaS5zDSOvzjpl2QaN2nGbeJ42g/pl7pxpmnS2k0dh2kujUOwMZdiMAZxMZYshC4Iobu02u0HLbDArvailVah+p/RjnT2vOc8f73353nf/2Ee85jHPGYZBTN89/gj/nnR2Gf88WtDMqRIkZBCIQvVWqjSAgtUKhESVSqEccMKjBtxSb9LBlzUqc+YCePGjBmfeyQrVFqoQq1V1lhpmSWWKLuSg5c/r0WUWA5O5uSQLl3avesdZ3Ua0OeSgXyTXGy5esut1aTRSgty8i+bRL+zWrQ4qU27Vhdmm2RQk2ZN1lmnUXUOqSVCrxbHHXfcUSdMzDzJQre7zzbr3WrpDJO7Hh1OO2afPd7KjGr6JIOqPWiXjepnPO+mQq92b/uhH+lMl2p6JEut9rjfsVqVQB4JXkWf017ygrOGcnG7Cts87azR63q1/B+j2nzD+1RMj2DAJl/xnkjeCSU7Itr8tS0Ks6VY51P25Z1GOsdhn82uGdzmBYN5Nz/dY8ALHkhGJXHDE/Ixn7Il62IedXV0yphBgwaMYtQ4QopRrEK5ckVX7Eg0Lkofh33d88LpkSz2557QkPFDwiZMGHdRmzZtOnTr0mMw9k0EEREEBBAQFFSoXI0aNZZpsMJyC4Vi32SKNl/1D0ZTkyz1SU+qyeDWwwYNaXfUcS1adBkXNiEsYkI6s4sCQQGFggqF1Fqr0TrNlilTrjQDW7o87VkjU5MM+rin06zEEzqd966DDnrTOWERUZGM//83IqBAQKFl7rDFZissVSuYVtoOT/rna624lmSBBzzn9jRudcbbjtjngDM5oTU15TW2ukuz9dakcf1Rn/Bq8hK02A9StmO9fugpO9TOMLUbUWuHp/yX3pQ2fs+iZDcJ+qiBKRO3+qYPWT3r9OKx2oc8q3VKO/s9nqxwL/Q/UyQ87xn3WphXgpdR5T5/5/wU1v48saUFHtaTJMmQV2xXnm9u16DCw35sOInF3bYnJvlXSZJc9HV1M+zyygYBdZ7RlyRbvpDI4oDvmkhw+ZivzZFCmghV/tZYAqsnvJBoUhhIUiP3pdWl5A8bvJGkVl4hGc828cjijIv55jElep1JeL7s6q/xJBPP+Tdanm8eU2KFjQnPBxL+mmSM0OgzVuSbSVKs9FlrE36TkE0gSdmOGvU9m4TyzecGhNzp+0ndMm8kbniSkYwKO+xP5lh+rvCn3kzYH2RJcrLn+Q9/kOch3WWs8YdeSjoQuIFk+hPTUr/nQb/yMz91ILcBmQxQZIuH/Kb7MglJZDb7rvQBD/mYI37hJ07NKtWQW233fs0aFWWWNHMXQ5FmzXY474RXveqYYeE0PQCZokBQoVK3u9/9mtSqyuY22forq1Rp8rAhXQ543SFnDRo1dqOHJQsUK1Ks3Gqb3G2rGmVKsx89Z+2URYEyZWo0+bCIHseccMpJHYYMGTZi1Gha8YqgYsVKlClVZplbrdVkvcUxZ9c0MR2SV00MokGDR8CADh06dOl1Qa9Bo8ZjzsgJE7EUBQoVK1KkXLVFqtWqU2fpdN3+M0PyelRYe90oZMywYaMKjAujUAhFSpVm2ojMFZI3okhRPqdrqQNxM7gqI0dIaWHqnGwxYUXu60mOMKBVUNPUF6XOyT12+Yxf6sk3nxvQ45ee8GF7Ul2YOifDunzbi37XDs1uUZJvbhhzxmEve0m3xYlCPJmSnES3f/K8zba7V7PVeXNrRb3jiH1+ar/hdBNl0rqOec1r6m1wm83usn6W2uZJhB2z30HHHNWeWdLMzWzXbrcaKyy3ziZ3WhuLMOY6d6OiCGtz2EGHvaNNdzY3yjYvunU76BWVKtVrtl6jRrUKBQUEBbKiHBUxIWJCWKcWLd52xHn9+tIvnLkjOYkx3bqd9pqQkCKLrbVSg3r16pULKhQUjJEOEPuMiMY+IyZMmBA2YcA57dq1aXVSjzHjxnMxnctNrbpsSpcTVxZ+BlRaGPupVC6gRFBIEcaMCxsVMeiSPpdcclF/3CqTnIYDc910xBs3ojPHd88Sc2N91TzJeZLzJOdJ3myYJ3mzYJ4kZnoPUC6Q0sLUJOviA9NzEOWWTZ/kvckXy84JPODe9C9OHp887NE5WneDdnkzV0HYFp9Tl29GN6DOE07mMtLc70W75pD3tcJjXtKfXqQ5XZJRUR1+YJfqWXVf3YhC1R7z7zpSWJslyagJvX7lL23IC9VCizT7nL16p1gQkYDk1T4m4HVb03hUVFivX/iR/9WhezoOprRRqkadO33A+1UpTKvv3u/uy36KzPOjQEitxzym0377vOVd7TpyEmG+HsXqNFjhdttszX6t9HQKXa2ddgo7pcUZ7zir3Tkd16/lzxgl6tSrt9JqazS5ZbpVY/o1q9A66xDRqUu3bp06dDivW69evcZS3KFItUWqLLHUUnVq1aixRG2ueufcNR8BdVf60hGDhgwbNWLUsAGDBgxjzJjJoCylKlQoV6pYiWKlypXNREBpZtrIEiUWX3MmEtvbM+lWLojt8AnMzkhqtjqCWaKT7OGpMDzjm1umh0jqTix1Tu51yDb35Hmckxhh+7xuo4emS7LFl9TZ4YPuyWhr2Exj2F7/abdzvjx9kgG85ZgX3WG7nVYJ5tVbMLnF9xW7HXJK1KLUVS6dQliAqJNO+onn3O+33aNa0awX4LAxvfZ6xR7teuOsywHJq+jTp8V3LPY+j7hbjTLlM75we8KQQV32+m+v6TGceinEdEgyGYvs967vK7HWZls0W6JSpQU5LcZR/S7pc8Eph+x3xECsr80Y2Ra5iIhxBx30bWXWWmOVVerVqFKpUmVW7q8hl2IB2W7tzjrrjJPTl0vIRb0acthhEFKnxiLVFlmkMrYxu0y5EgEhgdjSwXFhEWOiRgwaNGTQgD4X9OrVo0dHLldF57bxGNeqNe7vEsVKlChWpEBhbCUyYRERYVFjRo0YMTrtucuskbweI0b0zegT0sLcdDXOk5wnOU/ypsY8yZsF/+9IJhtez+39BMmsi2MTTzLxCD80/W1EM4pgku0zcWziSSZ2CDXnQcokEyzVnPB83NwlnuS5hHm50R9lt6FvVlDlj92R4HzEuUSXF/hikg20fZ6xbA42UQH1/j6pLMZTidqYAtuTCpwM+7FH5lCcGSr8lt1TCJw8mDjZQj+fIqjZ6Rt+Y44U3Cr3e1bnFNb+TGXipEGPTxmFj2rzLY+mJeE0c1jj9z3nvSnt7PeR5H3CYv+WMkx90cu+YOesC5+y1E5f9LKLKW3812vlo64XArvfczak8cAzjjviDQeczkZWNiME3WKrrZqtT0vn4IhPeDU5SQI+7m/SlnTrcl6rQw54U7vxHEu6hTRotsVmyy21JG1Jt897fipJNyjxSU9akoFJwwYNO+eo405o0ZmVOF8wpjoYslSjRuttUKc0Y3G+r/hWKnE+KPZnPp+FQE04tlfnWpnFboOx8zfKLE7u/ylXY4kayyy3XIOqmBZh5sPJVl/1j+nILEKhj/p0WgteEuN6wcxJv+oIMYXzyX0+JSqUK8uhYObXfCezEMI2/5JCxW4uHVNKn06Fpf7i10LENmK/T2c/jQjY6Mta57Qccasv2TTd6WCFu+a0sPTdqUUD05cI/4gPWqVqTkyhozGJ8O+mJxGemdj7Ax61WUNyzc1ZwAXvOeplu3Mt9h5P9Tb32eY2t876WuZzTnvLPnu8PVOy/fEIaLLBOk3Wabxu7VXu0RN7AcMJR5yQhVttegHwass1aNCoUaNVyeZwWeGSs1qciL1Ko+3KQogskJsof3nsDS9LrLLaSsvUqs34pSiDOnU5F3spSldszcDg9M2bmdfbFCoUUqlWlQUWWKhCsRJRJbFw+ogCI0YN6NOv30WdLhkXFp6rr7dJfvf41xRdHZ9eHdfG93vzmMc85nHz4P8Axj/YH98VfuEAAAAldEVYdGRhdGU6Y3JlYXRlADIwMTktMDEtMDlUMDQ6MzQ6MzkrMDg6MDBQmFW7AAAAJXRFWHRkYXRlOm1vZGlmeQAyMDE5LTAxLTA5VDA0OjM0OjM5KzA4OjAwIcXtBwAAAEN0RVh0c29mdHdhcmUAL3Vzci9sb2NhbC9pbWFnZW1hZ2ljay9zaGFyZS9kb2MvSW1hZ2VNYWdpY2stNy8vaW5kZXguaHRtbL21eQoAAAAYdEVYdFRodW1iOjpEb2N1bWVudDo6UGFnZXMAMaf/uy8AAAAYdEVYdFRodW1iOjpJbWFnZTo6SGVpZ2h0ADE0OBUm5gYAAAAXdEVYdFRodW1iOjpJbWFnZTo6V2lkdGgAMTMyKUPJggAAABl0RVh0VGh1bWI6Ok1pbWV0eXBlAGltYWdlL3BuZz+yVk4AAAAXdEVYdFRodW1iOjpNVGltZQAxNTQ2OTc5Njc5Bi/o5QAAABF0RVh0VGh1bWI6OlNpemUAMjI0MkJGUrTFAAAAYnRFWHRUaHVtYjo6VVJJAGZpbGU6Ly8vaG9tZS93d3dyb290L25ld3NpdGUvd3d3LmVhc3lpY29uLm5ldC9jZG4taW1nLmVhc3lpY29uLmNuL2ZpbGVzLzEyMi8xMjIyNTg1LnBuZ3GHrTEAAAAASUVORK5CYII=;fontSize=15;" parent="rkUMa0L5RHN7pk2te-x6-1" vertex="1">
          <mxGeometry x="518.37" y="647" width="36" height="40" as="geometry"/>
        </mxCell>
        <mxCell id="yx77YmfgwSrMBqolKUSb-48" value="" style="shape=flexArrow;endArrow=classic;html=1;fontSize=15;strokeColor=#82b366;fillColor=#d5e8d4;" parent="rkUMa0L5RHN7pk2te-x6-1" edge="1">
          <mxGeometry width="50" height="50" relative="1" as="geometry">
            <mxPoint x="537.37" y="643" as="sourcePoint"/>
            <mxPoint x="537.37" y="603" as="targetPoint"/>
          </mxGeometry>
        </mxCell>
        <mxCell id="yx77YmfgwSrMBqolKUSb-49" value="" style="shape=flexArrow;endArrow=classic;html=1;fontSize=15;strokeColor=#82b366;fillColor=#d5e8d4;" parent="rkUMa0L5RHN7pk2te-x6-1" edge="1">
          <mxGeometry width="50" height="50" relative="1" as="geometry">
            <mxPoint x="640.87" y="642" as="sourcePoint"/>
            <mxPoint x="640.87" y="602" as="targetPoint"/>
          </mxGeometry>
        </mxCell>
        <mxCell id="yx77YmfgwSrMBqolKUSb-50" value="规章制度文件" style="shape=image;verticalLabelPosition=bottom;labelBackgroundColor=#ffffff;verticalAlign=top;aspect=fixed;imageAspect=0;image=data:image/png,iVBORw0KGgoAAAANSUhEUgAAAHIAAAB/CAQAAACZSl4oAAAABGdBTUEAALGPC/xhBQAAACBjSFJNAAB6JgAAgIQAAPoAAACA6AAAdTAAAOpgAAA6mAAAF3CculE8AAAAAmJLR0QAAKqNIzIAAAAJcEhZcwAAJxAAACcQAZRpURkAAAAHdElNRQfjAQkEHCtRrql3AAAL7ElEQVR42u2deXQURR7HP5NJCAFCIuGScAnBgGQFIldwMQir+5SV6MoCCs/dt7qKBPDap3jwZPUhuopi8EBF1NVVTsVFvEgQjCwEEAiLoIZwJhDIRRJykMxM7x+pVLpneq70hJmE+dYfqa6uztS36/r9fvWraggiiCCCuMgwOb0TTS+iCfF3Ab2AldOcpNYzkmaSmMII+tPexUsIPNgoYQ8bWE2Fu6ydWEwRSosNtaynv2uKsXzq92IaD5vooW2aakSyhCn+bnUeQsH5iNIPyEBpuNRm+xtvCtoK/2MzB6nzNxenaEsqCSJewzYyKWMCE4gAoJhb2K732OXsEtV9gaXaCg9AjKdMlLaE2bQHIIKF1InUh/Qfm4ZVZPiQtv7m4BYvyAqZq0rtzRGRvqwxUT0PDhBXJbxGjb85uEEkSSJ2kH+r0sspFrFOjeNNI0kTcSJ2hqP+5uAWnegtYjskLQAbNslHjjeNJEMIF7FqLP7m4BZhhIlYqSZdd7xtJGmlSL6l9v7m4BaVUqoZIOk6hbpPHhZ/u3Odvzm4RTEHRWwM8d6Q3CfeTlueZKi/WbhBLd+LWA/+QWeZruhlDlXFd/AFdwAwiA9ZxFdUB6yAbiWT4/QB4DbMLGYPNhQi9PQmLYkk1nG5iNfwExUBSxJMDCZGXhXzC3WAmSFEArCWO5wNoPdR4Xfx2jdhTWMrta/c5TzOGX9Xkq9htrtW2EkWHeglZ82WioOsaxAMQnVuZ7KTkaQyFYBqtlEVwH1Ti1CSiHZM1MMFMkkQJAuZybEWYutRiOZLRnhGEtQNuQ4rVn+X30PU6s2ULaOGPIcb2bUVI0iytSDU0NNtCEehSiqqAYqmkwzlBu6jOzayeYVfZXoI3YmiljOc9zc595gtZMDj0tCgxhUsldYyhT0MFOkDWMSvFJDHRkbq/t9IOjRjqaPIcpRdm1KTYdzMAo3GOYx53EcnJvOANNHHEse9bFU91Y94JjAcK9/zNfspb0ayHsJZTfbndc47yPyVpJGFzS41h3FAJGOZwyryqJV3yknnYYY4yM5G4YOaDGUqj3K1vLZxgp6EAu2Yo5M/juVs5kqG0dHuTiQTmMApvmMzOR79tsIpjmhS2jCIGnKMDHt6NTmNclU9FTGfwXzjUKsneYcCj/U+K5Uehlzu0tRZGkWc5BFNRenWpDckQ1kvi2ZhE9djAiZoCBXyKr/BzBRO6xI6TRbZOs3ds7CXLrJ8U7CgoHBMGEFckPSmuVrkRFHEK7zBOQAymMkzxBFGKVt4iR+xAquB11RFqqGA/fyHbRQQxlDuIplYr0WRCFV524n+HOq+X3vXJ9PoxmCOksYPKml/PTsYTEdyyaFapq6hggeIJ4Q89rORbM5yQdzbxBZ6cSO3MZTOHlMt5wMK5NU3bOAm6viUU74lmcc9tKPaYV2+QPXjDVD4ii10JYRCHbGgjiMs430GchXh+oZEDUwo5JKlynmavzCWSv7rft3G23myjjIvcldz3OX9Gvaxz8sSNKKEzz3LeEkI6EGSrQVBkq0FRkmG+VzEbgYYsQyMYjpXUMNe3tdMyB2IooaywFmvbirJGGZxv1gBm8x47hYzYhemczvdqeJHnlfZCxoRBoHjHeTcMmBiDBnSHaY+pGGmA1PZJcRmBYWdDNE81YURPMkG1jOXeNo0S6kNayH16Mx8zjjoB6U8xpdU26XuZgj1et8kXmc/JSLdRj6rmKxrWGkGkt411xB+x+Mkq+zUhcQQAkTznM4gdg0rWMVIxtBZ475gogdT+CO5fE4mJ5pMSaHYvXjuLclbeFe1ulvFW6zhBcaKF9CAUrYwnigAEkl08dvxPMoD7r1TXaCQJSxvum1AT2leq2qKe5hGGJCistopVLKS8UQwi3O6am8Vv3JC1W+Nh8P0VJXacHO1clrEylnOK+QB8AUP8wR9MFPBDpbwHdXAm1h5QdRm/bNnOcxX7OAwbRnJnYxQqdRG0M79crE3JBWWMIAEjrGIb+QsaOVdNjOCKA6pzIwK71DGY/TCxDn2soHtFMi7OXxGHClMpr9Bxygb6fLV+4Qk5DKVaCoosUs/quONZ2Ml6cQSQhFnHNTsKvazn7dI4GpDHpnH+JYq35KEMq+U5iLpyqaPs2xmswGKHiIooLcWBEm2FgRJthYYUZqv5A8kUEkWX4glg3qYiaTW/ewV+CQjmMFDDAJgFmuYy1kA2pNCCv0oZxvLdDUEkwf28oAgeTVPcKuUGUOYymGeoi3JPMg4IcGMZzSpmrXHKGK5ltFY2UIm+YHgTuFMaW7HTI476AKF3M3HmtVLBYWt9AdMdGM0T7ONArEWXUsOr/NbR1c/w/CJz0Ai85ikkvvPiz2WnVkqdkmpcR1v8x7XkszlGkJhxBHHdA6yhkxD/rXlnoiZ3pEcx3v0lVd1rGYlzzAMQEWxit0Mpx0A4xnndASPIokkSr2Shu2Rz8t81vRe7thczXyiaoq5zKUdMIMaVaqFzdzJZSxwsPc0WHdOS0uPb8IhzdY5w81VkdNCHat5ngMArKEXjxADWMjmDT6jFHgOC09p1NkqjpLOHn6kI8mkMNRHm96iRZtxAW9I2niVgcRxiqWsolKkXuCfbGI0URwii3yRWsuLnGMuPQihhBy+JIscqd5uZzlDmcRN9HG/P8cNdrjv0971yf3cSgwlYk5sgJXd7HbIe4HXWE9/zBzXcUErIp0MXmQUiYa83Y/yqXtDmLejayGFXuTOE3YgfSic5CRrDVD0EJeE7Bok2VoQJNlacEmQNKI09+Rm+lFDNl+r3M0AwrEE0naZppI0czPzGAPABd5mvhCzQ0lmIgmUkM46u03VLYxkbx7ir9JRN5zZnOAlTFxDKrcKpWoKN/CgZp0ilC6MZhRWtpJlSPfwGe6V2kasJr0NU9nroAvkcztLyLdLXS80hGiuYhbr+IkLKChUsJ0FDHEvWnsNL7WQrWQxnCqN+yX0ZR4zVCtRtWLtvwcrHFywIQWFtxjD7+lDV9X6dAdGM5pUdvMhP0hR33soVEr3UhdwtS+yJ6M4y07Vv0nkXdUuAoUMPuFRhy3wFnKIk9pFjUuVqo48yg2Ytk7wsmrHAkTxrdiq4WJPsyuE8L6qKRawgBjgXrt1413cTy8Wy9NU7EMZVT5VmvfSTUPSoNJskm4pCuksFG/wYwYyUxg/cvmAFeQD8wkjVTML28gji2y20ImJJBPvo9213eno213Y1/IzNZxgnso9AsKZxELSmC3ssPWI5FnOYsHCefaxmOlcqXqlffkzn/jkLK4MjYlMtyZdvU0zHaizs4QPoCdn5JEUrmEmgQGEcIoc3XfdhgSSGGbIDHKEjzR+X172yY48z242cb2BIniGEAPBHl72yYn8HTMQzU1uFsWNotkt6c4F9IaTibo1w5R9keGc5C6OADY22JmtWiCcN9ed3MkIytgQ8OdlGSAJWWT5u3i+wSWhNF8SJEPd3G0pB5sAKFiw6An7+iTDSSKReLq2hL0CEhZOcUwjcLogeR1zuFFHO2wZ8KAmzdzPfLr6u6QGoNPB7Enew6JmPQfAL9CSTOJpSTHQTztTiGWAvCriZyz0lOdhOiUZzhx5oNuBAD+3DswslSS/YwG7sRHLIv7k+rFx0kXlYMCfQAjxnBSlPaCqv0GcclS11MLAUHGsXQ0LDWzCvVgYJsydCsvkKZhwRqoTSuM4qz3Eth6n5TmNgYzLRNnPac5W7iv3KBQ3LlQ09kmzPHay1IAl9OKhoZ5Mgmx7JjKWZOnw8lNj1kaSNrloE2FoGehioRgrZiCKRHYBc3hG5UmSQ4b+Y/NFly1mlL8ZeIDGgSeTKCKlbUdB4TwznD02TZqJP2oBp2eH8i9R2loeI5yPVWbvudq2qBbAi7letOiBxJBtaKNY88NGNSmEA2ZGYWIjUZj4mZU8y1qtccz5ifYHyOCQ3ocpAgYRpDJYUs5mH/lks9FuQdgBkXzk03WK5g02h5OcbFSS5t7Dq+V/ZaKAq+xJ2SvFFWwilPgWbGs9xwr7DXPOv/wynLgW9uUXMFHKq7xk75ThnEQUvVvYN3wACvklkPxOgggiiEsW/wdtvAmzevtuqgAAACV0RVh0ZGF0ZTpjcmVhdGUAMjAxOS0wMS0wOVQwNDoyODo0MyswODowMCWfPKIAAAAldEVYdGRhdGU6bW9kaWZ5ADIwMTktMDEtMDlUMDQ6Mjg6NDMrMDg6MDBUwoQeAAAAQ3RFWHRzb2Z0d2FyZQAvdXNyL2xvY2FsL2ltYWdlbWFnaWNrL3NoYXJlL2RvYy9JbWFnZU1hZ2ljay03Ly9pbmRleC5odG1svbV5CgAAABh0RVh0VGh1bWI6OkRvY3VtZW50OjpQYWdlcwAxp/+7LwAAABh0RVh0VGh1bWI6OkltYWdlOjpIZWlnaHQANzgzKswMMAAAABd0RVh0VGh1bWI6OkltYWdlOjpXaWR0aAA3MDGf6rdJAAAAGXRFWHRUaHVtYjo6TWltZXR5cGUAaW1hZ2UvcG5nP7JWTgAAABd0RVh0VGh1bWI6Ok1UaW1lADE1NDY5NzkzMjOdRjdVAAAAEnRFWHRUaHVtYjo6U2l6ZQAxNzc0NUKZqmoJAAAAYnRFWHRUaHVtYjo6VVJJAGZpbGU6Ly8vaG9tZS93d3dyb290L25ld3NpdGUvd3d3LmVhc3lpY29uLm5ldC9jZG4taW1nLmVhc3lpY29uLmNuL2ZpbGVzLzEyMS8xMjE4NTg0LnBuZ1lgyEIAAAAASUVORK5CYII=;fontSize=15;" parent="rkUMa0L5RHN7pk2te-x6-1" vertex="1">
          <mxGeometry x="281.5" y="645" width="42" height="47" as="geometry"/>
        </mxCell>
        <mxCell id="yx77YmfgwSrMBqolKUSb-51" value="" style="shape=flexArrow;endArrow=classic;html=1;fontSize=15;strokeColor=#9673a6;fillColor=#e1d5e7;" parent="rkUMa0L5RHN7pk2te-x6-1" edge="1">
          <mxGeometry width="50" height="50" relative="1" as="geometry">
            <mxPoint x="302.5" y="645" as="sourcePoint"/>
            <mxPoint x="302.5" y="605" as="targetPoint"/>
          </mxGeometry>
        </mxCell>
        <mxCell id="yx77YmfgwSrMBqolKUSb-52" value="网络爬虫" style="shape=image;verticalLabelPosition=bottom;labelBackgroundColor=#ffffff;verticalAlign=top;aspect=fixed;imageAspect=0;image=data:image/png,iVBORw0KGgoAAAANSUhEUgAAAIAAAACACAQAAABpN6lAAAAABGdBTUEAALGPC/xhBQAAACBjSFJNAAB6JgAAgIQAAPoAAACA6AAAdTAAAOpgAAA6mAAAF3CculE8AAAAAmJLR0QA/4ePzL8AAAAHdElNRQfjAQkDJgTamVzSAAAS5ElEQVR42u2deZxU1ZXHv1Xd1Us10OxrN80iahAhBCEoKgloFGE06kBUnGiiiRvRcfmESZQx0URkJoIfI04+7qgxhqhxQY3igqIGFxBQNkWhgYaGRqD3prur3vzR1afOe/XWqoYin+S8f273ve8u59177u8s9xb8i/65KSett/pzLFGqMbLd/QRFGMYQYtQfnubOYA0H2MaNRLI9cgDyuJ2dHOAjxh+O5op5BwMDgz2MzvbYARjHvkSPXqZT0JfDgZvrTEki1Y2ybI8dgG9RnEgNpfOhZ0ArBxOpHLpke+wADJRRNNN66BnQRF0iFaJbtscOQG9J1cvHOYQMaFaytpRQtkdvmofVNB96BrTKDIAScrM9fnLVut9Oy+FgQLWk+xwBG2FEMaCC2KFnQJwaSXcmP9vjJ58iSVcGfz04A3QzRUcAA/KIJlJx9h8eBmyTzSZ6BDCggMJEqpXaw8OACmFAvnA/e9SJAmFAXfDX02FAcrPJDw49O5ySs7A5HWUoHQY0CNzIOwJmQDF5idTBw8WAOpoSqdzg2LvDqVS24oM0HB4GNNEoDMi+NjBAbBoNwYFwegxoFk6HRQ/LHvWVVHJmHmIGNClp2zeN9zuSwkohqw+uCXgzwM5k1qqEzcAsawNaClXaagK5XhU40xCuoYw3eMwiXVsVGC4hN7gO3qEMSG7E21IY0I0rGM8G7mN78Kp78SYGBs3MSZkHDyVMUAYfZFkMduUj6cu1lrw8FhLHwOAlejhV4LwERidMjBFmKpNDG+2WVFRwWHYoqQoZHLDk9WFKwl4xkaODMyBX8rrS1ZJXQTyRyrY6VCBQLKYWZht1E/kQclbbnRlQJZtKYco03yHrPqmKZIeiShOwMqCr9K3JWU1yZkCN7Pb5Kba/KqUNFJFNKnLRBAZLXoMy4vhmQK3s9pEUEZLEXNlmQCelCViB8DDZ42qc9URnBjTIlArTz5KXtL5GsqwP9lWagHkGhMR/AdUC3gMwoElJ1WGWjbBBKszJsjo0SBjQaAHCet5WOGsJzgxoUQamoTLR2iipDeRkWRvoLymrKpRHd0lvcgbJzgyIUSXpHhZZr9dbb7JHIbVB11kYoPeurc5VuOkCm8X93cVi+GhWQmVAWgpVx5BWx6ssXzkqi7OVvekx4HOpssiy0vWeW5pF34D2ClVYdJJi2Z+a3azFbgyoFFFnhUIxBSx6WuTD4SRtktsu6LSNkjCoMQUk+2RAjTDACoUMxdNoFhmgUUiVJU/DoBrnKtwYUOcChbaJfMimNlAgDIilgF0Ng1yMpW4MSALIVCiUXHGFWdQGCpUmYGaATxjkzgA3KJS0vmQTDCdnX4tlmus5u8PNVujGgBb2SdoKhWqVNuDlG+hCaUCzSZg+DPAhW5IMsGoCGgZtdHOauzHADQo1+NYGTuE5lrOEiTZtF9iK0Dx+zpu8zUJ6eTCgt2zBzRYG6H1rm1sV7ibDzRgJm0oXomo+aAa4+wZ6MI8TgTLmM1X5lXtzKtMoJUINn/Ac69Q0ncQv6QwMZSt3uMYiDpD+N1oYkIRBLW4wyIum0Jiwt1XyDVNOH9YlcuJc4lLDCPYkyjUwLfG/Qn7MKqnZwKCKxXxTGPq4/P9dj9n1v1JyrWW2jKQqkVPHKW5VuMNYZ6tQUvkMORsc0TpaIXMZC/TmXhYy2mRL7Ml0nuUCQoSZxTny/z0eIS89JWVVhTQMqnarwn0J1NCYUDesUEgLnRJCjhN1J2soTaRH8BC38EPOty05mPsopju/UBj+GVdnV46aH9bwKJ8wyIsBtdQmEIAVCul9t5SIo7rZyALGy5c6nsddJnU35pOrhOJ7vObau3zVJ2t4lE8Y5LUENBQqMeVoG+wETnCpYxm/U9+xi2qxgkXM5R0FU/SesIXZKfBWU4jLGafqipnykr094AaDvCif10TMPGiBQrcpIfZOClLUVMAdHFSl257nGUkEKOYCylNyyznTo28z2Cul4/yHKS+PFyXvT5loqzk8JRW9YQE8R7NJdfgeV42gkJupMQ3wrya36vfYYcrdwGSPnk1imyq/kkGm3E68J3m3pj98gN9LRatTpP0MNagGLnatJ5f/okVKr+cYS/5PaJDcnUzw6NVo2YQNDL7iJEt+Lz6VuXFpZgy4lpg0U2rJy+WuhO/NwGAL33KpJ4eHpWQTF6XkR/mr5NfwXdc+DeV9NfzdTE0pUcbWRG4z/5YZA84UwLKb4Sm5vXhDdeU1F+g6hC1qMXW1KTFBoIvBIhc9oA8vqTar+aFNmSQMquXkzBgwRg4j1NiexzhBDSzOXEeBcw2tiVIH+XfbEvk8JzVtZ5hDPV0UTjRo4nrbCIZTqROMeXxmDBhGhXR8im2JS6hXk9ce5BTwilr//R3aOkdqanFgUgF3CyMNYtzhIHovEXmzNdNDHf1E1scdxFwef1DfZBMjbMqU8ZWUuNMxxL63iC6Dh20gWg4306TaetBRDfuNo44QmIr5QCqb7VCmP++qbr2gNPF2Ol2+bQOnObaVwxNSyzr6pORfbtpKX7Qp0UYhHlUIJUNzTT6vOkKhJJ2s9vGYTUTJnZK7lcEurc2kOVFur2iH7XQ2u9Xw32eIYy0aBi3KNIYpzJNKejtHg1yt1Nt9lo0pwguSt8xVwR1OpUgc8/Y1gS/V8NelsEdTVM3Im70H6E5x9ki6hGMc1+8jLJZ0N+40haREFepb4RrQvFfQf54JdYzgPvXFt3MNq11GNFwWh8EOLwZ40yyBQjG2cC8jHSZVmQpXMlisBFR/vhBBeolrW4WJwCwDg3vl45TJScW2xXGe4/t5jOF+tkmPm8UIkwGdbrLdGOzkcSbYLobJMoENWrhBZsvR7JSJfZZrWzkslhpeTbTRk+dV63Vc7jALo0zkz6oHbTDoJDKmwabV1/4VnufMlNUc4ial9VWJvP+m6G11nrjsfnn/73QGOvGQgtvN/MIWahXzfV5mf0o/11mU+LQoxEV8rjqRBD1vcoHFTtRJfUGDjxM62jiqE/85oDR4e5orb6+iOxHmKRUqzgIbJ0xPfsRyQX7JJ8Y6Gy0hTRrC9XymMFj708gHXG1SbI9ijcpfRBHwbWHAXlfpDfAreXc1vbhB6YgGT6YEa5VwEytN4Kh9pqziSgZ21PDbG/sRK2waa+FT5jBYVuZUvpa8g1wFjONA4u+vPRmQNLN8wrWqJoOlpukcZhh3sNHmozTwDhc6gqQMqSfnsdRmusXZzHyOIxcIcauatjs5kZEiA2o8D7gn7Q/7TcP/mGOlTIRRLBSFVz/VLGHqoT7QW8zpPGMjcAx28AjfJo9OJrm9nMmiUDVxumvdYQWG9bOJsYkShZzMH9llU2YvjzHxcMWsRTmR+y1bTtuzh2eYxDhlsYnxkpRs5QLXevOV1ph8KhJs68xUXjTNi2SJBYw53G76CKOYR7nN/nCAV3lCoYe4lLEaL61UYDKwtC+FGUAPZvIWtTayfjNzGJ7mVSAZU5ijmW0rihoFjelnt6vZDGCO5b06rqGE6/jIAsfaxO9afuaqXHUg5ZBLDiHT004lXMaHNh1Mfe701M36sVKVb+Vx5tpuwPW8y0zTBqx71tZbX+Tn/H9ffsLxhDBokkAk/Vcc6MdwjvIY3hdM4UvP1mbygMCdFvbRy0Zha2EtG6imXZkLkU8O7e65MAWEiLOShzPxDCeHv8THt9Ur3f5p5We+2utsIwdS24r56tHTyn2aJnXmMV/D937WONoCrTTN4kRJ/4mzMLOzrRHuVKAmkyfGVb5bLWJpBzGgTX3KwCZ0rbL4ZvZsDITMz++wdg1q3H1Wbtw5hzlqAm1gt4jMsMlxESIfiJPHIEcT5GPukToWeov1Lh7nWsppIQzETW75FuUhLhULUmf+h0peD9B6gsab7AAf8Q3yKUw8Ubqop5ju9GAcf3L8brsDuyduchFztTzKGLrTne6mfhRJ//IZxVr1xvrgd14NMxm4vvRQYrpxPRtddoG/BA6mPEq5zCuU96lduH3KFR6hdxNN/uN3Lf5jD+pjwuR7XB2M+ZzN8hRRWclK5Qw7Nyj/yeNZqWszk7krRQc4yJuc4RpLOEPcegYGT9v4KxyoSHlyDeodrXAQZjRPpWxaDSzmJP4sf28Jxv0EXSTmtQYmE2ICL6RYI/bzGMe79O5Gk0bye3/zMJffqu/ZyhxHh2cp8yyBDQatfMC5ROmh3FyL0orRKFMy6DcAdGYGK1MWWjm/coxPyeduJUsOcpMfgHyVyeDxgIOG3YWf8mlKZ7ZwXcIWM04sBi3MSGP4kK8Q6Idi5BjAbNPaNjCIsYqZDv3sarJSVttEJlhomskB9Yrt/QARJrM0ZTru4x5ltfm5MKeS49JiAPynfL1KFZsQYgQPipUxuexe5lTbTX0gb6tyFe7BN2P5XBX+OCWQBWA4D5uEi4FBEy8xUU30iLIJfWgbDuGHxojgszrK8pnMUvEjtj9V/J9tXMFIPlOl1jHSqcGhyhNs8BUnppTI4WqbLWkNMy2H5/qyXvLnpX3jnHaXp9bSjUtMA2t7vuBiG+1xEttVmbftUWkv5VM12MvZNmXGSeRvckr90sb5MFp9O7t6/FFExQ2tsD2fWMZtKYa5CkbZlLxQLNNtuCRlS4zygBJpDVxp891C3GNqqoaHGWX7fafLFrYnoxCV2dKWU6RHmDE8abFT32hbbraSWnEWmJ17OdymVlQrv7YFGD1ZLWWaWcaZju7y26XcJtcQSi/6rgzNzaUSZRrvKqvRClvIU8A9akts4nq9VH5gAjMPOpwHPk2MkjFuc8VV+oqNTI7WJoPt692D3unFQmnzgANw787TapT7k9tzGRtUxqsO3yzMA1LGenrATDq+9K2MjlQNEeHVxBkeZUcp+TTHoUyZKZhnA4PabGolSiqu5jp2OfA4uSt8TLlLV0IKb1UHv+NRUauyQXphuC/ZIOlzHUKjypmlSg1kQBsD9ojpsJxZbHRoYIwYoGM85Xprl6EOsRZmdLI4LCLWsJwLTaU6XqHdLDpMQTIzreY6dibSe9ujX8JcynbqWe8SvpCjbIMVtgBJ0yNS9r2MnFXHihOswebQlZWOUy6zuS7oYzqfU882fpz8OGGO5WTXkML+bJTKF3tenTNPyq52PVDjRWNFo9jveiahjaK8Lu1+5nrJ1xBO5uhgc3O6KJbNTPcsfZlsSuVpqcLtdL7giQrnm4AUXSvt1nsG3CfIHxciTJevvotVnuU3iowozshTP17wyH63E+BCfxMBHmWav7H5Y0A/5dNb5uNerl3S3U4uAY1elK/Cbre4H31K0DbWSvosfxDMHwO+I1F7zTzr49K6r0XS5jA5bbt8T8W8Zb7uCmziedmBBjprfUEZkMd5MhV3uIQoJqlWbaanpL0IRoma1cgnPt9ZKqGRBXzfD+v9MKBE4fClVPh4I84SOSk2ME11KJcLxSuxy4dTtY0qWCPp0zoiSA7gCrERNnqe5Wqngcqi93hasRtDVIj9owGsiklj6kF1BjUD0ocdNjLA51sRZRWuYkwa7d4q6nlToIDXUgnMNXiiI673OEZZfhcEAA9TlZb+h8B24TIFvNYGUqlzFevLGZo5A64XLbqeSQHe66rOdu3zAWQ1hfmdiiu6MdC7cJ4CbelZpBVFVbjCpwHvkL1U2WDeCHR05TtKtf0y8FfUsP0vmd54OUIpGLcHfLerMkjHmOd7PQ5SxtkYNwTucw6LAihuHnSLVFXrYZOxo6nKFNnA1b4kSE9lCjX4e1o3F58lfupWjxOtHtRJHVVYlcb5qwj3mYxQ13gKw/48pYyz+31vu2bSBvUlmQTJjFanOW9Jq4b+LFcsqGe+6+1zJ/CWKh3jljRhdFidO6i0Pcjnk37raWj0prFqXzaI8T7n2BpJBvDfJveFwR8zMKhOEjNvjMvSraSYFdKZFf696yn0Pcv9ALUsYxbH0YMC8iiiHxNYwHpLTMgS31FldtSDT6Smpeneejle+QCD7sVWFmw2Dc6glUpW8wYvs5xNJq9N2/Ncxjg+6cSpsvUV+aC7pIqvPWN8vWicySDt/jRyd6YHXoEJYk6LMyudCrqrqN13OuDm0AHMtz1lYH02cnGHXNfdlQ8z6/+pMjHjXN0BHYIIp/KMzXRPCshyft0R6D1BSdPsPh8mVQuF1A6e9hqyoSjjmcsa9pnCqpqoZBlXBrXUetBYdc3KTc4DtadevC4mpaWcl84v+DhSiF6UUkYZg+lCFZvZRjnb0/mZJFfqwitycPJDppjuQvOk05UjNO191JPC5B7SH+y7VWZAtU24hwvpK0922dwd8o9Co1TE05wgL/ZVh56ePwJ+TCldKlLQeqX92QF7odNDCsdYnM7PFx0hVM/faHeY9rMP1rJnwF65+rCcFdkeRUb0nJjJtwb7Mb5z2UANm/nBEfCroplQmJ+yhWpWO13O5Dy8MvpQxVaOlJ/XTp8FQ+hOhS9/xr/on5D+H9HPecL3/kkFAAAAJXRFWHRkYXRlOmNyZWF0ZQAyMDE5LTAxLTA5VDAzOjM4OjA0KzA4OjAw2I/VTgAAACV0RVh0ZGF0ZTptb2RpZnkAMjAxOS0wMS0wOVQwMzozODowNCswODowMKnSbfIAAABDdEVYdHNvZnR3YXJlAC91c3IvbG9jYWwvaW1hZ2VtYWdpY2svc2hhcmUvZG9jL0ltYWdlTWFnaWNrLTcvL2luZGV4Lmh0bWy9tXkKAAAAGHRFWHRUaHVtYjo6RG9jdW1lbnQ6OlBhZ2VzADGn/7svAAAAGHRFWHRUaHVtYjo6SW1hZ2U6OkhlaWdodAA1MTKPjVOBAAAAF3RFWHRUaHVtYjo6SW1hZ2U6OldpZHRoADUxMhx8A9wAAAAZdEVYdFRodW1iOjpNaW1ldHlwZQBpbWFnZS9wbmc/slZOAAAAF3RFWHRUaHVtYjo6TVRpbWUAMTU0Njk3NjI4NKBsMB0AAAASdEVYdFRodW1iOjpTaXplADI0MzgxQrqKyUAAAABidEVYdFRodW1iOjpVUkkAZmlsZTovLy9ob21lL3d3d3Jvb3QvbmV3c2l0ZS93d3cuZWFzeWljb24ubmV0L2Nkbi1pbWcuZWFzeWljb24uY24vZmlsZXMvMTE3LzExNzg3MDQucG5nZgVjiQAAAABJRU5ErkJggg==;fontSize=15;" parent="rkUMa0L5RHN7pk2te-x6-1" vertex="1">
          <mxGeometry x="156.5" y="645.5" width="49" height="49" as="geometry"/>
        </mxCell>
        <mxCell id="yx77YmfgwSrMBqolKUSb-53" value="数据库层" style="rounded=0;whiteSpace=wrap;html=1;fillColor=#dae8fc;strokeColor=#6c8ebf;fontStyle=1;fontSize=15;" parent="rkUMa0L5RHN7pk2te-x6-1" vertex="1">
          <mxGeometry x="43" y="220" width="70" height="140" as="geometry"/>
        </mxCell>
        <mxCell id="yx77YmfgwSrMBqolKUSb-54" value="" style="strokeWidth=2;html=1;shape=mxgraph.flowchart.database;whiteSpace=wrap;fontSize=15;fillColor=#f5f5f5;strokeColor=#666666;fontColor=#333333;" parent="rkUMa0L5RHN7pk2te-x6-1" vertex="1">
          <mxGeometry x="510.62" y="261.13" width="51.5" height="37.75" as="geometry"/>
        </mxCell>
        <mxCell id="yx77YmfgwSrMBqolKUSb-55" value="本体库" style="text;html=1;strokeColor=none;fillColor=none;align=center;verticalAlign=middle;whiteSpace=wrap;rounded=0;fontSize=15;" parent="rkUMa0L5RHN7pk2te-x6-1" vertex="1">
          <mxGeometry x="507.87" y="298.88" width="57" height="20" as="geometry"/>
        </mxCell>
        <mxCell id="yx77YmfgwSrMBqolKUSb-56" value="" style="strokeWidth=2;html=1;shape=mxgraph.flowchart.database;whiteSpace=wrap;fontSize=15;fillColor=#f5f5f5;strokeColor=#666666;fontColor=#333333;" parent="rkUMa0L5RHN7pk2te-x6-1" vertex="1">
          <mxGeometry x="602.62" y="261.13" width="51.5" height="37.75" as="geometry"/>
        </mxCell>
        <mxCell id="yx77YmfgwSrMBqolKUSb-57" value="资源数据库" style="text;html=1;strokeColor=none;fillColor=none;align=center;verticalAlign=middle;whiteSpace=wrap;rounded=0;fontSize=15;" parent="rkUMa0L5RHN7pk2te-x6-1" vertex="1">
          <mxGeometry x="588.87" y="298.88" width="79" height="20" as="geometry"/>
        </mxCell>
        <mxCell id="yx77YmfgwSrMBqolKUSb-62" value="数据源&lt;br style=&quot;font-size: 15px;&quot;&gt;的获取&lt;br style=&quot;font-size: 15px;&quot;&gt;途径" style="rounded=0;whiteSpace=wrap;html=1;fillColor=#dae8fc;strokeColor=#6c8ebf;fontStyle=1;fontSize=15;" parent="rkUMa0L5RHN7pk2te-x6-1" vertex="1">
          <mxGeometry x="42" y="615.5" width="70" height="107" as="geometry"/>
        </mxCell>
        <mxCell id="yx77YmfgwSrMBqolKUSb-66" value="" style="shape=flexArrow;endArrow=classic;html=1;fillColor=#d5e8d4;strokeColor=#82b366;fontSize=15;entryX=0.5;entryY=1;entryDx=0;entryDy=0;" parent="rkUMa0L5RHN7pk2te-x6-1" target="yx77YmfgwSrMBqolKUSb-31" edge="1">
          <mxGeometry width="50" height="50" relative="1" as="geometry">
            <mxPoint x="578.38" y="540.5" as="sourcePoint"/>
            <mxPoint x="578" y="500" as="targetPoint"/>
          </mxGeometry>
        </mxCell>
        <mxCell id="M3BuIXT7cpHWkspZqmxe-17" style="edgeStyle=orthogonalEdgeStyle;rounded=0;orthogonalLoop=1;jettySize=auto;html=1;exitX=1;exitY=0.5;exitDx=0;exitDy=0;entryX=0;entryY=0.5;entryDx=0;entryDy=0;" parent="rkUMa0L5RHN7pk2te-x6-1" source="yx77YmfgwSrMBqolKUSb-67" target="yx77YmfgwSrMBqolKUSb-32" edge="1">
          <mxGeometry relative="1" as="geometry"/>
        </mxCell>
        <mxCell id="yx77YmfgwSrMBqolKUSb-67" value="知识&lt;br&gt;更新" style="rounded=1;whiteSpace=wrap;html=1;fillColor=#fff2cc;strokeColor=#d6b656;fontSize=15;" parent="rkUMa0L5RHN7pk2te-x6-1" vertex="1">
          <mxGeometry x="453.5" y="390" width="52.5" height="38.75" as="geometry"/>
        </mxCell>
        <mxCell id="yx77YmfgwSrMBqolKUSb-68" value="" style="shape=flexArrow;endArrow=classic;html=1;fillColor=#d5e8d4;strokeColor=#82b366;fontSize=15;" parent="rkUMa0L5RHN7pk2te-x6-1" edge="1">
          <mxGeometry width="50" height="50" relative="1" as="geometry">
            <mxPoint x="578.0300000000003" y="390" as="sourcePoint"/>
            <mxPoint x="578" y="320" as="targetPoint"/>
          </mxGeometry>
        </mxCell>
        <mxCell id="yx77YmfgwSrMBqolKUSb-69" value="RDF" style="rounded=0;whiteSpace=wrap;html=1;fillColor=#f8cecc;strokeColor=#b85450;fontSize=15;" parent="rkUMa0L5RHN7pk2te-x6-1" vertex="1">
          <mxGeometry x="534.49" y="350" width="87.76" height="24" as="geometry"/>
        </mxCell>
        <mxCell id="yx77YmfgwSrMBqolKUSb-74" value="" style="rounded=0;whiteSpace=wrap;html=1;fillColor=none;fontSize=15;" parent="rkUMa0L5RHN7pk2te-x6-1" vertex="1">
          <mxGeometry x="483.24" y="228.69" width="217.5" height="102.63" as="geometry"/>
        </mxCell>
        <mxCell id="yx77YmfgwSrMBqolKUSb-75" value="知&lt;br&gt;识&lt;br&gt;库" style="text;html=1;strokeColor=none;fillColor=none;align=center;verticalAlign=middle;whiteSpace=wrap;rounded=0;fontStyle=1;fontSize=15;" parent="rkUMa0L5RHN7pk2te-x6-1" vertex="1">
          <mxGeometry x="670" y="252" width="28.04" height="56" as="geometry"/>
        </mxCell>
        <mxCell id="yx77YmfgwSrMBqolKUSb-76" value="&lt;span style=&quot;font-size: 15px&quot;&gt;语义网维护&lt;br style=&quot;font-size: 15px&quot;&gt;&lt;/span&gt;" style="rounded=1;whiteSpace=wrap;html=1;fillColor=#fff2cc;strokeColor=#d6b656;fontSize=15;" parent="rkUMa0L5RHN7pk2te-x6-1" vertex="1">
          <mxGeometry x="148" y="157.5" width="120" height="30" as="geometry"/>
        </mxCell>
        <mxCell id="yx77YmfgwSrMBqolKUSb-77" value="&lt;span style=&quot;font-size: 15px&quot;&gt;知识图谱嵌入&lt;br style=&quot;font-size: 15px&quot;&gt;&lt;/span&gt;" style="rounded=1;whiteSpace=wrap;html=1;fillColor=#fff2cc;strokeColor=#d6b656;fontSize=15;" parent="rkUMa0L5RHN7pk2te-x6-1" vertex="1">
          <mxGeometry x="568.37" y="157.5" width="120" height="30" as="geometry"/>
        </mxCell>
        <mxCell id="yx77YmfgwSrMBqolKUSb-78" value="&lt;span style=&quot;font-size: 15px&quot;&gt;知识分享心得查询&lt;br style=&quot;font-size: 15px&quot;&gt;&lt;/span&gt;" style="rounded=1;whiteSpace=wrap;html=1;fillColor=#fff2cc;strokeColor=#d6b656;fontSize=15;" parent="rkUMa0L5RHN7pk2te-x6-1" vertex="1">
          <mxGeometry x="422" y="157.5" width="138" height="30" as="geometry"/>
        </mxCell>
        <mxCell id="M3BuIXT7cpHWkspZqmxe-1" value="" style="shape=flexArrow;endArrow=classic;html=1;entryX=0.5;entryY=1;entryDx=0;entryDy=0;fontSize=15;strokeColor=#82b366;fillColor=#d5e8d4;" parent="rkUMa0L5RHN7pk2te-x6-1" target="yx77YmfgwSrMBqolKUSb-25" edge="1">
          <mxGeometry width="50" height="50" relative="1" as="geometry">
            <mxPoint x="242" y="540" as="sourcePoint"/>
            <mxPoint x="210" y="520" as="targetPoint"/>
          </mxGeometry>
        </mxCell>
        <mxCell id="M3BuIXT7cpHWkspZqmxe-12" value="" style="shape=flexArrow;endArrow=classic;html=1;fillColor=#d5e8d4;strokeColor=#82b366;fontSize=15;entryX=0;entryY=0.5;entryDx=0;entryDy=0;exitX=1;exitY=0.5;exitDx=0;exitDy=0;" parent="rkUMa0L5RHN7pk2te-x6-1" source="yx77YmfgwSrMBqolKUSb-25" target="yx77YmfgwSrMBqolKUSb-36" edge="1">
          <mxGeometry width="50" height="50" relative="1" as="geometry">
            <mxPoint x="588.3800000000001" y="550.5" as="sourcePoint"/>
            <mxPoint x="588" y="510" as="targetPoint"/>
          </mxGeometry>
        </mxCell>
        <mxCell id="M3BuIXT7cpHWkspZqmxe-25" value="Elastic Search" style="rounded=1;whiteSpace=wrap;html=1;fillColor=#fff2cc;strokeColor=#d6b656;fontSize=15;" parent="rkUMa0L5RHN7pk2te-x6-1" vertex="1">
          <mxGeometry x="145" y="250" width="85.5" height="80" as="geometry"/>
        </mxCell>
        <mxCell id="M3BuIXT7cpHWkspZqmxe-35" style="edgeStyle=orthogonalEdgeStyle;curved=1;rounded=0;orthogonalLoop=1;jettySize=auto;html=1;exitX=0.5;exitY=1;exitDx=0;exitDy=0;entryX=0;entryY=0.5;entryDx=0;entryDy=0;entryPerimeter=0;fillColor=#dae8fc;strokeColor=#6c8ebf;strokeWidth=2;" parent="rkUMa0L5RHN7pk2te-x6-1" source="M3BuIXT7cpHWkspZqmxe-28" target="yx77YmfgwSrMBqolKUSb-54" edge="1">
          <mxGeometry relative="1" as="geometry">
            <mxPoint x="490" y="340" as="targetPoint"/>
          </mxGeometry>
        </mxCell>
        <mxCell id="M3BuIXT7cpHWkspZqmxe-28" value="图数据库" style="rounded=1;whiteSpace=wrap;html=1;fillColor=#fff2cc;strokeColor=#d6b656;fontSize=15;" parent="rkUMa0L5RHN7pk2te-x6-1" vertex="1">
          <mxGeometry x="357.25" y="250" width="85.5" height="80" as="geometry"/>
        </mxCell>
        <mxCell id="M3BuIXT7cpHWkspZqmxe-34" style="edgeStyle=orthogonalEdgeStyle;curved=1;rounded=0;orthogonalLoop=1;jettySize=auto;html=1;exitX=1;exitY=0;exitDx=0;exitDy=0;entryX=0.5;entryY=0;entryDx=0;entryDy=0;entryPerimeter=0;strokeWidth=2;fillColor=#dae8fc;strokeColor=#6c8ebf;" parent="rkUMa0L5RHN7pk2te-x6-1" source="M3BuIXT7cpHWkspZqmxe-29" target="yx77YmfgwSrMBqolKUSb-56" edge="1">
          <mxGeometry relative="1" as="geometry"/>
        </mxCell>
        <mxCell id="M3BuIXT7cpHWkspZqmxe-29" value="MySQL&lt;br&gt;数据库" style="rounded=1;whiteSpace=wrap;html=1;fillColor=#fff2cc;strokeColor=#d6b656;fontSize=15;" parent="rkUMa0L5RHN7pk2te-x6-1" vertex="1">
          <mxGeometry x="251.62" y="250" width="85.5" height="80" as="geometry"/>
        </mxCell>
        <mxCell id="M3BuIXT7cpHWkspZqmxe-30" value="" style="rounded=0;whiteSpace=wrap;html=1;fillColor=none;fontSize=15;" parent="rkUMa0L5RHN7pk2te-x6-1" vertex="1">
          <mxGeometry x="130.5" y="220" width="319.5" height="136" as="geometry"/>
        </mxCell>
        <mxCell id="yx77YmfgwSrMBqolKUSb-72" value="数据库" style="text;html=1;strokeColor=none;fillColor=none;align=center;verticalAlign=middle;whiteSpace=wrap;rounded=0;fontStyle=1;fontSize=15;" parent="rkUMa0L5RHN7pk2te-x6-1" vertex="1">
          <mxGeometry x="266.37" y="224" width="47.75" height="20" as="geometry"/>
        </mxCell>
      </root>
    </mxGraphModel>
  </diagram>
  <diagram id="fLHI320jemhbSp0tQXFh" name="模块图">
    <mxGraphModel dx="1128" dy="560" grid="1" gridSize="10" guides="1" tooltips="1" connect="1" arrows="1" fold="1" page="1" pageScale="1" pageWidth="827" pageHeight="1169" math="0" shadow="0">
      <root>
        <mxCell id="MeemD_y3Zr-h-Jw438hD-0"/>
        <mxCell id="MeemD_y3Zr-h-Jw438hD-1" parent="MeemD_y3Zr-h-Jw438hD-0"/>
        <mxCell id="mJBPuiORoivS5s-u-ZCJ-6" value="知识图谱构造" style="rounded=0;whiteSpace=wrap;html=1;fillColor=#1ba1e2;strokeColor=#006EAF;fontColor=#ffffff;fontSize=16;" parent="MeemD_y3Zr-h-Jw438hD-1" vertex="1">
          <mxGeometry x="47.5" y="20" width="392.5" height="40" as="geometry"/>
        </mxCell>
        <mxCell id="mJBPuiORoivS5s-u-ZCJ-7" value="数据获取" style="rounded=0;whiteSpace=wrap;html=1;fillColor=#dae8fc;strokeColor=#6c8ebf;fontSize=13;" parent="MeemD_y3Zr-h-Jw438hD-1" vertex="1">
          <mxGeometry x="47.5" y="80" width="120" height="30" as="geometry"/>
        </mxCell>
        <mxCell id="mJBPuiORoivS5s-u-ZCJ-8" value="内管数据库" style="rounded=0;whiteSpace=wrap;html=1;fontSize=13;fillColor=#e1d5e7;strokeColor=#9673a6;" parent="MeemD_y3Zr-h-Jw438hD-1" vertex="1">
          <mxGeometry x="47.5" y="115" width="120" height="30" as="geometry"/>
        </mxCell>
        <mxCell id="mJBPuiORoivS5s-u-ZCJ-9" value="网页表单" style="rounded=0;whiteSpace=wrap;html=1;fontSize=13;fillColor=#e1d5e7;strokeColor=#9673a6;" parent="MeemD_y3Zr-h-Jw438hD-1" vertex="1">
          <mxGeometry x="47.5" y="152.5" width="120" height="30" as="geometry"/>
        </mxCell>
        <mxCell id="mJBPuiORoivS5s-u-ZCJ-10" value="爬虫" style="rounded=0;whiteSpace=wrap;html=1;fontSize=13;fillColor=#e1d5e7;strokeColor=#9673a6;" parent="MeemD_y3Zr-h-Jw438hD-1" vertex="1">
          <mxGeometry x="47.5" y="190" width="120" height="30" as="geometry"/>
        </mxCell>
        <mxCell id="mJBPuiORoivS5s-u-ZCJ-11" value="内部规章文件" style="rounded=0;whiteSpace=wrap;html=1;fontSize=13;fillColor=#e1d5e7;strokeColor=#9673a6;" parent="MeemD_y3Zr-h-Jw438hD-1" vertex="1">
          <mxGeometry x="47.5" y="230" width="120" height="30" as="geometry"/>
        </mxCell>
        <mxCell id="mJBPuiORoivS5s-u-ZCJ-13" value="知识抽取" style="rounded=0;whiteSpace=wrap;html=1;fillColor=#dae8fc;strokeColor=#6c8ebf;fontSize=13;" parent="MeemD_y3Zr-h-Jw438hD-1" vertex="1">
          <mxGeometry x="180" y="80" width="120" height="30" as="geometry"/>
        </mxCell>
        <mxCell id="mJBPuiORoivS5s-u-ZCJ-14" value="&lt;span style=&quot;font-size: 13px&quot;&gt;命名实体识别&lt;/span&gt;" style="rounded=0;whiteSpace=wrap;html=1;fontSize=13;fillColor=#f8cecc;strokeColor=#b85450;" parent="MeemD_y3Zr-h-Jw438hD-1" vertex="1">
          <mxGeometry x="180" y="125" width="120" height="30" as="geometry"/>
        </mxCell>
        <mxCell id="mJBPuiORoivS5s-u-ZCJ-15" value="实体关系抽取" style="rounded=0;whiteSpace=wrap;html=1;fontSize=13;fillColor=#f8cecc;strokeColor=#b85450;" parent="MeemD_y3Zr-h-Jw438hD-1" vertex="1">
          <mxGeometry x="180" y="182.5" width="120" height="30" as="geometry"/>
        </mxCell>
        <mxCell id="mJBPuiORoivS5s-u-ZCJ-16" value="实体属性抽取" style="rounded=0;whiteSpace=wrap;html=1;fontSize=13;fillColor=#f8cecc;strokeColor=#b85450;" parent="MeemD_y3Zr-h-Jw438hD-1" vertex="1">
          <mxGeometry x="180" y="240" width="120" height="30" as="geometry"/>
        </mxCell>
        <mxCell id="mJBPuiORoivS5s-u-ZCJ-18" value="知识融合" style="rounded=0;whiteSpace=wrap;html=1;fillColor=#dae8fc;strokeColor=#6c8ebf;fontSize=13;" parent="MeemD_y3Zr-h-Jw438hD-1" vertex="1">
          <mxGeometry x="320" y="80" width="120" height="30" as="geometry"/>
        </mxCell>
        <mxCell id="mJBPuiORoivS5s-u-ZCJ-19" value="数据整合" style="rounded=0;whiteSpace=wrap;html=1;fontSize=13;fillColor=#d5e8d4;strokeColor=#82b366;" parent="MeemD_y3Zr-h-Jw438hD-1" vertex="1">
          <mxGeometry x="320" y="115" width="120" height="30" as="geometry"/>
        </mxCell>
        <mxCell id="mJBPuiORoivS5s-u-ZCJ-20" value="实体消歧" style="rounded=0;whiteSpace=wrap;html=1;fontSize=13;fillColor=#d5e8d4;strokeColor=#82b366;" parent="MeemD_y3Zr-h-Jw438hD-1" vertex="1">
          <mxGeometry x="320" y="192.5" width="120" height="30" as="geometry"/>
        </mxCell>
        <mxCell id="mJBPuiORoivS5s-u-ZCJ-21" value="实体对齐" style="rounded=0;whiteSpace=wrap;html=1;fontSize=13;fillColor=#d5e8d4;strokeColor=#82b366;" parent="MeemD_y3Zr-h-Jw438hD-1" vertex="1">
          <mxGeometry x="320" y="232.5" width="120" height="30" as="geometry"/>
        </mxCell>
        <mxCell id="mJBPuiORoivS5s-u-ZCJ-22" value="本体构建" style="rounded=0;whiteSpace=wrap;html=1;fontSize=13;fillColor=#d5e8d4;strokeColor=#82b366;" parent="MeemD_y3Zr-h-Jw438hD-1" vertex="1">
          <mxGeometry x="320" y="152.5" width="120" height="30" as="geometry"/>
        </mxCell>
        <mxCell id="mJBPuiORoivS5s-u-ZCJ-27" value="知识图谱应用" style="rounded=0;whiteSpace=wrap;html=1;fillColor=#1ba1e2;strokeColor=#006EAF;fontColor=#ffffff;fontSize=16;" parent="MeemD_y3Zr-h-Jw438hD-1" vertex="1">
          <mxGeometry x="457.5" y="20" width="260" height="40" as="geometry"/>
        </mxCell>
        <mxCell id="mJBPuiORoivS5s-u-ZCJ-29" value="基础服务" style="rounded=0;whiteSpace=wrap;html=1;fillColor=#dae8fc;strokeColor=#6c8ebf;fontSize=13;" parent="MeemD_y3Zr-h-Jw438hD-1" vertex="1">
          <mxGeometry x="457.5" y="80" width="120" height="30" as="geometry"/>
        </mxCell>
        <mxCell id="mJBPuiORoivS5s-u-ZCJ-30" value="知识库维护" style="rounded=0;whiteSpace=wrap;html=1;fontSize=13;fillColor=#f5f5f5;strokeColor=#666666;fontColor=#333333;" parent="MeemD_y3Zr-h-Jw438hD-1" vertex="1">
          <mxGeometry x="457.5" y="117.5" width="120" height="35" as="geometry"/>
        </mxCell>
        <mxCell id="mJBPuiORoivS5s-u-ZCJ-31" value="知识查询" style="rounded=0;whiteSpace=wrap;html=1;fontSize=13;fillColor=#f5f5f5;strokeColor=#666666;fontColor=#333333;" parent="MeemD_y3Zr-h-Jw438hD-1" vertex="1">
          <mxGeometry x="457.5" y="160" width="120" height="30" as="geometry"/>
        </mxCell>
        <mxCell id="mJBPuiORoivS5s-u-ZCJ-32" value="分享心得查询" style="rounded=0;whiteSpace=wrap;html=1;fontSize=13;fillColor=#f5f5f5;strokeColor=#666666;fontColor=#333333;" parent="MeemD_y3Zr-h-Jw438hD-1" vertex="1">
          <mxGeometry x="457.5" y="200" width="120" height="30" as="geometry"/>
        </mxCell>
        <mxCell id="mJBPuiORoivS5s-u-ZCJ-35" value="知识图谱可视化" style="rounded=0;whiteSpace=wrap;html=1;fillColor=#dae8fc;strokeColor=#6c8ebf;fontSize=13;" parent="MeemD_y3Zr-h-Jw438hD-1" vertex="1">
          <mxGeometry x="597.5" y="80" width="120" height="30" as="geometry"/>
        </mxCell>
        <mxCell id="mJBPuiORoivS5s-u-ZCJ-37" value="知识可视化" style="rounded=0;whiteSpace=wrap;html=1;fontSize=13;fillColor=#FFCCE6;strokeColor=#666666;fontColor=#333333;" parent="MeemD_y3Zr-h-Jw438hD-1" vertex="1">
          <mxGeometry x="597.5" y="117.5" width="120" height="30" as="geometry"/>
        </mxCell>
        <mxCell id="mJBPuiORoivS5s-u-ZCJ-38" value="语义网可视化" style="rounded=0;whiteSpace=wrap;html=1;fontSize=13;fillColor=#FFCCE6;strokeColor=#666666;fontColor=#333333;" parent="MeemD_y3Zr-h-Jw438hD-1" vertex="1">
          <mxGeometry x="597.5" y="157.5" width="120" height="30" as="geometry"/>
        </mxCell>
        <mxCell id="mJBPuiORoivS5s-u-ZCJ-39" value="分享心得可视化" style="rounded=0;whiteSpace=wrap;html=1;fontSize=13;fillColor=#FFCCE6;strokeColor=#666666;fontColor=#333333;" parent="MeemD_y3Zr-h-Jw438hD-1" vertex="1">
          <mxGeometry x="597.5" y="197.5" width="120" height="30" as="geometry"/>
        </mxCell>
        <mxCell id="_2rN84PhHy7aGXrU-i_G-0" value="知识图谱嵌入" style="rounded=0;whiteSpace=wrap;html=1;fontSize=13;fillColor=#f5f5f5;strokeColor=#666666;fontColor=#333333;" parent="MeemD_y3Zr-h-Jw438hD-1" vertex="1">
          <mxGeometry x="457.5" y="240" width="120" height="30" as="geometry"/>
        </mxCell>
        <mxCell id="n9Al1f25dNUuuKOjR8TF-0" value="......" style="rounded=0;whiteSpace=wrap;html=1;fontSize=13;fillColor=#e1d5e7;strokeColor=#9673a6;" parent="MeemD_y3Zr-h-Jw438hD-1" vertex="1">
          <mxGeometry x="47.5" y="270" width="120" height="30" as="geometry"/>
        </mxCell>
        <mxCell id="n9Al1f25dNUuuKOjR8TF-2" value="质量评估" style="rounded=0;whiteSpace=wrap;html=1;fontSize=13;fillColor=#d5e8d4;strokeColor=#82b366;" parent="MeemD_y3Zr-h-Jw438hD-1" vertex="1">
          <mxGeometry x="320" y="270" width="120" height="30" as="geometry"/>
        </mxCell>
        <mxCell id="n9Al1f25dNUuuKOjR8TF-3" value="知识更新" style="rounded=0;whiteSpace=wrap;html=1;fontSize=13;fillColor=#d5e8d4;strokeColor=#82b366;" parent="MeemD_y3Zr-h-Jw438hD-1" vertex="1">
          <mxGeometry x="320" y="312.5" width="120" height="30" as="geometry"/>
        </mxCell>
        <mxCell id="C65Ly8omjrFWtERnyNAf-0" value="知识更新" style="rounded=0;whiteSpace=wrap;html=1;fontSize=13;fillColor=#f5f5f5;strokeColor=#666666;fontColor=#333333;" vertex="1" parent="MeemD_y3Zr-h-Jw438hD-1">
          <mxGeometry x="457.5" y="280" width="120" height="30" as="geometry"/>
        </mxCell>
      </root>
    </mxGraphModel>
  </diagram>
  <diagram id="Qh0-shF1h7BOO1PD9KXr" name="Page-6">
    <mxGraphModel dx="1635" dy="812" grid="1" gridSize="10" guides="1" tooltips="1" connect="1" arrows="1" fold="1" page="1" pageScale="1" pageWidth="827" pageHeight="1169" math="0" shadow="0">
      <root>
        <mxCell id="byW2bmFfXzwAbGBDT-Ik-0"/>
        <mxCell id="byW2bmFfXzwAbGBDT-Ik-1" parent="byW2bmFfXzwAbGBDT-Ik-0"/>
        <mxCell id="U_kp9BEfbJwizV5x1ss_-15" value="" style="edgeStyle=orthogonalEdgeStyle;rounded=0;orthogonalLoop=1;jettySize=auto;html=1;" edge="1" parent="byW2bmFfXzwAbGBDT-Ik-1" source="U_kp9BEfbJwizV5x1ss_-1" target="U_kp9BEfbJwizV5x1ss_-14">
          <mxGeometry relative="1" as="geometry"/>
        </mxCell>
        <mxCell id="U_kp9BEfbJwizV5x1ss_-1" value="数据整合" style="rounded=0;whiteSpace=wrap;html=1;fontSize=13;" vertex="1" parent="byW2bmFfXzwAbGBDT-Ik-1">
          <mxGeometry x="210" y="180" width="120" height="60" as="geometry"/>
        </mxCell>
        <mxCell id="U_kp9BEfbJwizV5x1ss_-17" value="" style="edgeStyle=orthogonalEdgeStyle;rounded=0;orthogonalLoop=1;jettySize=auto;html=1;" edge="1" parent="byW2bmFfXzwAbGBDT-Ik-1" source="U_kp9BEfbJwizV5x1ss_-14" target="U_kp9BEfbJwizV5x1ss_-16">
          <mxGeometry relative="1" as="geometry"/>
        </mxCell>
        <mxCell id="U_kp9BEfbJwizV5x1ss_-14" value="本体构建" style="rounded=0;whiteSpace=wrap;html=1;fontSize=13;" vertex="1" parent="byW2bmFfXzwAbGBDT-Ik-1">
          <mxGeometry x="390" y="180" width="120" height="60" as="geometry"/>
        </mxCell>
        <mxCell id="U_kp9BEfbJwizV5x1ss_-21" style="edgeStyle=orthogonalEdgeStyle;rounded=0;orthogonalLoop=1;jettySize=auto;html=1;exitX=0;exitY=0.5;exitDx=0;exitDy=0;entryX=1;entryY=0.5;entryDx=0;entryDy=0;" edge="1" parent="byW2bmFfXzwAbGBDT-Ik-1" source="U_kp9BEfbJwizV5x1ss_-16" target="U_kp9BEfbJwizV5x1ss_-19">
          <mxGeometry relative="1" as="geometry"/>
        </mxCell>
        <mxCell id="U_kp9BEfbJwizV5x1ss_-16" value="实体消歧&lt;br&gt;与&lt;br&gt;实体对齐" style="rounded=0;whiteSpace=wrap;html=1;fontSize=13;" vertex="1" parent="byW2bmFfXzwAbGBDT-Ik-1">
          <mxGeometry x="390" y="330" width="120" height="60" as="geometry"/>
        </mxCell>
        <mxCell id="U_kp9BEfbJwizV5x1ss_-12" style="edgeStyle=orthogonalEdgeStyle;rounded=0;orthogonalLoop=1;jettySize=auto;html=1;exitX=1;exitY=0.5;exitDx=0;exitDy=0;entryX=0;entryY=0.5;entryDx=0;entryDy=0;" edge="1" parent="byW2bmFfXzwAbGBDT-Ik-1" source="U_kp9BEfbJwizV5x1ss_-9" target="U_kp9BEfbJwizV5x1ss_-1">
          <mxGeometry relative="1" as="geometry"/>
        </mxCell>
        <mxCell id="U_kp9BEfbJwizV5x1ss_-9" value="&lt;span style=&quot;font-size: 13.3333px ; white-space: normal&quot;&gt;相同实体来源&lt;/span&gt;&lt;br style=&quot;font-size: 13.3333px ; white-space: normal&quot;&gt;&lt;span style=&quot;font-size: 13.3333px ; white-space: normal&quot;&gt;得到的实体&lt;/span&gt;" style="ellipse;whiteSpace=wrap;html=1;fillColor=#f5f5f5;strokeColor=#666666;fontColor=#333333;" vertex="1" parent="byW2bmFfXzwAbGBDT-Ik-1">
          <mxGeometry x="30" y="120" width="120" height="80" as="geometry"/>
        </mxCell>
        <mxCell id="U_kp9BEfbJwizV5x1ss_-13" style="edgeStyle=orthogonalEdgeStyle;rounded=0;orthogonalLoop=1;jettySize=auto;html=1;exitX=1;exitY=0.5;exitDx=0;exitDy=0;entryX=0;entryY=0.5;entryDx=0;entryDy=0;" edge="1" parent="byW2bmFfXzwAbGBDT-Ik-1" source="U_kp9BEfbJwizV5x1ss_-11" target="U_kp9BEfbJwizV5x1ss_-1">
          <mxGeometry relative="1" as="geometry"/>
        </mxCell>
        <mxCell id="U_kp9BEfbJwizV5x1ss_-11" value="&lt;span style=&quot;font-size: 13.3333px&quot;&gt;不同实体来源&lt;/span&gt;&lt;br style=&quot;font-size: 13.3333px&quot;&gt;&lt;span style=&quot;font-size: 13.3333px&quot;&gt;得到的实体&lt;/span&gt;" style="ellipse;whiteSpace=wrap;html=1;fillColor=#dae8fc;strokeColor=#6c8ebf;" vertex="1" parent="byW2bmFfXzwAbGBDT-Ik-1">
          <mxGeometry x="30" y="230" width="120" height="80" as="geometry"/>
        </mxCell>
        <mxCell id="U_kp9BEfbJwizV5x1ss_-25" style="edgeStyle=orthogonalEdgeStyle;rounded=0;orthogonalLoop=1;jettySize=auto;html=1;exitX=0;exitY=0.5;exitDx=0;exitDy=0;entryX=1;entryY=0.5;entryDx=0;entryDy=0;" edge="1" parent="byW2bmFfXzwAbGBDT-Ik-1" source="U_kp9BEfbJwizV5x1ss_-19" target="U_kp9BEfbJwizV5x1ss_-22">
          <mxGeometry relative="1" as="geometry"/>
        </mxCell>
        <mxCell id="U_kp9BEfbJwizV5x1ss_-19" value="实体消歧" style="rounded=0;whiteSpace=wrap;html=1;fontSize=13;" vertex="1" parent="byW2bmFfXzwAbGBDT-Ik-1">
          <mxGeometry x="220" y="330" width="120" height="60" as="geometry"/>
        </mxCell>
        <mxCell id="U_kp9BEfbJwizV5x1ss_-24" value="" style="edgeStyle=orthogonalEdgeStyle;rounded=0;orthogonalLoop=1;jettySize=auto;html=1;" edge="1" parent="byW2bmFfXzwAbGBDT-Ik-1" source="U_kp9BEfbJwizV5x1ss_-22" target="U_kp9BEfbJwizV5x1ss_-23">
          <mxGeometry relative="1" as="geometry"/>
        </mxCell>
        <mxCell id="U_kp9BEfbJwizV5x1ss_-22" value="质量评估" style="rounded=0;whiteSpace=wrap;html=1;fontSize=13;" vertex="1" parent="byW2bmFfXzwAbGBDT-Ik-1">
          <mxGeometry x="40" y="330" width="120" height="60" as="geometry"/>
        </mxCell>
        <mxCell id="U_kp9BEfbJwizV5x1ss_-23" value="知识更新" style="rounded=0;whiteSpace=wrap;html=1;fontSize=13;" vertex="1" parent="byW2bmFfXzwAbGBDT-Ik-1">
          <mxGeometry x="40" y="430" width="120" height="60" as="geometry"/>
        </mxCell>
      </root>
    </mxGraphModel>
  </diagram>
</mxfile>
